<svg width="581" height="581" viewBox="0 0 581 581" fill="none" xmlns="http://www.w3.org/2000/svg">
<path d="M482.613 301.98C482.555 213.099 495.918 189.568 447.754 114.48C399.589 39.3916 281.518 22.7633 192.23 78.458C102.942 134.153 78.9347 205.778 78.9347 205.778C78.9347 205.778 46.5382 289.442 92.0653 373.687C133.7 450.751 215.69 494.535 286.805 530.557H468.646C479.699 521.242 489.097 510.123 496.441 497.673C533.474 435.355 482.683 390.862 482.613 301.98Z" fill="#1865F2"/>
<path opacity="0.7" d="M482.613 301.98C482.555 213.099 495.918 189.568 447.754 114.48C399.589 39.3916 281.518 22.7633 192.23 78.458C102.942 134.153 78.9347 205.778 78.9347 205.778C78.9347 205.778 46.5382 289.442 92.0653 373.687C133.7 450.751 215.69 494.535 286.805 530.557H468.646C479.699 521.242 489.097 510.123 496.441 497.673C533.474 435.355 482.683 390.862 482.613 301.98Z" fill="white"/>
<path d="M267.016 58.9365C268.585 65.1532 267.818 53.7075 270.897 39.6938C273.977 25.68 279.24 31.3738 279.24 31.3738" stroke="#263238" stroke-linecap="round" stroke-linejoin="round"/>
<path d="M266.052 44.6207L275.708 40.6699" stroke="#263238" stroke-linecap="round" stroke-linejoin="round"/>
<path d="M283.691 35.9287C283.691 35.9287 277.881 47.8508 286.607 52.9288" stroke="#263238" stroke-linecap="round" stroke-linejoin="round"/>
<path d="M291.871 32.5356C291.871 32.5356 301.388 37.8227 295.427 49.2801" stroke="#263238" stroke-linecap="round" stroke-linejoin="round"/>
<path d="M285.341 39.9609L292.162 44.9459" stroke="#263238" stroke-linecap="round" stroke-linejoin="round"/>
<path d="M290.697 37.7764L285.352 46.2706" stroke="#263238" stroke-linecap="round" stroke-linejoin="round"/>
<path d="M82.8622 339.792C82.8622 339.792 66.6756 339.559 66.5942 353.527" stroke="#263238" stroke-linecap="round" stroke-linejoin="round"/>
<path d="M81.5143 348.6C81.1773 346.543 74.1356 343.952 72.9155 349.32C71.6954 354.689 80.4453 351.47 83.1527 348.96C83.1527 348.96 78.1329 353.84 79.6667 355.212" stroke="#263238" stroke-linecap="round" stroke-linejoin="round"/>
<path d="M82.5019 356.734C82.5019 356.734 80.3755 359.395 78.0747 358.128" stroke="#263238" stroke-linecap="round" stroke-linejoin="round"/>
<path d="M96.6668 347.438L84.5239 359.767C84.5239 359.767 90.6361 353.573 94.1802 355.572C98.5958 357.989 92.8671 364.612 88.1494 359.871" stroke="#263238" stroke-linecap="round" stroke-linejoin="round"/>
<path d="M102.802 350.761C102.802 350.761 106.021 365.507 89.4043 366.03" stroke="#263238" stroke-linecap="round" stroke-linejoin="round"/>
<path d="M319.585 100.083L325.441 101.048L325.523 114.352L338.351 90.9614L358.593 94.2847" stroke="#263238" stroke-linecap="round" stroke-linejoin="round"/>
<path d="M340.571 101.21L349.471 116.92" stroke="#263238" stroke-linecap="round" stroke-linejoin="round"/>
<path d="M351.761 103.046L335.83 114.678" stroke="#263238" stroke-linecap="round" stroke-linejoin="round"/>
<path d="M239.558 123.764C238.059 121.859 229.425 123.218 231.18 129.33C232.935 135.442 240.069 127.297 241.429 123.218C241.429 123.218 239.047 131.015 241.429 131.538" stroke="#263238" stroke-linecap="round" stroke-linejoin="round"/>
<path d="M246.17 117.478L244.241 124.334C244.241 124.334 245.205 120.848 246.902 120.848C248.982 120.848 248.226 124.334 245.565 123.613" stroke="#263238" stroke-linecap="round" stroke-linejoin="round"/>
<path d="M408.943 201.979L404.876 216.678L413.765 226.415" stroke="#263238" stroke-linecap="round" stroke-linejoin="round"/>
<path d="M414.032 207.951L424.211 216.469" stroke="#263238" stroke-linecap="round" stroke-linejoin="round"/>
<path d="M421.039 205.86L416.635 216.678" stroke="#263238" stroke-linecap="round" stroke-linejoin="round"/>
<path d="M428.197 215.284C428.197 215.284 428.29 218.351 426.965 218.77" stroke="#263238" stroke-linecap="round" stroke-linejoin="round"/>
<path d="M429.487 204.57L435.634 209.136" stroke="#263238" stroke-linecap="round" stroke-linejoin="round"/>
<path d="M437.911 200.817L431.846 222.662" stroke="#263238" stroke-linecap="round" stroke-linejoin="round"/>
<path d="M438.213 193.229L448.067 204.384L443.872 216.585" stroke="#263238" stroke-linecap="round" stroke-linejoin="round"/>
<path d="M166.84 481.079L181.098 438.643L198.388 457.944L166.84 481.079Z" stroke="#263238" stroke-linecap="round" stroke-linejoin="round"/>
<path d="M194.147 461.047L190.498 456.875L194.391 453.505" stroke="#263238" stroke-linecap="round" stroke-linejoin="round"/>
<path d="M39.9688 253.575C47.3742 250.507 50.8908 242.017 47.8234 234.612C44.756 227.207 36.2661 223.69 28.8608 226.757C21.4554 229.825 17.9388 238.315 21.0062 245.72C24.0736 253.126 32.5634 256.642 39.9688 253.575Z" stroke="#263238" stroke-linecap="round" stroke-linejoin="round"/>
<path d="M50.5152 243.562C59.41 243.562 66.6206 236.351 66.6206 227.456C66.6206 218.562 59.41 211.351 50.5152 211.351C41.6205 211.351 34.4099 218.562 34.4099 227.456C34.4099 236.351 41.6205 243.562 50.5152 243.562Z" stroke="#263238" stroke-linecap="round" stroke-linejoin="round"/>
<path d="M37.2682 225.934L35.3044 232.755" stroke="#263238" stroke-linecap="round" stroke-linejoin="round"/>
<path d="M40.0455 226.782L37.2683 236.613" stroke="#263238" stroke-linecap="round" stroke-linejoin="round"/>
<path d="M42.962 228.432L40.0454 239.552" stroke="#263238" stroke-linecap="round" stroke-linejoin="round"/>
<path d="M46.204 231.698L44.124 242.249" stroke="#263238" stroke-linecap="round" stroke-linejoin="round"/>
<path d="M48.0284 235.137L46.2041 242.981" stroke="#263238" stroke-linecap="round" stroke-linejoin="round"/>
<path d="M20.5356 221.565C19.269 221.181 15.7946 224.481 18.4904 226.701C21.1863 228.92 21.8719 223.006 21.2095 220.74C21.2095 220.74 22.5691 225.004 23.8008 224.493" stroke="#263238" stroke-linecap="round" stroke-linejoin="round"/>
<path d="M39.2668 202.938L43.9148 211.397C43.9148 211.397 41.5908 207.167 43.2293 205.587C45.2279 203.635 47.8773 207.76 44.5307 209.491" stroke="#263238" stroke-linecap="round" stroke-linejoin="round"/>
<path d="M132.888 155.995L139.454 162.211" stroke="#263238" stroke-linecap="round" stroke-linejoin="round"/>
<path d="M139.454 154.38L133.958 162.584" stroke="#263238" stroke-linecap="round" stroke-linejoin="round"/>
<path d="M145.915 156.738L152.48 154.287" stroke="#263238" stroke-linecap="round" stroke-linejoin="round"/>
<path d="M155.629 147.442L159.626 150.975" stroke="#263238" stroke-linecap="round" stroke-linejoin="round"/>
<path d="M162.682 143.189L157.627 160.55" stroke="#263238" stroke-linecap="round" stroke-linejoin="round"/>
<path d="M506.078 148.218L505.8 134.948H515.828C515.828 134.948 510.273 138.016 512.83 145.151C515.386 152.285 519.5 148.218 519.5 148.218" stroke="#263238" stroke-linecap="round" stroke-linejoin="round"/>
<path d="M466.566 401.088L477.977 393.232L493.083 394.29L494.024 413.44L482.939 421.376L469.251 420.377L466.566 401.088Z" stroke="#263238" stroke-linecap="round" stroke-linejoin="round"/>
<path d="M469.25 420.377L480.289 412.429L494.024 413.44" stroke="#263238" stroke-linecap="round" stroke-linejoin="round"/>
<path d="M480.301 412.429L477.977 393.232" stroke="#263238" stroke-linecap="round" stroke-linejoin="round"/>
<path d="M466.566 401.087L481.638 402.83L493.083 394.29" stroke="#263238" stroke-linecap="round" stroke-linejoin="round"/>
<path d="M481.637 402.831L482.939 421.376" stroke="#263238" stroke-linecap="round" stroke-linejoin="round"/>
<path d="M506.288 275.048L505.8 300.577L528.168 290.421L506.288 275.048Z" stroke="#263238" stroke-linecap="round" stroke-linejoin="round"/>
<path d="M506.288 275.048L516.943 295.371" stroke="#263238" stroke-linecap="round" stroke-linejoin="round"/>
<path d="M515.235 292.106L517.826 290.851L519.569 294.325" stroke="#263238" stroke-linecap="round" stroke-linejoin="round"/>
<path d="M96.8333 64.8685C97.2761 59.2381 99.1307 53.8102 102.226 49.0862C105.321 44.3622 109.557 40.4945 114.542 37.8403" stroke="#263238" stroke-linecap="round" stroke-linejoin="round"/>
<path d="M122.525 100.31C114.05 98.2772 106.696 93.0317 102.016 85.6802" stroke="#263238" stroke-linecap="round" stroke-linejoin="round"/>
<path d="M163.951 70.2256C163.233 79.1247 159.014 87.3754 152.219 93.1662C145.423 98.957 136.608 101.815 127.708 101.112" stroke="#263238" stroke-linecap="round" stroke-linejoin="round"/>
<path d="M133.065 33.9946C140.716 34.608 147.928 37.8148 153.508 43.0847C159.089 48.3546 162.703 55.3716 163.753 62.9749" stroke="#263238" stroke-linecap="round" stroke-linejoin="round"/>
<path d="M144.917 93.4657C140.22 96.101 134.895 97.4101 129.511 97.2529C124.128 97.0956 118.888 95.478 114.353 92.5731C109.817 89.6681 106.157 85.585 103.763 80.7604C101.369 75.9359 100.331 70.5513 100.761 65.1826" stroke="#263238" stroke-linecap="round" stroke-linejoin="round"/>
<path d="M102.667 56.8626C104.23 52.7978 106.668 49.1265 109.808 46.1084C112.948 43.0904 116.713 40.7995 120.836 39.398C124.96 37.9965 129.341 37.5185 133.67 37.998C137.998 38.4775 142.169 39.9028 145.885 42.1728C149.602 44.4428 152.774 47.5022 155.177 51.1342C157.581 54.7663 159.156 58.8822 159.792 63.1906C160.428 67.4991 160.109 71.8946 158.858 76.0661C157.607 80.2377 155.454 84.0831 152.551 87.3302" stroke="#263238" stroke-linecap="round" stroke-linejoin="round"/>
<path d="M127.475 46.1719L130.392 67.5527L146.823 62.4399" stroke="#263238" stroke-linecap="round" stroke-linejoin="round"/>
<path d="M419.366 150.56C414.642 150.606 410.017 149.215 406.101 146.573C402.186 143.931 399.166 140.161 397.441 135.764C395.716 131.366 395.368 126.549 396.442 121.949C397.517 117.349 399.963 113.184 403.458 110.006" stroke="#263238" stroke-linecap="round" stroke-linejoin="round"/>
<path d="M441.2 134.792C440.068 138.131 438.19 141.169 435.71 143.676C433.23 146.182 430.211 148.092 426.884 149.259" stroke="#263238" stroke-linecap="round" stroke-linejoin="round"/>
<path d="M411.406 105.266C417.237 103.214 423.644 103.562 429.218 106.233C434.792 108.905 439.077 113.681 441.13 119.512" stroke="#263238" stroke-linecap="round" stroke-linejoin="round"/>
<path d="M430.649 110.204C433.057 111.832 435.094 113.952 436.623 116.424C438.153 118.896 439.141 121.664 439.522 124.546C439.903 127.428 439.67 130.358 438.836 133.143C438.002 135.928 436.588 138.505 434.685 140.703C432.783 142.901 430.437 144.671 427.8 145.897C425.164 147.122 422.298 147.774 419.391 147.811C416.484 147.847 413.603 147.267 410.936 146.109C408.27 144.95 405.88 143.24 403.923 141.09" stroke="#263238" stroke-linecap="round" stroke-linejoin="round"/>
<path d="M399.728 134.072C398.491 130.553 398.235 126.764 398.986 123.11C399.737 119.456 401.468 116.076 403.992 113.33C406.517 110.585 409.741 108.577 413.319 107.523C416.897 106.469 420.694 106.408 424.304 107.346" stroke="#263238" stroke-linecap="round" stroke-linejoin="round"/>
<path d="M411.29 114.55L419.145 127.25L411.987 136.535" stroke="#263238" stroke-linecap="round" stroke-linejoin="round"/>
<path d="M55.439 530.976H525.561" stroke="#263238" stroke-linecap="round" stroke-linejoin="round"/>
<path d="M293.974 285.945L286.317 431.741L189.302 426.652L190.115 411.197L196.959 280.844L258.045 284.051L293.974 285.945Z" fill="white"/>
<mask id="mask0_241_28" style="mask-type:luminance" maskUnits="userSpaceOnUse" x="189" y="280" width="105" height="152">
<path d="M293.974 285.945L286.317 431.741L189.302 426.652L190.115 411.197L196.959 280.844L258.045 284.051L293.974 285.945Z" fill="white"/>
</mask>
<g mask="url(#mask0_241_28)">
<path opacity="0.2" d="M263.693 371.364L241.836 373.165L248.215 400.692L190.115 411.197L196.959 280.844L258.046 284.051L263.693 371.364Z" fill="black" fill-opacity="0.7"/>
</g>
<path d="M293.974 285.945L286.317 431.741L189.302 426.652L190.115 411.197L196.959 280.844L258.045 284.051L293.974 285.945Z" stroke="#263238" stroke-linecap="round" stroke-linejoin="round"/>
<path d="M203.803 290.814L229.053 292.139" stroke="#263238" stroke-width="2" stroke-linecap="round" stroke-linejoin="round"/>
<path d="M203.548 295.659L220.722 296.566" stroke="#263238" stroke-width="2" stroke-linecap="round" stroke-linejoin="round"/>
<path d="M209.102 307.431L281.727 311.242" stroke="#263238" stroke-width="2" stroke-linecap="round" stroke-linejoin="round"/>
<path d="M208.846 312.276L281.471 316.087" stroke="#263238" stroke-width="2" stroke-linecap="round" stroke-linejoin="round"/>
<path d="M208.556 317.935L270.491 321.177" stroke="#263238" stroke-width="2" stroke-linecap="round" stroke-linejoin="round"/>
<path d="M208.581 323.097L208.271 329.003L214.177 329.314L214.487 323.408L208.581 323.097Z" stroke="#263238" stroke-linecap="round" stroke-linejoin="round"/>
<path d="M219.287 323.664L218.977 329.57L224.883 329.881L225.194 323.974L219.287 323.664Z" stroke="#263238" stroke-linecap="round" stroke-linejoin="round"/>
<path d="M229.98 324.231L229.67 330.138L235.576 330.448L235.887 324.542L229.98 324.231Z" stroke="#263238" stroke-linecap="round" stroke-linejoin="round"/>
<path d="M240.686 324.798L240.375 330.705L246.282 331.015L246.592 325.109L240.686 324.798Z" stroke="#263238" stroke-linecap="round" stroke-linejoin="round"/>
<path d="M205.232 307.221C205.225 307.414 205.18 307.602 205.099 307.777C205.019 307.952 204.904 308.109 204.763 308.24C204.622 308.37 204.456 308.472 204.275 308.538C204.095 308.605 203.903 308.635 203.71 308.627C203.319 308.607 202.951 308.433 202.689 308.142C202.426 307.851 202.29 307.467 202.31 307.076C202.33 306.685 202.505 306.317 202.796 306.055C203.087 305.792 203.47 305.656 203.861 305.676C204.054 305.685 204.242 305.731 204.417 305.813C204.591 305.895 204.747 306.011 204.877 306.153C205.006 306.296 205.106 306.463 205.171 306.644C205.236 306.825 205.265 307.017 205.256 307.21L205.232 307.221Z" fill="#263238"/>
<path d="M207.615 335.702L280.239 339.514" stroke="#263238" stroke-width="2" stroke-linecap="round" stroke-linejoin="round"/>
<path d="M207.359 340.547L279.984 344.359" stroke="#263238" stroke-width="2" stroke-linecap="round" stroke-linejoin="round"/>
<path d="M207.068 346.207L269.003 349.449" stroke="#263238" stroke-width="2" stroke-linecap="round" stroke-linejoin="round"/>
<path d="M207.081 351.387L206.771 357.293L212.677 357.604L212.987 351.697L207.081 351.387Z" stroke="#263238" stroke-linecap="round" stroke-linejoin="round"/>
<path d="M217.798 351.942L217.488 357.849L223.394 358.159L223.705 352.253L217.798 351.942Z" stroke="#263238" stroke-linecap="round" stroke-linejoin="round"/>
<path d="M228.492 352.498L228.181 358.404L234.088 358.715L234.398 352.808L228.492 352.498Z" stroke="#263238" stroke-linecap="round" stroke-linejoin="round"/>
<path d="M239.186 353.065L238.875 358.971L244.782 359.282L245.092 353.375L239.186 353.065Z" stroke="#263238" stroke-linecap="round" stroke-linejoin="round"/>
<path d="M203.757 335.493C203.748 335.687 203.701 335.877 203.618 336.052C203.536 336.228 203.419 336.386 203.276 336.516C203.132 336.647 202.964 336.748 202.782 336.814C202.599 336.879 202.405 336.908 202.211 336.899C201.918 336.885 201.635 336.784 201.398 336.609C201.162 336.434 200.982 336.193 200.883 335.917C200.783 335.64 200.768 335.34 200.839 335.055C200.91 334.769 201.064 334.511 201.281 334.313C201.499 334.115 201.77 333.986 202.061 333.942C202.351 333.899 202.649 333.942 202.915 334.067C203.181 334.192 203.404 334.393 203.556 334.645C203.708 334.896 203.782 335.187 203.768 335.481L203.757 335.493Z" fill="#263238"/>
<path d="M206.139 363.974L278.752 367.785" stroke="#263238" stroke-width="2" stroke-linecap="round" stroke-linejoin="round"/>
<path d="M205.883 368.819L278.497 372.63" stroke="#263238" stroke-width="2" stroke-linecap="round" stroke-linejoin="round"/>
<path d="M205.581 374.466L267.516 377.72" stroke="#263238" stroke-width="2" stroke-linecap="round" stroke-linejoin="round"/>
<path d="M205.605 379.641L205.294 385.547L211.201 385.858L211.511 379.952L205.605 379.641Z" stroke="#263238" stroke-linecap="round" stroke-linejoin="round"/>
<path d="M217.564 380.173L217.268 386.091L223.187 386.387L223.483 380.468L217.564 380.173Z" stroke="#263238" stroke-width="1.00125" stroke-linecap="round" stroke-linejoin="round"/>
<path d="M227.004 380.776L226.693 386.683L232.6 386.993L232.91 381.087L227.004 380.776Z" stroke="#263238" stroke-linecap="round" stroke-linejoin="round"/>
<path d="M237.721 381.331L237.411 387.237L243.317 387.548L243.628 381.641L237.721 381.331Z" stroke="#263238" stroke-linecap="round" stroke-linejoin="round"/>
<path d="M202.269 363.764C202.26 363.958 202.213 364.148 202.131 364.324C202.048 364.499 201.932 364.657 201.788 364.788C201.645 364.918 201.477 365.019 201.294 365.085C201.112 365.15 200.918 365.179 200.724 365.17C200.329 365.17 199.951 365.013 199.672 364.734C199.393 364.455 199.237 364.077 199.237 363.683C199.237 363.288 199.393 362.91 199.672 362.631C199.951 362.352 200.329 362.195 200.724 362.195H200.933C201.127 362.204 201.317 362.251 201.493 362.334C201.668 362.416 201.826 362.533 201.957 362.676C202.087 362.82 202.188 362.988 202.254 363.17C202.32 363.353 202.348 363.547 202.339 363.741L202.269 363.764Z" fill="#263238"/>
<path d="M204.605 393.047L277.218 396.87" stroke="#263238" stroke-width="2" stroke-linecap="round" stroke-linejoin="round"/>
<path d="M204.349 397.892L276.974 401.715" stroke="#263238" stroke-width="2" stroke-linecap="round" stroke-linejoin="round"/>
<path d="M204.059 403.551L265.993 406.805" stroke="#263238" stroke-width="2" stroke-linecap="round" stroke-linejoin="round"/>
<path d="M204.066 408.729L203.755 414.635L209.662 414.946L209.972 409.039L204.066 408.729Z" stroke="#263238" stroke-linecap="round" stroke-linejoin="round"/>
<path d="M214.784 409.284L214.474 415.19L220.38 415.501L220.691 409.595L214.784 409.284Z" stroke="#263238" stroke-linecap="round" stroke-linejoin="round"/>
<path d="M225.501 409.84L225.191 415.747L231.097 416.057L231.408 410.151L225.501 409.84Z" stroke="#263238" stroke-linecap="round" stroke-linejoin="round"/>
<path d="M236.195 410.419L235.885 416.326L241.791 416.636L242.102 410.73L236.195 410.419Z" stroke="#263238" stroke-linecap="round" stroke-linejoin="round"/>
<path d="M200.735 392.849C200.719 393.14 200.617 393.42 200.441 393.653C200.266 393.886 200.025 394.062 199.75 394.159C199.475 394.255 199.177 394.268 198.894 394.195C198.612 394.122 198.357 393.968 198.163 393.75C197.968 393.533 197.842 393.263 197.801 392.974C197.76 392.685 197.805 392.391 197.931 392.128C198.057 391.865 198.259 391.645 198.51 391.496C198.76 391.348 199.05 391.277 199.341 391.292C199.535 391.303 199.725 391.351 199.9 391.435C200.075 391.519 200.232 391.637 200.361 391.781C200.491 391.926 200.591 392.095 200.655 392.278C200.719 392.461 200.746 392.655 200.735 392.849Z" fill="#263238"/>
<path d="M210.589 325.558L211.356 326.883L214.505 323.408" stroke="#263238" stroke-width="2" stroke-linecap="round" stroke-linejoin="round"/>
<path d="M230.529 354.596L231.296 355.921L234.445 352.446" stroke="#263238" stroke-width="2" stroke-linecap="round" stroke-linejoin="round"/>
<path d="M240.534 384.436L241.301 385.761L244.45 382.275" stroke="#5BA26F" stroke-width="2" stroke-linecap="round" stroke-linejoin="round"/>
<path d="M216.829 411.069L217.596 412.382L220.745 408.908" stroke="#5BA26F" stroke-width="2" stroke-linecap="round" stroke-linejoin="round"/>
<path d="M229.507 390.479L135.908 416.496L96.8179 275.813L135.571 265.041L190.417 249.807L225.881 377.441L229.507 390.479Z" fill="white"/>
<mask id="mask1_241_28" style="mask-type:luminance" maskUnits="userSpaceOnUse" x="96" y="249" width="134" height="168">
<path d="M229.507 390.479L135.908 416.496L96.8179 275.813L135.571 265.041L190.417 249.807L225.881 377.441L229.507 390.479Z" fill="white"/>
</mask>
<g mask="url(#mask1_241_28)">
<path opacity="0.2" d="M225.881 377.441L153.512 382.124L135.571 265.041L190.417 249.807L225.881 377.441Z" fill="black" fill-opacity="0.7"/>
</g>
<path d="M229.507 390.479L135.908 416.496L96.8179 275.813L135.571 265.041L190.417 249.807L225.881 377.441L229.507 390.479Z" stroke="#263238" stroke-linecap="round" stroke-linejoin="round"/>
<path d="M106.486 283.087L130.841 276.324" stroke="#263238" stroke-width="2" stroke-linecap="round" stroke-linejoin="round"/>
<path d="M107.776 287.769L124.346 283.168" stroke="#263238" stroke-width="2" stroke-linecap="round" stroke-linejoin="round"/>
<path d="M116.781 297.158L186.85 277.695" stroke="#263238" stroke-width="2" stroke-linecap="round" stroke-linejoin="round"/>
<path d="M118.083 301.83L188.151 282.366" stroke="#263238" stroke-width="2" stroke-linecap="round" stroke-linejoin="round"/>
<path d="M119.593 307.291L179.355 290.686" stroke="#263238" stroke-width="2" stroke-linecap="round" stroke-linejoin="round"/>
<path d="M126.978 310.597L121.279 312.18L122.863 317.879L128.561 316.295L126.978 310.597Z" stroke="#263238" stroke-linecap="round" stroke-linejoin="round"/>
<path d="M137.309 307.715L131.611 309.299L133.194 314.997L138.893 313.414L137.309 307.715Z" stroke="#263238" stroke-linecap="round" stroke-linejoin="round"/>
<path d="M147.644 304.842L141.945 306.425L143.529 312.124L149.228 310.54L147.644 304.842Z" stroke="#263238" stroke-linecap="round" stroke-linejoin="round"/>
<path d="M157.96 301.977L152.261 303.561L153.845 309.26L159.543 307.676L157.96 301.977Z" stroke="#263238" stroke-linecap="round" stroke-linejoin="round"/>
<path d="M113.051 298.193C113.156 298.57 113.106 298.974 112.914 299.315C112.721 299.656 112.4 299.906 112.023 300.011C111.645 300.116 111.242 300.066 110.9 299.874C110.559 299.681 110.309 299.36 110.204 298.983C110.099 298.605 110.149 298.201 110.342 297.86C110.535 297.519 110.855 297.269 111.233 297.164C111.61 297.059 112.014 297.109 112.355 297.302C112.696 297.495 112.946 297.815 113.051 298.193Z" fill="#263238"/>
<path d="M124.357 324.431L194.426 304.967" stroke="#263238" stroke-width="2" stroke-linecap="round" stroke-linejoin="round"/>
<path d="M125.659 329.113L195.727 309.638" stroke="#263238" stroke-width="2" stroke-linecap="round" stroke-linejoin="round"/>
<path d="M127.181 334.563L186.931 317.958" stroke="#263238" stroke-width="2" stroke-linecap="round" stroke-linejoin="round"/>
<path d="M134.56 337.863L128.862 339.446L130.445 345.145L136.144 343.561L134.56 337.863Z" stroke="#263238" stroke-linecap="round" stroke-linejoin="round"/>
<path d="M144.884 334.996L139.186 336.579L140.769 342.278L146.468 340.694L144.884 334.996Z" stroke="#263238" stroke-linecap="round" stroke-linejoin="round"/>
<path d="M155.219 332.125L149.521 333.709L151.104 339.408L156.803 337.824L155.219 332.125Z" stroke="#263238" stroke-linecap="round" stroke-linejoin="round"/>
<path d="M165.562 329.241L159.864 330.824L161.447 336.523L167.146 334.939L165.562 329.241Z" stroke="#263238" stroke-linecap="round" stroke-linejoin="round"/>
<path d="M120.639 325.477C120.717 325.76 120.71 326.06 120.618 326.339C120.527 326.618 120.354 326.864 120.122 327.045C119.891 327.226 119.611 327.335 119.318 327.357C119.025 327.379 118.732 327.314 118.476 327.17C118.22 327.026 118.012 326.809 117.879 326.547C117.746 326.285 117.694 325.989 117.729 325.697C117.764 325.405 117.885 325.13 118.076 324.907C118.267 324.684 118.52 324.522 118.803 324.442C118.99 324.389 119.185 324.374 119.378 324.396C119.571 324.419 119.758 324.48 119.927 324.575C120.097 324.67 120.246 324.797 120.366 324.95C120.486 325.103 120.575 325.278 120.627 325.465L120.639 325.477Z" fill="#263238"/>
<path d="M131.945 351.714L202.002 332.239" stroke="#263238" stroke-width="2" stroke-linecap="round" stroke-linejoin="round"/>
<path d="M133.247 356.385L203.304 336.922" stroke="#263238" stroke-width="2" stroke-linecap="round" stroke-linejoin="round"/>
<path d="M134.757 361.847L194.519 345.242" stroke="#263238" stroke-width="2" stroke-linecap="round" stroke-linejoin="round"/>
<path d="M142.132 365.135L136.434 366.718L138.017 372.417L143.716 370.833L142.132 365.135Z" stroke="#263238" stroke-linecap="round" stroke-linejoin="round"/>
<path d="M152.478 362.262L146.78 363.845L148.363 369.544L154.062 367.96L152.478 362.262Z" stroke="#263238" stroke-linecap="round" stroke-linejoin="round"/>
<path d="M162.79 359.394L157.092 360.978L158.675 366.677L164.374 365.093L162.79 359.394Z" stroke="#263238" stroke-linecap="round" stroke-linejoin="round"/>
<path d="M173.125 356.524L167.427 358.108L169.01 363.807L174.709 362.223L173.125 356.524Z" stroke="#263238" stroke-linecap="round" stroke-linejoin="round"/>
<path d="M128.215 352.749C128.294 353.032 128.286 353.332 128.195 353.611C128.103 353.89 127.93 354.136 127.699 354.317C127.467 354.498 127.187 354.607 126.894 354.629C126.601 354.651 126.308 354.586 126.052 354.442C125.796 354.298 125.588 354.081 125.455 353.819C125.322 353.556 125.27 353.261 125.305 352.969C125.34 352.677 125.461 352.402 125.652 352.179C125.843 351.956 126.096 351.794 126.379 351.714C126.566 351.661 126.762 351.646 126.955 351.668C127.148 351.691 127.334 351.752 127.504 351.847C127.673 351.942 127.822 352.069 127.942 352.222C128.062 352.375 128.151 352.55 128.203 352.737L128.215 352.749Z" fill="#263238"/>
<path d="M139.742 379.765L209.799 360.301" stroke="#263238" stroke-width="2" stroke-linecap="round" stroke-linejoin="round"/>
<path d="M141.032 384.448L211.101 364.973" stroke="#263238" stroke-width="2" stroke-linecap="round" stroke-linejoin="round"/>
<path d="M142.554 389.897L202.316 373.292" stroke="#263238" stroke-width="2" stroke-linecap="round" stroke-linejoin="round"/>
<path d="M149.93 393.199L144.232 394.783L145.815 400.481L151.514 398.898L149.93 393.199Z" stroke="#263238" stroke-linecap="round" stroke-linejoin="round"/>
<path d="M160.265 390.326L154.566 391.91L156.15 397.608L161.849 396.025L160.265 390.326Z" stroke="#263238" stroke-linecap="round" stroke-linejoin="round"/>
<path d="M170.6 387.455L164.901 389.039L166.485 394.738L172.184 393.154L170.6 387.455Z" stroke="#263238" stroke-linecap="round" stroke-linejoin="round"/>
<path d="M180.924 384.589L175.225 386.172L176.809 391.871L182.507 390.287L180.924 384.589Z" stroke="#263238" stroke-linecap="round" stroke-linejoin="round"/>
<path d="M136.012 380.799C136.122 381.178 136.076 381.585 135.885 381.93C135.695 382.276 135.375 382.531 134.995 382.641C134.616 382.75 134.209 382.705 133.864 382.514C133.519 382.323 133.263 382.003 133.154 381.624C133.046 381.243 133.093 380.836 133.284 380.49C133.476 380.144 133.797 379.887 134.176 379.776C134.552 379.672 134.954 379.719 135.295 379.909C135.637 380.098 135.89 380.413 136.001 380.787L136.012 380.799Z" fill="#263238"/>
<path d="M133.677 311.161L134.827 312.171L136.709 307.872" stroke="#5BA26F" stroke-width="2" stroke-linecap="round" stroke-linejoin="round"/>
<path d="M130.876 341.593L132.026 342.604L133.897 338.305" stroke="#5BA26F" stroke-width="2" stroke-linecap="round" stroke-linejoin="round"/>
<path d="M138.452 368.586L139.603 369.597L141.474 365.298" stroke="#5BA26F" stroke-width="2" stroke-linecap="round" stroke-linejoin="round"/>
<path d="M166.886 390.7L168.037 391.711L169.919 387.411" stroke="#5BA26F" stroke-width="2" stroke-linecap="round" stroke-linejoin="round"/>
<path d="M238.647 217.309L141.949 226.603L155.918 371.939L252.616 362.645L238.647 217.309Z" fill="white" stroke="#263238" stroke-linecap="round" stroke-linejoin="round"/>
<path d="M150.188 235.468L175.357 233.051" stroke="#263238" stroke-width="2" stroke-linecap="round" stroke-linejoin="round"/>
<path d="M150.653 240.302L167.77 238.652" stroke="#263238" stroke-width="2" stroke-linecap="round" stroke-linejoin="round"/>
<path d="M157.881 251.12L230.262 244.16" stroke="#263238" stroke-width="2" stroke-linecap="round" stroke-linejoin="round"/>
<path d="M158.346 255.942L230.727 248.994" stroke="#263238" stroke-width="2" stroke-linecap="round" stroke-linejoin="round"/>
<path d="M158.892 261.578L220.629 255.652" stroke="#263238" stroke-width="2" stroke-linecap="round" stroke-linejoin="round"/>
<path d="M165.593 266.11L159.706 266.676L160.272 272.563L166.159 271.997L165.593 266.11Z" stroke="#263238" stroke-linecap="round" stroke-linejoin="round"/>
<path d="M176.265 265.082L170.377 265.647L170.943 271.535L176.831 270.969L176.265 265.082Z" stroke="#263238" stroke-linecap="round" stroke-linejoin="round"/>
<path d="M186.936 264.065L181.049 264.631L181.614 270.519L187.502 269.953L186.936 264.065Z" stroke="#263238" stroke-linecap="round" stroke-linejoin="round"/>
<path d="M197.606 263.026L191.719 263.592L192.285 269.48L198.172 268.914L197.606 263.026Z" stroke="#263238" stroke-linecap="round" stroke-linejoin="round"/>
<path d="M154.035 251.492C154.063 251.785 154.004 252.079 153.865 252.338C153.727 252.598 153.514 252.81 153.254 252.948C152.995 253.087 152.7 253.145 152.408 253.116C152.115 253.087 151.838 252.972 151.61 252.785C151.383 252.599 151.216 252.349 151.131 252.067C151.046 251.786 151.046 251.485 151.131 251.204C151.217 250.923 151.383 250.673 151.611 250.486C151.838 250.3 152.115 250.185 152.408 250.156C152.601 250.136 152.796 250.155 152.982 250.212C153.168 250.268 153.34 250.36 153.49 250.483C153.64 250.606 153.765 250.758 153.856 250.929C153.948 251.1 154.004 251.287 154.023 251.48L154.035 251.492Z" fill="#263238"/>
<path d="M160.588 279.298L232.969 272.35" stroke="#263238" stroke-width="2" stroke-linecap="round" stroke-linejoin="round"/>
<path d="M161.053 284.132L233.434 277.172" stroke="#263238" stroke-width="2" stroke-linecap="round" stroke-linejoin="round"/>
<path d="M161.599 289.768L223.336 283.83" stroke="#263238" stroke-width="2" stroke-linecap="round" stroke-linejoin="round"/>
<path d="M168.3 294.284L162.412 294.85L162.978 300.737L168.866 300.171L168.3 294.284Z" stroke="#263238" stroke-linecap="round" stroke-linejoin="round"/>
<path d="M178.971 293.267L173.084 293.833L173.65 299.72L179.537 299.154L178.971 293.267Z" stroke="#263238" stroke-linecap="round" stroke-linejoin="round"/>
<path d="M189.643 292.239L183.755 292.805L184.321 298.693L190.209 298.127L189.643 292.239Z" stroke="#263238" stroke-linecap="round" stroke-linejoin="round"/>
<path d="M200.315 291.235L194.428 291.801L194.994 297.688L200.881 297.122L200.315 291.235Z" stroke="#263238" stroke-linecap="round" stroke-linejoin="round"/>
<path d="M156.742 279.67C156.771 279.963 156.712 280.257 156.573 280.517C156.434 280.776 156.221 280.988 155.962 281.126C155.702 281.265 155.408 281.323 155.115 281.294C154.822 281.265 154.545 281.15 154.318 280.963C154.09 280.777 153.924 280.527 153.838 280.245C153.753 279.964 153.753 279.664 153.838 279.382C153.924 279.101 154.091 278.851 154.318 278.664C154.545 278.478 154.823 278.363 155.115 278.334C155.31 278.315 155.506 278.334 155.694 278.391C155.881 278.447 156.055 278.541 156.206 278.665C156.357 278.789 156.482 278.942 156.574 279.114C156.666 279.287 156.723 279.476 156.742 279.67Z" fill="#263238"/>
<path d="M163.296 307.477L235.677 300.528" stroke="#263238" stroke-width="2" stroke-linecap="round" stroke-linejoin="round"/>
<path d="M163.761 312.311L236.142 305.351" stroke="#263238" stroke-width="2" stroke-linecap="round" stroke-linejoin="round"/>
<path d="M164.307 317.947L226.044 312.009" stroke="#263238" stroke-width="2" stroke-linecap="round" stroke-linejoin="round"/>
<path d="M171.007 322.469L165.119 323.035L165.685 328.923L171.572 328.357L171.007 322.469Z" stroke="#263238" stroke-linecap="round" stroke-linejoin="round"/>
<path d="M181.678 321.441L175.791 322.007L176.356 327.895L182.244 327.329L181.678 321.441Z" stroke="#263238" stroke-linecap="round" stroke-linejoin="round"/>
<path d="M192.349 320.425L186.462 320.991L187.028 326.878L192.915 326.312L192.349 320.425Z" stroke="#263238" stroke-linecap="round" stroke-linejoin="round"/>
<path d="M203.021 319.397L197.134 319.963L197.699 325.85L203.587 325.284L203.021 319.397Z" stroke="#263238" stroke-linecap="round" stroke-linejoin="round"/>
<path d="M159.438 307.849C159.465 308.139 159.404 308.431 159.265 308.688C159.125 308.944 158.913 309.153 158.654 309.289C158.396 309.424 158.103 309.48 157.813 309.45C157.522 309.419 157.248 309.303 157.024 309.116C156.799 308.929 156.636 308.68 156.553 308.4C156.47 308.12 156.473 307.822 156.559 307.543C156.646 307.265 156.814 307.018 157.041 306.834C157.268 306.651 157.544 306.539 157.835 306.512C158.028 306.495 158.222 306.515 158.407 306.573C158.592 306.631 158.764 306.724 158.913 306.848C159.062 306.972 159.185 307.125 159.275 307.296C159.365 307.468 159.421 307.656 159.438 307.849Z" fill="#263238"/>
<path d="M166.085 336.469L238.466 329.508" stroke="#263238" stroke-width="2" stroke-linecap="round" stroke-linejoin="round"/>
<path d="M166.55 341.291L238.931 334.342" stroke="#263238" stroke-width="2" stroke-linecap="round" stroke-linejoin="round"/>
<path d="M167.084 346.927L228.821 341" stroke="#263238" stroke-width="2" stroke-linecap="round" stroke-linejoin="round"/>
<path d="M173.791 351.456L167.903 352.022L168.469 357.909L174.357 357.344L173.791 351.456Z" stroke="#263238" stroke-linecap="round" stroke-linejoin="round"/>
<path d="M184.474 350.44L178.586 351.005L179.152 356.893L185.04 356.327L184.474 350.44Z" stroke="#263238" stroke-linecap="round" stroke-linejoin="round"/>
<path d="M195.133 349.401L189.245 349.967L189.811 355.855L195.698 355.289L195.133 349.401Z" stroke="#263238" stroke-linecap="round" stroke-linejoin="round"/>
<path d="M205.804 348.373L199.917 348.938L200.482 354.826L206.37 354.26L205.804 348.373Z" stroke="#263238" stroke-linecap="round" stroke-linejoin="round"/>
<path d="M162.227 336.829C162.258 337.122 162.201 337.418 162.063 337.679C161.926 337.94 161.714 338.155 161.454 338.295C161.194 338.435 160.899 338.494 160.605 338.466C160.311 338.438 160.033 338.323 159.805 338.136C159.577 337.948 159.409 337.698 159.324 337.415C159.239 337.133 159.239 336.831 159.326 336.549C159.412 336.267 159.581 336.017 159.81 335.831C160.039 335.645 160.318 335.531 160.612 335.504C160.805 335.485 161 335.504 161.186 335.56C161.371 335.616 161.544 335.709 161.694 335.832C161.844 335.955 161.968 336.106 162.06 336.277C162.151 336.448 162.208 336.636 162.227 336.829Z" fill="#263238"/>
<path d="M162.029 268.829L162.982 270.026L165.585 266.122" stroke="#5BA26F" stroke-width="2" stroke-linecap="round" stroke-linejoin="round"/>
<path d="M186.048 294.602L187.001 295.799L189.592 291.895" stroke="#5BA26F" stroke-width="2" stroke-linecap="round" stroke-linejoin="round"/>
<path d="M178.135 324.395L179.088 325.592L181.69 321.688" stroke="#5BA26F" stroke-width="2" stroke-linecap="round" stroke-linejoin="round"/>
<path d="M202.107 351.11L203.06 352.307L205.662 348.402" stroke="#5BA26F" stroke-width="2" stroke-linecap="round" stroke-linejoin="round"/>
<path d="M356.908 160.019H296.868C294.748 160.019 292.714 160.861 291.215 162.361C289.716 163.86 288.873 165.893 288.873 168.014V219.618C288.873 221.738 289.716 223.772 291.215 225.271C292.714 226.77 294.748 227.613 296.868 227.613H323.478L338.723 245.984L334.9 227.613H356.908C359.023 227.603 361.047 226.757 362.539 225.259C364.031 223.76 364.868 221.732 364.868 219.618V168.014C364.868 165.899 364.031 163.871 362.539 162.373C361.047 160.875 359.023 160.028 356.908 160.019Z" fill="white" stroke="#263238" stroke-linecap="round" stroke-linejoin="round"/>
<path d="M331.693 188.325V182.864L327.603 182.515C327.359 181.663 327.019 180.841 326.592 180.064L329.23 176.926L325.36 173.068L322.223 175.706C321.449 175.272 320.626 174.932 319.771 174.695L319.422 170.605H313.961L313.612 174.695C312.757 174.932 311.934 175.272 311.16 175.706L308.023 173.068L304.154 176.926L306.768 180.11C306.335 180.886 305.992 181.708 305.746 182.562L301.655 182.911V188.372L305.746 188.732C305.992 189.586 306.335 190.408 306.768 191.184L304.119 194.321L307.988 198.179L311.126 195.541C311.899 195.976 312.722 196.315 313.577 196.552L313.926 200.643H319.387L319.736 196.552C320.591 196.315 321.414 195.976 322.188 195.541L325.325 198.179L329.195 194.321L326.557 191.184C326.985 190.407 327.324 189.585 327.568 188.732L331.693 188.325ZM316.692 191.951C315.434 191.953 314.205 191.583 313.158 190.886C312.112 190.19 311.295 189.198 310.812 188.038C310.329 186.877 310.201 185.6 310.444 184.366C310.687 183.133 311.29 181.999 312.177 181.109C313.065 180.218 314.196 179.611 315.429 179.363C316.661 179.116 317.939 179.239 319.102 179.718C320.264 180.197 321.258 181.01 321.958 182.054C322.659 183.098 323.034 184.326 323.036 185.583C323.039 186.417 322.878 187.243 322.561 188.014C322.244 188.785 321.778 189.486 321.189 190.076C320.601 190.667 319.902 191.135 319.132 191.455C318.362 191.775 317.537 191.939 316.703 191.939L316.692 191.951Z" fill="#FCBD1A"/>
<path d="M349.762 200.515V196.634L346.846 196.378C346.676 195.77 346.434 195.185 346.125 194.635L348.008 192.404L345.265 189.662L343.023 191.533C342.47 191.228 341.886 190.987 341.28 190.812L341.036 187.907H337.143L336.899 190.812C336.289 190.987 335.701 191.228 335.144 191.533L332.913 189.662L330.171 192.404L332.042 194.635C331.736 195.186 331.498 195.771 331.333 196.378L328.416 196.634V200.515L331.333 200.771C331.498 201.378 331.736 201.963 332.042 202.514L330.171 204.745L332.913 207.499L335.144 205.616C335.696 205.93 336.286 206.172 336.899 206.337L337.143 209.253H341.036L341.28 206.337C341.889 206.172 342.475 205.93 343.023 205.616L345.265 207.499L348.008 204.745L346.125 202.514C346.439 201.966 346.681 201.38 346.846 200.771L349.762 200.515ZM339.083 203.095C338.189 203.095 337.315 202.829 336.572 202.333C335.829 201.836 335.249 201.13 334.907 200.304C334.565 199.478 334.476 198.569 334.65 197.693C334.825 196.816 335.255 196.01 335.887 195.378C336.519 194.746 337.325 194.315 338.202 194.141C339.078 193.967 339.987 194.056 340.813 194.398C341.639 194.74 342.345 195.32 342.842 196.063C343.338 196.806 343.604 197.68 343.604 198.574C343.604 199.773 343.127 200.923 342.28 201.771C341.432 202.618 340.282 203.095 339.083 203.095Z" fill="#FCBD1A"/>
<path d="M330.752 209.567V206.836L328.672 206.65C328.553 206.216 328.381 205.799 328.161 205.407L329.497 203.826L327.545 201.862L325.953 203.199C325.56 202.988 325.148 202.817 324.721 202.687L324.535 200.619H321.77L321.595 202.687C321.163 202.812 320.746 202.983 320.352 203.199L318.76 201.862L316.808 203.826L318.144 205.407C317.928 205.801 317.757 206.218 317.633 206.65L315.564 206.836V209.59L317.633 209.776C317.757 210.208 317.928 210.625 318.144 211.019L316.808 212.646L318.76 214.61L320.352 213.273C320.748 213.484 321.165 213.656 321.595 213.785L321.77 215.853H324.535L324.721 213.785C325.148 213.655 325.56 213.484 325.953 213.273L327.545 214.61L329.497 212.646L328.161 211.066C328.381 210.674 328.553 210.256 328.672 209.822L330.752 209.567ZM323.152 211.403C322.516 211.403 321.893 211.214 321.364 210.86C320.835 210.506 320.422 210.004 320.179 209.416C319.935 208.827 319.871 208.18 319.995 207.556C320.12 206.931 320.426 206.358 320.876 205.908C321.326 205.458 321.9 205.151 322.524 205.027C323.149 204.903 323.796 204.966 324.384 205.21C324.972 205.454 325.475 205.866 325.829 206.396C326.182 206.925 326.371 207.547 326.371 208.184C326.368 209.035 326.027 209.851 325.424 210.452C324.821 211.053 324.004 211.391 323.152 211.391V211.403Z" fill="#FCBD1A"/>
<path d="M325.279 358.326L372.084 530.976H379.079L332.285 358.326H325.279Z" fill="#757575" stroke="#263238" stroke-linecap="round" stroke-linejoin="round"/>
<path d="M430.695 482.032H341.977V489.26H430.695V482.032Z" fill="#999999" stroke="#263238" stroke-linecap="round" stroke-linejoin="round"/>
<path d="M478.024 319.55L420.702 531.034H413.73L471.04 319.55C473.155 311.753 468.309 305.408 460.233 305.408H410.848C402.784 305.408 394.487 311.753 392.372 319.55L335.039 531.034H328.067L385.389 319.55C388.515 308.011 400.739 298.634 412.684 298.634H462.081C473.991 298.634 481.149 308 478.024 319.55Z" fill="#757575" stroke="#263238" stroke-linecap="round" stroke-linejoin="round"/>
<path d="M478.93 319.608L464.707 372.107C464.022 374.317 462.668 376.261 460.833 377.669C458.997 379.078 456.77 379.883 454.458 379.974H373.304C372.326 380.051 371.343 379.882 370.447 379.481C369.551 379.081 368.769 378.463 368.173 377.683C367.576 376.904 367.185 375.987 367.034 375.017C366.883 374.047 366.977 373.055 367.308 372.131L381.543 319.632C382.234 317.427 383.589 315.49 385.424 314.085C387.259 312.681 389.483 311.879 391.792 311.788H472.934C473.708 311.733 474.485 311.83 475.221 312.075C475.957 312.321 476.637 312.708 477.223 313.217C477.809 313.725 478.289 314.344 478.636 315.038C478.983 315.732 479.189 316.487 479.244 317.261C479.296 318.057 479.19 318.855 478.93 319.608Z" fill="#1865F2"/>
<mask id="mask2_241_28" style="mask-type:luminance" maskUnits="userSpaceOnUse" x="366" y="311" width="114" height="69">
<path d="M478.93 319.608L464.707 372.107C464.022 374.317 462.668 376.261 460.833 377.669C458.997 379.078 456.77 379.883 454.458 379.974H373.304C372.326 380.051 371.343 379.882 370.447 379.481C369.551 379.081 368.769 378.463 368.173 377.683C367.576 376.904 367.185 375.987 367.034 375.017C366.883 374.047 366.977 373.055 367.308 372.131L381.543 319.632C382.234 317.427 383.589 315.49 385.424 314.085C387.259 312.681 389.483 311.879 391.792 311.788H472.934C473.708 311.733 474.485 311.83 475.221 312.075C475.957 312.321 476.637 312.708 477.223 313.217C477.809 313.725 478.289 314.344 478.636 315.038C478.983 315.732 479.189 316.487 479.244 317.261C479.296 318.057 479.19 318.855 478.93 319.608Z" fill="white"/>
</mask>
<g mask="url(#mask2_241_28)">
<path opacity="0.2" d="M478.93 319.608L464.707 372.107C464.022 374.317 462.668 376.26 460.833 377.669C458.997 379.078 456.77 379.883 454.458 379.974H373.304C372.326 380.051 371.343 379.882 370.447 379.481C369.551 379.081 368.769 378.463 368.173 377.683C367.576 376.904 367.185 375.987 367.034 375.017C366.883 374.047 366.977 373.055 367.308 372.131L381.543 319.631C382.234 317.427 383.589 315.49 385.424 314.085C387.259 312.681 389.483 311.879 391.792 311.788H433.751C451.89 330.38 449.578 364.647 448.393 374.989C450.286 374.533 452.029 373.596 453.454 372.268C454.879 370.941 455.937 369.269 456.527 367.413L470.726 314.902C471.016 313.886 471.076 312.818 470.9 311.776H472.934C473.909 311.706 474.887 311.88 475.779 312.281C476.671 312.683 477.449 313.299 478.043 314.076C478.638 314.852 479.03 315.765 479.185 316.73C479.34 317.696 479.252 318.685 478.93 319.608Z" fill="black" fill-opacity="0.7"/>
</g>
<path d="M478.93 319.608L464.707 372.107C464.022 374.317 462.668 376.261 460.833 377.669C458.997 379.078 456.77 379.883 454.458 379.974H373.304C372.326 380.051 371.343 379.882 370.447 379.481C369.551 379.081 368.769 378.463 368.173 377.683C367.576 376.904 367.185 375.987 367.034 375.017C366.883 374.047 366.977 373.055 367.308 372.131L381.543 319.632C382.234 317.427 383.589 315.49 385.424 314.085C387.259 312.681 389.483 311.879 391.792 311.788H472.934C473.708 311.733 474.485 311.83 475.221 312.075C475.957 312.321 476.637 312.708 477.223 313.217C477.809 313.725 478.289 314.344 478.636 315.038C478.983 315.732 479.189 316.487 479.244 317.261C479.296 318.057 479.19 318.855 478.93 319.608Z" stroke="#263238" stroke-linecap="round" stroke-linejoin="round"/>
<path d="M431.218 433.089L457.758 530.976H464.754L438.225 433.089H431.218Z" fill="#757575" stroke="#263238" stroke-linecap="round" stroke-linejoin="round"/>
<path d="M438.248 421.806V431.381H333.761V421.806C333.761 419.938 334.503 418.147 335.824 416.827C337.144 415.506 338.935 414.764 340.803 414.764H431.195C432.121 414.761 433.039 414.941 433.895 415.294C434.751 415.646 435.53 416.165 436.185 416.819C436.841 417.473 437.36 418.251 437.714 419.107C438.068 419.962 438.25 420.88 438.248 421.806Z" fill="#1865F2"/>
<mask id="mask3_241_28" style="mask-type:luminance" maskUnits="userSpaceOnUse" x="333" y="414" width="106" height="18">
<path d="M438.248 421.806V431.381H333.761V421.806C333.761 419.938 334.503 418.147 335.824 416.827C337.144 415.506 338.935 414.764 340.803 414.764H431.195C432.121 414.761 433.039 414.941 433.895 415.294C434.751 415.646 435.53 416.165 436.185 416.819C436.841 417.473 437.36 418.251 437.714 419.107C438.068 419.962 438.25 420.88 438.248 421.806Z" fill="white"/>
</mask>
<g mask="url(#mask3_241_28)">
<path opacity="0.2" d="M438.004 420.005C434.623 423.979 428.557 428.023 418.122 431.427H333.761V421.806C333.761 419.938 334.503 418.147 335.824 416.827C337.144 415.506 338.935 414.764 340.803 414.764H431.195C432.749 414.766 434.258 415.28 435.49 416.228C436.721 417.176 437.605 418.503 438.004 420.005Z" fill="black" fill-opacity="0.7"/>
</g>
<path d="M438.248 421.806V431.381H333.761V421.806C333.761 419.938 334.503 418.147 335.824 416.827C337.144 415.506 338.935 414.764 340.803 414.764H431.195C432.121 414.761 433.039 414.941 433.895 415.294C434.751 415.646 435.53 416.165 436.185 416.819C436.841 417.473 437.36 418.251 437.714 419.107C438.068 419.962 438.25 420.88 438.248 421.806Z" stroke="#263238" stroke-linecap="round" stroke-linejoin="round"/>
<path d="M441.792 428.487H331.123C330.026 428.487 329.136 429.377 329.136 430.474V435.483C329.136 436.58 330.026 437.47 331.123 437.47H441.792C442.89 437.47 443.779 436.58 443.779 435.483V430.474C443.779 429.377 442.89 428.487 441.792 428.487Z" fill="#999999" stroke="#263238" stroke-linecap="round" stroke-linejoin="round"/>
<path d="M330.368 428.778C325.36 433.879 349.634 514.034 349.634 514.034C346.985 516.358 343.08 517.427 339.385 517.915C335.988 518.337 332.556 518.388 329.148 518.066C329.148 518.066 294.358 433.682 303.933 412.743C313.508 391.803 372.921 382.298 372.921 382.298L375.454 376.023L406.189 371.701L411.267 409.338C411.267 409.338 406.223 409.826 398.636 410.802C378.289 413.382 339.571 419.482 330.368 428.778Z" fill="#263238"/>
<mask id="mask4_241_28" style="mask-type:luminance" maskUnits="userSpaceOnUse" x="302" y="371" width="110" height="148">
<path d="M330.368 428.778C325.36 433.879 349.634 514.034 349.634 514.034C346.985 516.358 343.08 517.427 339.385 517.915C335.988 518.337 332.556 518.388 329.148 518.066C329.148 518.066 294.358 433.682 303.933 412.743C313.508 391.803 372.921 382.298 372.921 382.298L375.454 376.023L406.189 371.701L411.267 409.338C411.267 409.338 406.223 409.826 398.636 410.802C378.289 413.382 339.571 419.482 330.368 428.778Z" fill="white"/>
</mask>
<g mask="url(#mask4_241_28)">
<path opacity="0.3" d="M349.634 514.08C346.985 516.404 343.08 517.473 339.385 517.962C332.634 492.862 315.448 425.885 321.955 417.693C329.985 407.583 369.725 398.392 369.725 398.392C369.888 393.232 383.82 388.584 383.82 388.584L398.624 410.767C378.277 413.382 339.56 419.482 330.357 428.778C325.36 433.926 349.634 514.08 349.634 514.08Z" fill="black"/>
</g>
<path d="M330.368 428.778C325.36 433.879 349.634 514.034 349.634 514.034C346.985 516.358 343.08 517.427 339.385 517.915C335.988 518.337 332.556 518.388 329.148 518.066C329.148 518.066 294.358 433.682 303.933 412.743C313.508 391.803 372.921 382.298 372.921 382.298L375.454 376.023L406.189 371.701L411.267 409.338C411.267 409.338 406.223 409.826 398.636 410.802C378.289 413.382 339.571 419.482 330.368 428.778Z" stroke="#263238" stroke-linecap="round" stroke-linejoin="round"/>
<path d="M313.171 352.911C308.069 352.039 344.382 320.201 344.382 320.201L361.893 331.983C361.893 331.983 332.1 352.969 327.417 353.538C322.734 354.108 313.171 352.911 313.171 352.911Z" fill="white"/>
<mask id="mask5_241_28" style="mask-type:luminance" maskUnits="userSpaceOnUse" x="312" y="320" width="50" height="34">
<path d="M313.171 352.911C308.069 352.039 344.382 320.201 344.382 320.201L361.893 331.983C361.893 331.983 332.1 352.969 327.417 353.538C322.734 354.108 313.171 352.911 313.171 352.911Z" fill="white"/>
</mask>
<g mask="url(#mask5_241_28)">
<path opacity="0.2" d="M313.171 352.911C308.069 352.039 344.382 320.201 344.382 320.201L361.893 331.983C361.893 331.983 332.1 352.969 327.417 353.538C322.734 354.108 313.171 352.911 313.171 352.911Z" fill="black" fill-opacity="0.7"/>
</g>
<path d="M313.171 352.911C308.069 352.039 344.382 320.201 344.382 320.201L361.893 331.983C361.893 331.983 332.1 352.969 327.417 353.538C322.734 354.108 313.171 352.911 313.171 352.911Z" stroke="#263238" stroke-linecap="round" stroke-linejoin="round"/>
<path d="M319.55 339.525C319.55 339.525 327.161 341.419 329.497 343.011C331.832 344.603 331.158 350.355 331.158 350.355C331.158 350.355 321.014 347.496 319.55 339.525Z" fill="white" stroke="#263238" stroke-linecap="round" stroke-linejoin="round"/>
<path d="M314.693 324.942L328.846 352.086H330.519L317.075 323.605L314.693 324.942Z" fill="#263238"/>
<path d="M327.452 344.568C327.452 344.568 318.527 338.223 316.343 338.223C314.158 338.223 307.616 345.95 307.616 349.843C307.616 353.736 321.886 355.862 324.674 352.574C326.069 350.935 323.303 346.985 323.303 346.985C324.964 348.752 326.747 350.403 328.637 351.923C329.799 352.574 332.018 351.726 332.018 351.726C332.018 351.726 329.043 346.961 327.452 344.568Z" fill="white" stroke="#263238" stroke-linecap="round" stroke-linejoin="round"/>
<path d="M323.303 353.469C321.246 350.856 318.72 348.65 315.855 346.961" stroke="#263238" stroke-linecap="round" stroke-linejoin="round"/>
<path d="M323.303 346.962C323.303 346.962 320.212 344.266 318.132 343.673" stroke="#263238" stroke-linecap="round" stroke-linejoin="round"/>
<path d="M313.577 350.39C315.738 351.497 317.823 352.747 319.817 354.131" stroke="#263238" stroke-linecap="round" stroke-linejoin="round"/>
<path d="M355.758 306.28C351.191 309.464 330.682 330.554 330.682 330.554C330.682 330.554 340.292 341.488 348.716 343.069L371.549 331.983L355.758 306.28Z" fill="#1865F2" stroke="#263238" stroke-linecap="round" stroke-linejoin="round"/>
<path opacity="0.4" d="M355.758 306.28C351.191 309.464 330.682 330.554 330.682 330.554C330.682 330.554 340.292 341.488 348.716 343.069L371.549 331.983L355.758 306.28Z" fill="white" stroke="#263238" stroke-linecap="round" stroke-linejoin="round"/>
<path d="M344.73 505.575L354.41 531.034C354.41 531.034 356.013 537.576 326.824 535.508L310.742 534.137L344.73 505.575Z" fill="#1865F2"/>
<mask id="mask6_241_28" style="mask-type:luminance" maskUnits="userSpaceOnUse" x="310" y="505" width="45" height="31">
<path d="M344.73 505.575L354.41 531.034C354.41 531.034 356.013 537.576 326.824 535.508L310.742 534.137L344.73 505.575Z" fill="white"/>
</mask>
<g mask="url(#mask6_241_28)">
<path opacity="0.3" d="M344.73 505.575L354.41 531.034C354.41 531.034 356.013 537.576 326.824 535.508L310.742 534.137L344.73 505.575Z" fill="black"/>
</g>
<path d="M344.73 505.575L354.41 531.034C354.41 531.034 356.013 537.576 326.824 535.508L310.742 534.137L344.73 505.575Z" stroke="#263238" stroke-linecap="round" stroke-linejoin="round"/>
<path d="M341.059 517.752C341.059 517.752 343.127 527.641 341.059 534.997C341.059 534.997 310.254 539.819 303.363 537.983C296.473 536.147 292.289 532.707 292.08 531.011C292.08 531.011 292.324 526.293 299.227 524.91C306.129 523.528 319.852 522.586 325.279 514.801C330.705 507.016 341.059 517.752 341.059 517.752Z" fill="#1865F2" stroke="#263238" stroke-linecap="round" stroke-linejoin="round"/>
<path d="M381.705 375.001C391.548 360.964 436.796 377.859 436.796 377.859C436.796 377.859 441.107 411.65 423.084 420.667C405.062 429.684 379.079 429.196 372.061 436.505L343.499 520.843C343.499 520.843 333.238 525.131 318.318 518.38C318.318 518.38 336.457 454.691 341.779 432.078C347.043 409.698 381.124 394.511 381.124 394.511C379.368 392.436 378.037 390.035 377.209 387.446" fill="#263238"/>
<path d="M381.705 375.001C391.548 360.964 436.796 377.859 436.796 377.859C436.796 377.859 441.107 411.65 423.084 420.667C405.062 429.684 379.079 429.196 372.061 436.505L343.499 520.843C343.499 520.843 333.238 525.131 318.318 518.38C318.318 518.38 336.457 454.691 341.779 432.078C347.043 409.698 381.124 394.511 381.124 394.511C379.368 392.436 378.037 390.035 377.209 387.446" stroke="#263238" stroke-linecap="round" stroke-linejoin="round"/>
<path d="M427.511 407.304C426.067 408.584 424.55 409.779 422.968 410.883" stroke="white" stroke-linecap="round" stroke-linejoin="round"/>
<path d="M431.218 378.684C434.913 386.702 435.204 396.881 430.056 404.306" stroke="white" stroke-linecap="round" stroke-linejoin="round"/>
<path d="M420.911 379.974C420.911 379.974 419.97 386.156 422.724 388.608C425.478 391.06 433.926 392.303 433.926 392.303" stroke="white" stroke-linecap="round" stroke-linejoin="round"/>
<path d="M383.82 380.253C383.82 380.253 384.204 386.412 381.705 386.121C379.207 385.831 379.079 388.584 379.079 388.584" stroke="white" stroke-linecap="round" stroke-linejoin="round"/>
<path d="M356.362 311.021C355.981 309.469 355.778 307.878 355.758 306.28C355.758 306.28 369.702 294.52 387.655 294.59C409.035 294.66 422.108 301.388 427.337 310.73C435.634 325.511 436.796 377.859 436.796 377.859C436.796 377.859 383.146 386.133 375.454 375.988C374.117 374.222 375.14 361.754 375.14 361.754C375.14 361.754 369.132 345.997 367.866 333.773C366.101 331.34 364.46 328.819 362.951 326.22C361.04 323.02 359.385 319.675 358 316.215" fill="#1865F2"/>
<path d="M356.362 311.021C355.981 309.469 355.778 307.878 355.758 306.28C355.758 306.28 369.702 294.52 387.655 294.59C409.035 294.66 422.108 301.388 427.337 310.73C435.634 325.511 436.796 377.859 436.796 377.859C436.796 377.859 383.146 386.133 375.454 375.988C374.117 374.222 375.14 361.754 375.14 361.754C375.14 361.754 369.132 345.997 367.866 333.773C366.101 331.34 364.46 328.819 362.951 326.22C361.04 323.02 359.385 319.675 358 316.215" stroke="#263238" stroke-linecap="round" stroke-linejoin="round"/>
<g opacity="0.6">
<path d="M356.362 311.021C355.981 309.469 355.778 307.878 355.758 306.28C355.758 306.28 369.702 294.52 387.655 294.59C409.035 294.66 422.108 301.388 427.337 310.73C435.634 325.511 436.796 377.859 436.796 377.859C436.796 377.859 383.146 386.133 375.454 375.988C374.117 374.222 375.14 361.754 375.14 361.754C375.14 361.754 369.132 345.997 367.866 333.773C366.101 331.34 364.46 328.819 362.951 326.22C361.04 323.02 359.385 319.675 358 316.215" fill="white"/>
<path d="M356.362 311.021C355.981 309.469 355.778 307.878 355.758 306.28C355.758 306.28 369.702 294.52 387.655 294.59C409.035 294.66 422.108 301.388 427.337 310.73C435.634 325.511 436.796 377.859 436.796 377.859C436.796 377.859 383.146 386.133 375.454 375.988C374.117 374.222 375.14 361.754 375.14 361.754C375.14 361.754 369.132 345.997 367.866 333.773C366.101 331.34 364.46 328.819 362.951 326.22C361.04 323.02 359.385 319.675 358 316.215" stroke="#263238" stroke-linecap="round" stroke-linejoin="round"/>
</g>
<path d="M376.906 323.605C376.906 323.605 385.098 355.386 383.878 362.381C383.587 364.795 383.99 367.242 385.04 369.435C383.97 370.561 383.281 371.995 383.073 373.535C382.864 375.074 383.146 376.64 383.878 378.01" stroke="#263238" stroke-linecap="round" stroke-linejoin="round"/>
<path d="M398.636 349.902C397.173 349.846 395.751 349.396 394.522 348.6L392.094 337.956C396.912 338.395 401.77 338.053 406.479 336.945L409.082 348.565C407.619 348.973 406.133 349.295 404.632 349.53" stroke="#263238" stroke-linecap="round" stroke-linejoin="round"/>
<path d="M371.085 327.742C371.085 327.742 364.113 298.041 381.705 294.59C399.298 291.139 402.912 299.354 401.878 304.92C400.495 312.346 385.912 330.554 385.912 330.554L376.906 323.582L371.085 327.742Z" fill="#1865F2" stroke="#263238" stroke-linecap="round" stroke-linejoin="round"/>
<path opacity="0.4" d="M371.085 327.742C371.085 327.742 364.113 298.041 381.705 294.59C399.298 291.139 402.912 299.354 401.878 304.92C400.495 312.346 385.912 330.554 385.912 330.554L376.906 323.582L371.085 327.742Z" fill="white" stroke="#263238" stroke-linecap="round" stroke-linejoin="round"/>
<path d="M348.007 419.482C348.007 419.482 359.372 406.363 385.029 396.451C385.029 396.451 378.382 394.417 376.895 391.652" stroke="white" stroke-linecap="round" stroke-linejoin="round"/>
<path d="M334.644 459.629L324.256 497.347" stroke="white" stroke-linecap="round" stroke-linejoin="round"/>
<path d="M414.915 350.924C414.915 350.924 419.563 358.767 438.701 358.047C435.14 354.233 430.634 351.427 425.641 349.913C417.82 347.821 414.915 350.924 414.915 350.924Z" fill="#1865F2" stroke="#263238" stroke-linecap="round" stroke-linejoin="round"/>
<path d="M340.664 354.073C340.664 354.073 345.102 347.194 349.169 345.811C353.236 344.428 365.182 344.312 367.029 344.266C368.877 344.219 401.703 352.562 417.112 357.698L415.764 331.983L436.47 333.622C436.47 333.622 435.634 364.996 432.415 373.304C429.196 381.612 424.583 379.591 416.716 376.197C385.772 362.869 367.645 353.585 365.96 354.119C364.275 354.654 340.664 354.073 340.664 354.073Z" fill="white" stroke="#263238" stroke-linecap="round" stroke-linejoin="round"/>
<path d="M410.593 317.04C410.052 319.172 409.879 321.38 410.081 323.57C410.999 331.612 414.915 350.924 414.915 350.924C414.915 350.924 434.216 353.678 438.702 358.047C438.702 358.047 441.885 332.483 435.401 319.503C428.917 306.524 422.213 305.095 422.213 305.095C417.971 304.049 414.079 308 411.929 313.078" fill="#1865F2"/>
<path d="M410.593 317.04C410.052 319.172 409.879 321.38 410.081 323.57C410.999 331.612 414.915 350.924 414.915 350.924C414.915 350.924 434.216 353.678 438.702 358.047C438.702 358.047 441.885 332.483 435.401 319.503C428.917 306.524 422.213 305.095 422.213 305.095C417.971 304.049 414.079 308 411.929 313.078" stroke="#263238" stroke-linecap="round" stroke-linejoin="round"/>
<g opacity="0.4">
<path d="M410.593 317.04C410.052 319.172 409.879 321.38 410.081 323.57C410.999 331.612 414.915 350.924 414.915 350.924C414.915 350.924 434.216 353.678 438.702 358.047C438.702 358.047 441.885 332.483 435.401 319.503C428.917 306.524 422.213 305.095 422.213 305.095C417.971 304.049 414.079 308 411.929 313.078" fill="white"/>
<path d="M410.593 317.04C410.052 319.172 409.879 321.38 410.081 323.57C410.999 331.612 414.915 350.924 414.915 350.924C414.915 350.924 434.216 353.678 438.702 358.047C438.702 358.047 441.885 332.483 435.401 319.503C428.917 306.524 422.213 305.095 422.213 305.095C417.971 304.049 414.079 308 411.929 313.078" stroke="#263238" stroke-linecap="round" stroke-linejoin="round"/>
</g>
<path d="M353.887 326.987C356.777 329.351 360.148 331.056 363.764 331.983" stroke="#263238" stroke-linecap="round" stroke-linejoin="round"/>
<path d="M414.915 326.987C414.915 326.987 421.887 340.164 430.695 343.069" stroke="#263238" stroke-linecap="round" stroke-linejoin="round"/>
<path d="M369.737 428.487C369.737 428.487 371.027 429.463 371.55 432.984" stroke="white" stroke-linecap="round" stroke-linejoin="round"/>
<path d="M364.961 432.984C366.084 433.106 367.169 433.46 368.147 434.025C369.125 434.589 369.975 435.351 370.643 436.261" stroke="white" stroke-linecap="round" stroke-linejoin="round"/>
<path d="M326.522 419.482C326.522 419.482 330.24 421.364 329.439 426.698" stroke="white" stroke-linecap="round" stroke-linejoin="round"/>
<path d="M322.606 424.014C322.606 424.014 327.684 427.023 328.044 429.719" stroke="white" stroke-linecap="round" stroke-linejoin="round"/>
<path d="M381.461 391.501C381.461 391.501 392.768 393.081 395.301 391.501" stroke="white" stroke-linecap="round" stroke-linejoin="round"/>
<path d="M376.906 322.327C375.93 319.56 375.535 316.621 375.744 313.693C375.791 312.7 375.896 311.711 376.058 310.73L374.094 307.616L371.573 303.607L374.489 291.987C374.489 291.987 393.081 295.566 394.476 300.749C395.87 305.931 376.906 322.327 376.906 322.327Z" fill="white"/>
<mask id="mask7_241_28" style="mask-type:luminance" maskUnits="userSpaceOnUse" x="371" y="291" width="24" height="32">
<path d="M376.906 322.327C375.93 319.56 375.535 316.621 375.744 313.693C375.791 312.7 375.896 311.711 376.058 310.73L374.094 307.616L371.573 303.607L374.489 291.987C374.489 291.987 393.081 295.566 394.476 300.749C395.87 305.931 376.906 322.327 376.906 322.327Z" fill="white"/>
</mask>
<g mask="url(#mask7_241_28)">
<path opacity="0.2" d="M375.721 313.74C375.767 312.747 375.872 311.758 376.035 310.777L374.071 307.663C377.611 307.115 380.833 305.308 383.146 302.573C383.244 304.98 382.578 307.355 381.245 309.361C379.911 311.366 377.978 312.899 375.721 313.74Z" fill="black" fill-opacity="0.7"/>
</g>
<path d="M376.906 322.327C375.93 319.56 375.535 316.621 375.744 313.693C375.791 312.7 375.896 311.711 376.058 310.73L374.094 307.616L371.573 303.607L374.489 291.987C374.489 291.987 393.081 295.566 394.476 300.749C395.87 305.931 376.906 322.327 376.906 322.327Z" stroke="#263238" stroke-linecap="round" stroke-linejoin="round"/>
<path d="M388.573 292.963C394.383 277.857 390.525 252.142 362.637 257.069C346.276 259.974 344.301 279.751 349.762 288.536C355.223 297.321 349.425 297.6 357.64 304.107C360.975 306.745 363.659 311.218 367.633 311.509C372.363 311.834 378.417 307.361 382.937 302.527" fill="white"/>
<path d="M388.573 292.963C394.383 277.857 390.525 252.142 362.637 257.069C346.276 259.974 344.301 279.751 349.762 288.536C355.223 297.321 349.425 297.6 357.64 304.107C360.975 306.745 363.659 311.218 367.633 311.509C372.363 311.834 378.417 307.361 382.937 302.527" stroke="#263238" stroke-linecap="round" stroke-linejoin="round"/>
<path d="M361.092 288.536C361.092 288.536 365.205 284.795 370.097 286.34" stroke="#263238" stroke-linecap="round" stroke-linejoin="round"/>
<path d="M353.388 288.536C352.836 287.566 352.067 286.736 351.142 286.111C350.217 285.486 349.16 285.083 348.054 284.934" stroke="#263238" stroke-linecap="round" stroke-linejoin="round"/>
<path d="M356.106 293.986C356.106 293.986 355.514 296.995 354.735 300.04C353.957 303.084 359.616 301.423 359.383 300.958" fill="white"/>
<path d="M356.106 293.986C356.106 293.986 355.514 296.995 354.735 300.04C353.957 303.084 359.616 301.423 359.383 300.958" stroke="#263238" stroke-linecap="round" stroke-linejoin="round"/>
<path d="M362.3 304.758C364.699 304.071 366.834 302.673 368.424 300.749" stroke="#263238" stroke-linecap="round" stroke-linejoin="round"/>
<path d="M366.82 292.359C366.903 292.506 366.956 292.667 366.976 292.834C366.996 293.001 366.983 293.17 366.938 293.332C366.893 293.494 366.816 293.645 366.712 293.777C366.608 293.91 366.479 294.02 366.332 294.102C366.034 294.265 365.684 294.304 365.358 294.21C365.032 294.117 364.755 293.898 364.589 293.603C364.483 293.423 364.427 293.219 364.426 293.01C364.344 292.864 364.291 292.702 364.271 292.535C364.251 292.368 364.263 292.199 364.309 292.037C364.354 291.875 364.431 291.724 364.535 291.592C364.639 291.46 364.768 291.349 364.915 291.267C365.212 291.104 365.562 291.065 365.889 291.159C366.215 291.252 366.491 291.471 366.658 291.767C366.764 291.946 366.82 292.151 366.82 292.359Z" fill="#263238"/>
<path d="M354.41 292.104C354.642 292.94 354.48 293.731 354.038 293.847C353.597 293.963 353.05 293.382 352.876 292.534C352.702 291.685 352.818 290.907 353.26 290.791C353.701 290.674 354.154 291.255 354.41 292.104Z" fill="#263238"/>
<path d="M371.375 272.977C371.375 272.977 367.052 284.283 356.362 284.028C356.362 284.028 360.069 281.204 361.091 278.508C361.091 278.508 352.864 286.642 344.649 282.505C336.434 278.369 340.466 259.126 353.074 251.527C365.681 243.927 378.58 245.961 382.949 253.223C382.949 253.223 391.78 252.41 395.673 265.389C399.159 277.009 393.581 294.625 388.131 294.823C379.683 295.136 377.987 285.968 377.987 285.968C374.499 282.421 372.19 277.884 371.375 272.977Z" fill="#263238" stroke="#263238" stroke-linecap="round" stroke-linejoin="round"/>
<path d="M380.636 293.022C380.636 293.022 380.369 282.355 386.446 283.644C392.524 284.934 388.12 297.263 383.553 297.135" fill="white"/>
<path d="M380.636 293.022C380.636 293.022 380.369 282.355 386.446 283.644C392.524 284.934 388.12 297.263 383.553 297.135" stroke="#263238" stroke-linecap="round" stroke-linejoin="round"/>
<path d="M361.87 352.911H268.178C267.132 352.911 266.284 353.759 266.284 354.805V358.07C266.284 359.116 267.132 359.964 268.178 359.964H361.87C362.916 359.964 363.764 359.116 363.764 358.07V354.805C363.764 353.759 362.916 352.911 361.87 352.911Z" fill="#1865F2" stroke="#263238" stroke-linecap="round" stroke-linejoin="round"/>
<path d="M129.9 494.85H90.3804L94.5171 530.976H125.763L129.9 494.85Z" fill="#263238" stroke="#263238" stroke-linecap="round" stroke-linejoin="round"/>
<path d="M134.583 469.704C134.583 469.704 117.327 471.064 116.607 483.799C116.607 483.799 134.083 491.84 134.583 469.704Z" fill="#5BA26F" stroke="#263238" stroke-linecap="round" stroke-linejoin="round"/>
<path d="M100.443 472.864C100.443 472.864 90.7987 459.827 75.2163 466.508C75.2163 466.508 84.7331 482.23 100.443 472.864Z" fill="#5BA26F" stroke="#263238" stroke-linecap="round" stroke-linejoin="round"/>
<path d="M76.5409 431.706C76.5409 431.706 73.7637 456.782 96.597 449.88C96.597 449.88 89.3461 431.439 76.5409 431.706Z" fill="#5BA26F" stroke="#263238" stroke-linecap="round" stroke-linejoin="round"/>
<path d="M104.58 417.739C104.58 417.739 86.5224 427.477 99.8041 442.257C99.7925 442.257 112.447 431.695 104.58 417.739Z" fill="#5BA26F" stroke="#263238" stroke-linecap="round" stroke-linejoin="round"/>
<path d="M126.786 440.154C126.786 440.154 107.148 438.167 107.148 456.341C107.148 456.341 126.786 457.12 126.786 440.154Z" fill="#5BA26F" stroke="#263238" stroke-linecap="round" stroke-linejoin="round"/>
<path d="M108.275 509.735C108.275 509.735 117.223 490.957 108.635 471.831C100.048 452.704 97.1316 436.587 101.663 425.234" stroke="#263238" stroke-linecap="round" stroke-linejoin="round"/>
<path d="M120.337 445.046C120.337 445.046 108.566 449.694 104.58 461.837" stroke="#263238" stroke-linecap="round" stroke-linejoin="round"/>
<path d="M82.7461 441.734C82.7461 441.734 89.5438 451.03 101.059 449.996" stroke="#263238" stroke-linecap="round" stroke-linejoin="round"/>
<path d="M82.7461 469.181C82.7461 469.181 101.57 474.596 109.054 472.83" stroke="#263238" stroke-linecap="round" stroke-linejoin="round"/>
<path d="M128.982 475.433C128.982 475.433 120.558 484.729 112.098 484.531" stroke="#263238" stroke-linecap="round" stroke-linejoin="round"/>
<path d="M131.596 494.048H88.6838V499.149H131.596V494.048Z" fill="#263238" stroke="#263238" stroke-linecap="round" stroke-linejoin="round"/>
<path d="M443.001 461.314C432.969 467.867 424.551 476.607 418.378 486.878C408.141 503.959 400.03 527.99 412.626 531.034L424.606 530.581L447.66 522.668L445.243 518.02C445.243 518.02 425.06 528.71 421.608 528.71C418.157 528.71 413.66 529.57 411.766 528.187C409.872 526.804 418.401 495.744 436.656 485.391C454.911 475.037 443.001 461.314 443.001 461.314Z" fill="#F46A37"/>
<mask id="mask8_241_28" style="mask-type:luminance" maskUnits="userSpaceOnUse" x="406" y="461" width="42" height="71">
<path d="M443.001 461.314C432.969 467.867 424.551 476.607 418.378 486.878C408.141 503.959 400.03 527.99 412.626 531.034L424.606 530.581L447.66 522.668L445.243 518.02C445.243 518.02 425.06 528.71 421.608 528.71C418.157 528.71 413.66 529.57 411.766 528.187C409.872 526.804 418.401 495.744 436.656 485.391C454.911 475.037 443.001 461.314 443.001 461.314Z" fill="white"/>
</mask>
<g mask="url(#mask8_241_28)">
<path opacity="0.5" d="M443.001 461.314C432.969 467.867 424.551 476.607 418.378 486.878C408.141 503.959 400.03 527.99 412.626 531.034L424.606 530.581L447.66 522.668L445.243 518.02C445.243 518.02 425.06 528.71 421.608 528.71C418.157 528.71 413.66 529.57 411.766 528.187C409.872 526.804 418.401 495.744 436.656 485.391C454.911 475.037 443.001 461.314 443.001 461.314Z" fill="black" fill-opacity="0.7"/>
</g>
<path d="M443.001 461.314C432.969 467.867 424.551 476.607 418.378 486.878C408.141 503.959 400.03 527.99 412.626 531.034L424.606 530.581L447.66 522.668L445.243 518.02C445.243 518.02 425.06 528.71 421.608 528.71C418.157 528.71 413.66 529.57 411.766 528.187C409.872 526.804 418.401 495.744 436.656 485.391C454.911 475.037 443.001 461.314 443.001 461.314Z" stroke="#263238" stroke-linecap="round" stroke-linejoin="round"/>
<path d="M456.12 450.112C456.12 450.112 456.12 445.104 463.708 444.418C471.296 443.733 472.376 451.042 472.376 451.042H469.762C469.762 451.042 469.82 446.661 464.242 446.324C458.665 445.987 458.874 451.042 458.874 451.042L456.12 450.112Z" fill="#F46A37" stroke="#263238" stroke-linecap="round" stroke-linejoin="round"/>
<path d="M444.895 531.034C428.848 531.034 431.892 459.072 433.74 455.504C435.587 451.937 482.148 450.159 486.738 451.67C491.328 453.18 509.734 524.876 499.578 530.604L444.895 531.034Z" fill="#F46A37"/>
<mask id="mask9_241_28" style="mask-type:luminance" maskUnits="userSpaceOnUse" x="432" y="451" width="71" height="81">
<path d="M444.895 531.034C428.848 531.034 431.892 459.072 433.74 455.504C435.587 451.937 482.148 450.159 486.738 451.67C491.328 453.18 509.734 524.876 499.578 530.604L444.895 531.034Z" fill="white"/>
</mask>
<g mask="url(#mask9_241_28)">
<path opacity="0.2" d="M444.895 531.034C428.848 531.034 431.892 459.072 433.74 455.504C435.587 451.937 482.148 450.159 486.738 451.67C491.328 453.18 509.734 524.876 499.578 530.604L444.895 531.034Z" fill="black" fill-opacity="0.7"/>
</g>
<path d="M444.895 531.034C428.848 531.034 431.892 459.072 433.74 455.504C435.587 451.937 482.148 450.159 486.738 451.67C491.328 453.18 509.734 524.876 499.578 530.604L444.895 531.034Z" stroke="#263238" stroke-linecap="round" stroke-linejoin="round"/>
<path d="M433.74 455.423C439.55 456.666 442.896 480.22 450.717 486.216C458.537 492.212 495.407 490.922 499.579 486.216C503.75 481.51 495.593 455.086 489.667 451.042C483.741 446.998 479.523 450.926 462.848 449.078C438.132 446.324 433.74 455.423 433.74 455.423Z" fill="#F46A37" stroke="#263238" stroke-linecap="round" stroke-linejoin="round"/>
<path d="M476.06 468.96L482.892 474.538C482.985 474.617 483.062 474.714 483.118 474.823C483.174 474.932 483.207 475.05 483.217 475.172C483.227 475.294 483.212 475.417 483.175 475.534C483.137 475.65 483.076 475.758 482.997 475.851L477.675 481.591C477.505 481.76 477.275 481.855 477.036 481.855C476.796 481.855 476.566 481.76 476.397 481.591L469.599 475.258C469.433 475.087 469.34 474.858 469.34 474.619C469.34 474.38 469.433 474.151 469.599 473.98L474.863 469.088C475.012 468.924 475.216 468.82 475.437 468.797C475.657 468.773 475.879 468.831 476.06 468.96Z" fill="#F46A37"/>
<mask id="mask10_241_28" style="mask-type:luminance" maskUnits="userSpaceOnUse" x="469" y="468" width="15" height="14">
<path d="M476.06 468.96L482.892 474.538C482.985 474.617 483.062 474.714 483.118 474.823C483.174 474.932 483.207 475.05 483.217 475.172C483.227 475.294 483.212 475.417 483.175 475.534C483.137 475.65 483.076 475.758 482.997 475.851L477.675 481.591C477.505 481.76 477.275 481.855 477.036 481.855C476.796 481.855 476.566 481.76 476.397 481.591L469.599 475.258C469.433 475.087 469.34 474.858 469.34 474.619C469.34 474.38 469.433 474.151 469.599 473.98L474.863 469.088C475.012 468.924 475.216 468.82 475.437 468.797C475.657 468.773 475.879 468.831 476.06 468.96Z" fill="white"/>
</mask>
<g mask="url(#mask10_241_28)">
<path opacity="0.2" d="M476.06 468.96L482.892 474.538C482.985 474.617 483.062 474.714 483.118 474.823C483.174 474.932 483.207 475.05 483.217 475.172C483.227 475.294 483.212 475.417 483.175 475.534C483.137 475.65 483.076 475.758 482.997 475.851L477.675 481.591C477.505 481.76 477.275 481.855 477.036 481.855C476.796 481.855 476.566 481.76 476.397 481.591L469.599 475.258C469.433 475.087 469.34 474.858 469.34 474.619C469.34 474.38 469.433 474.151 469.599 473.98L474.863 469.088C475.012 468.924 475.216 468.82 475.437 468.797C475.657 468.773 475.879 468.831 476.06 468.96Z" fill="black" fill-opacity="0.7"/>
</g>
<path d="M476.06 468.96L482.892 474.538C482.985 474.617 483.062 474.714 483.118 474.823C483.174 474.932 483.207 475.05 483.217 475.172C483.227 475.294 483.212 475.417 483.175 475.534C483.137 475.65 483.076 475.758 482.997 475.851L477.675 481.591C477.505 481.76 477.275 481.855 477.036 481.855C476.796 481.855 476.566 481.76 476.397 481.591L469.599 475.258C469.433 475.087 469.34 474.858 469.34 474.619C469.34 474.38 469.433 474.151 469.599 473.98L474.863 469.088C475.012 468.924 475.216 468.82 475.437 468.797C475.657 468.773 475.879 468.831 476.06 468.96Z" stroke="#263238" stroke-linecap="round" stroke-linejoin="round"/>
<path d="M453.529 498.254C453.529 498.254 484.414 500.799 499.579 496.871C501.608 498.468 503.116 500.632 503.913 503.088C505.296 507.225 508.177 521.378 499.579 525.003C490.98 528.629 460.071 527.931 455.945 523.841C451.82 519.751 453.529 498.254 453.529 498.254Z" fill="#F46A37"/>
<mask id="mask11_241_28" style="mask-type:luminance" maskUnits="userSpaceOnUse" x="453" y="496" width="53" height="32">
<path d="M453.529 498.254C453.529 498.254 484.414 500.799 499.579 496.871C501.608 498.468 503.116 500.632 503.913 503.088C505.296 507.225 508.177 521.378 499.579 525.003C490.98 528.629 460.071 527.931 455.945 523.841C451.82 519.751 453.529 498.254 453.529 498.254Z" fill="white"/>
</mask>
<g mask="url(#mask11_241_28)">
<path opacity="0.4" d="M453.529 498.254C453.529 498.254 484.414 500.799 499.579 496.871C501.608 498.468 503.116 500.632 503.913 503.088C505.296 507.225 508.177 521.378 499.579 525.003C490.98 528.629 460.071 527.931 455.945 523.841C451.82 519.751 453.529 498.254 453.529 498.254Z" fill="black" fill-opacity="0.7"/>
</g>
<path d="M453.529 498.254C453.529 498.254 484.414 500.799 499.579 496.871C501.608 498.468 503.116 500.632 503.913 503.088C505.296 507.225 508.177 521.378 499.579 525.003C490.98 528.629 460.071 527.931 455.945 523.841C451.82 519.751 453.529 498.254 453.529 498.254Z" stroke="#263238" stroke-linecap="round" stroke-linejoin="round"/>
<path d="M453.529 498.254C453.529 498.254 457.154 508.026 459.048 509.525C460.942 511.024 501.066 511.024 505.528 507.399C509.99 503.773 503.878 497.22 499.59 496.871C499.579 496.871 471.47 500.148 453.529 498.254Z" fill="#F46A37" stroke="#263238" stroke-linecap="round" stroke-linejoin="round"/>
<path d="M440.584 496.174C440.584 496.174 441.618 516.706 443.686 521.366C442.151 522.167 440.445 522.586 438.713 522.586C436.981 522.586 435.275 522.167 433.74 521.366C428.511 518.6 429.37 500.915 430.405 500.961C431.439 501.008 440.584 496.174 440.584 496.174Z" fill="#F46A37"/>
<mask id="mask12_241_28" style="mask-type:luminance" maskUnits="userSpaceOnUse" x="429" y="496" width="15" height="27">
<path d="M440.584 496.174C440.584 496.174 441.618 516.706 443.686 521.366C442.151 522.167 440.445 522.586 438.713 522.586C436.981 522.586 435.275 522.167 433.74 521.366C428.511 518.6 429.37 500.915 430.405 500.961C431.439 501.008 440.584 496.174 440.584 496.174Z" fill="white"/>
</mask>
<g mask="url(#mask12_241_28)">
<path opacity="0.4" d="M440.584 496.174C440.584 496.174 441.618 516.706 443.686 521.366C442.151 522.167 440.445 522.586 438.713 522.586C436.981 522.586 435.275 522.167 433.74 521.366C428.511 518.6 429.37 500.915 430.405 500.961C431.439 501.008 440.584 496.174 440.584 496.174Z" fill="black" fill-opacity="0.7"/>
</g>
<path d="M440.584 496.174C440.584 496.174 441.618 516.706 443.686 521.366C442.151 522.167 440.445 522.586 438.713 522.586C436.981 522.586 435.275 522.167 433.74 521.366C428.511 518.6 429.37 500.915 430.405 500.961C431.439 501.008 440.584 496.174 440.584 496.174Z" stroke="#263238" stroke-linecap="round" stroke-linejoin="round"/>
<path d="M440.584 496.174L432.81 497.731C432.81 497.731 425.397 503.425 428.673 505.319C431.95 507.213 440.398 502.565 440.584 496.174Z" fill="#F46A37" stroke="#263238" stroke-linecap="round" stroke-linejoin="round"/>
<path d="M190.737 239.794C190.412 239.828 190.152 239.766 189.957 239.608C189.771 239.44 189.66 239.189 189.625 238.854L188.795 230.918C188.758 230.565 188.814 230.287 188.961 230.084C189.118 229.88 189.341 229.763 189.629 229.733C189.879 229.706 190.075 229.737 190.215 229.826C190.364 229.904 190.539 230.046 190.738 230.25L196.277 235.963L195.901 236.002L195.292 230.182C195.258 229.857 195.315 229.598 195.464 229.404C195.621 229.2 195.862 229.081 196.187 229.047C196.512 229.013 196.767 229.08 196.954 229.248C197.149 229.406 197.263 229.647 197.297 229.972L198.137 238.006C198.169 238.313 198.116 238.567 197.978 238.769C197.838 238.962 197.634 239.073 197.365 239.101C197.105 239.128 196.891 239.099 196.722 239.013C196.563 238.926 196.384 238.781 196.184 238.577L190.66 232.862L191.022 232.824L191.63 238.645C191.665 238.979 191.609 239.247 191.461 239.451C191.313 239.644 191.071 239.759 190.737 239.794ZM201.333 238.559C200.971 238.597 200.682 238.529 200.467 238.354C200.252 238.179 200.125 237.911 200.087 237.549L199.297 229.988C199.259 229.626 199.327 229.338 199.502 229.122C199.676 228.907 199.944 228.78 200.306 228.743L205.166 228.234C205.444 228.205 205.661 228.258 205.816 228.392C205.979 228.515 206.075 228.712 206.103 228.981C206.132 229.259 206.08 229.481 205.947 229.645C205.822 229.799 205.621 229.89 205.342 229.919L201.416 230.33L201.656 232.627L205.262 232.25C205.55 232.22 205.771 232.272 205.926 232.406C206.089 232.53 206.185 232.731 206.214 233.009C206.243 233.288 206.191 233.509 206.058 233.673C205.934 233.827 205.728 233.919 205.44 233.949L201.833 234.326L202.09 236.777L206.016 236.366C206.295 236.337 206.511 236.389 206.666 236.523C206.829 236.647 206.925 236.843 206.953 237.113C206.982 237.391 206.93 237.612 206.797 237.776C206.673 237.93 206.471 238.022 206.193 238.051L201.333 238.559ZM209.764 237.677C209.402 237.715 209.113 237.647 208.898 237.472C208.682 237.298 208.556 237.029 208.518 236.667L207.727 229.107C207.689 228.745 207.758 228.456 207.932 228.241C208.107 228.025 208.375 227.899 208.737 227.861L213.597 227.353C213.875 227.324 214.092 227.376 214.246 227.51C214.41 227.634 214.505 227.83 214.533 228.099C214.562 228.378 214.51 228.599 214.377 228.763C214.253 228.917 214.051 229.008 213.773 229.037L209.846 229.448L210.086 231.746L213.693 231.368C213.981 231.338 214.202 231.39 214.357 231.524C214.52 231.648 214.616 231.849 214.645 232.128C214.674 232.406 214.622 232.627 214.489 232.791C214.364 232.945 214.158 233.037 213.87 233.067L210.264 233.444L210.52 235.895L214.447 235.484C214.725 235.455 214.942 235.508 215.097 235.642C215.26 235.765 215.356 235.962 215.384 236.231C215.413 236.509 215.361 236.731 215.228 236.895C215.103 237.049 214.902 237.14 214.623 237.169L209.764 237.677ZM220.505 236.681C220.152 236.718 219.873 236.648 219.667 236.473C219.461 236.297 219.339 236.033 219.302 235.68L218.565 228.635L216.101 228.893C215.813 228.923 215.582 228.867 215.408 228.726C215.233 228.584 215.132 228.375 215.103 228.096C215.073 227.808 215.129 227.582 215.271 227.417C215.412 227.243 215.627 227.14 215.914 227.11L223.002 226.369C223.29 226.339 223.521 226.395 223.695 226.536C223.868 226.668 223.97 226.878 224 227.166C224.029 227.444 223.973 227.67 223.832 227.845C223.691 228.019 223.476 228.121 223.188 228.151L220.724 228.409L221.46 235.455C221.497 235.807 221.433 236.091 221.268 236.305C221.112 236.519 220.858 236.644 220.505 236.681Z" fill="#263238"/>
<path d="M265.113 300.659C264.841 300.652 264.633 300.569 264.49 300.409C264.346 300.249 264.281 300.049 264.294 299.809C264.304 299.626 264.369 299.469 264.488 299.339C264.6 299.201 264.76 299.134 264.968 299.137L265.317 299.132C265.638 299.126 265.882 299.047 266.051 298.896C266.219 298.745 266.313 298.506 266.33 298.178L266.613 293.014C266.629 292.71 266.722 292.483 266.89 292.332C267.059 292.173 267.292 292.101 267.587 292.118C267.891 292.134 268.118 292.231 268.268 292.407C268.419 292.576 268.487 292.812 268.47 293.115L268.189 298.256C268.16 298.783 268.04 299.225 267.828 299.582C267.625 299.931 267.33 300.196 266.943 300.375C266.557 300.554 266.087 300.648 265.534 300.658L265.113 300.659ZM270.715 300.869C270.403 300.852 270.168 300.755 270.01 300.578C269.851 300.402 269.78 300.157 269.797 299.846L270.153 293.339C270.17 293.028 270.267 292.793 270.444 292.634C270.621 292.476 270.865 292.405 271.177 292.422L275.359 292.651C275.598 292.664 275.774 292.737 275.887 292.872C276.008 292.999 276.063 293.178 276.05 293.41C276.037 293.649 275.963 293.829 275.828 293.95C275.702 294.064 275.519 294.114 275.279 294.1L271.9 293.916L271.792 295.893L274.896 296.062C275.143 296.076 275.323 296.15 275.436 296.284C275.558 296.411 275.612 296.594 275.598 296.834C275.585 297.074 275.511 297.254 275.377 297.375C275.25 297.488 275.063 297.538 274.816 297.524L271.712 297.355L271.597 299.463L274.976 299.648C275.216 299.661 275.392 299.735 275.505 299.869C275.626 299.996 275.68 300.175 275.668 300.407C275.654 300.647 275.58 300.827 275.446 300.948C275.319 301.061 275.136 301.111 274.897 301.098L270.715 300.869ZM277.97 301.266C277.658 301.249 277.423 301.152 277.265 300.975C277.106 300.798 277.035 300.554 277.052 300.242L277.408 293.736C277.425 293.425 277.522 293.19 277.699 293.031C277.876 292.872 278.12 292.802 278.432 292.819L282.613 293.047C282.853 293.06 283.029 293.134 283.142 293.269C283.263 293.395 283.318 293.575 283.305 293.806C283.292 294.046 283.218 294.226 283.083 294.347C282.957 294.46 282.774 294.51 282.534 294.497L279.155 294.312L279.047 296.289L282.15 296.459C282.398 296.473 282.578 296.547 282.691 296.681C282.812 296.808 282.866 296.991 282.853 297.231C282.84 297.47 282.766 297.651 282.631 297.771C282.505 297.885 282.318 297.934 282.07 297.921L278.967 297.751L278.852 299.86L282.231 300.045C282.47 300.058 282.647 300.132 282.759 300.266C282.881 300.393 282.935 300.572 282.922 300.804C282.909 301.043 282.835 301.224 282.7 301.344C282.574 301.458 282.391 301.508 282.151 301.495L277.97 301.266Z" fill="#263238"/>
</svg>
