<svg width="338" height="330" viewBox="0 0 338 330" fill="none" xmlns="http://www.w3.org/2000/svg">
<path d="M266.175 68.9963C258.232 45.0119 221.647 8.31591 167.391 12.8171C139.526 15.1271 112.737 41.2565 96.7019 64.2971C74.9887 95.4623 59.3326 131.795 53.4379 169.277C50.4702 188.126 49.6523 207.814 55.6822 225.931C61.7121 244.048 74.137 259.294 88.2383 272.131C112.845 294.518 143.413 310.556 176.118 316.965C208.823 323.374 317.72 312.061 278.1 204.93C261.903 161.172 280.716 112.702 266.175 68.9963Z" fill="#1865F2"/>
<path opacity="0.7" d="M266.175 68.9963C258.232 45.0119 221.647 8.31591 167.391 12.8171C139.526 15.1271 112.737 41.2565 96.7019 64.2971C74.9887 95.4623 59.3326 131.795 53.4379 169.277C50.4702 188.126 49.6523 207.814 55.6822 225.931C61.7121 244.048 74.137 259.294 88.2383 272.131C112.845 294.518 143.413 310.556 176.118 316.965C208.823 323.374 317.72 312.061 278.1 204.93C261.903 161.172 280.716 112.702 266.175 68.9963Z" fill="white"/>
<path d="M264.999 48.688V167.686H264.485V48.6946L264.512 48.688H264.999Z" fill="white" stroke="#263238" stroke-linecap="round" stroke-linejoin="round"/>
<path d="M264.512 48.688L264.485 48.6946V167.686H74.0963V48.688H264.512Z" fill="white" stroke="#263238" stroke-linecap="round" stroke-linejoin="round"/>
<path d="M264.999 48.6948H264.485V167.686H264.999V48.6948Z" fill="white" stroke="#263238" stroke-linecap="round" stroke-linejoin="round"/>
<path d="M320.978 35.4155V180.965L315.746 179.738L264.485 167.686V48.6947L264.512 48.6881L315.746 36.6431L320.978 35.4155Z" fill="white" stroke="#263238" stroke-linecap="round" stroke-linejoin="round"/>
<path d="M320.978 35.4155H315.746V180.959H320.978V35.4155Z" fill="white" stroke="#263238" stroke-linecap="round" stroke-linejoin="round"/>
<path d="M17.4272 180.959L73.9206 167.686V48.6947L17.4272 35.4155V180.959Z" fill="white" stroke="#263238" stroke-linecap="round" stroke-linejoin="round"/>
<path d="M17.4273 180.958H22.6595L22.6595 35.4153H17.4273L17.4273 180.958Z" fill="white" stroke="#263238" stroke-linecap="round" stroke-linejoin="round"/>
<path d="M259.212 161.06L80.2953 160.413V54.4233L259.212 55.0635V161.06Z" fill="#5C5C5C" stroke="#263238" stroke-linecap="round" stroke-linejoin="round"/>
<path d="M207.322 160.308H259.266C255.808 147.936 248.389 136.969 238.092 129.008C227.795 121.047 215.161 116.509 202.035 116.058C188.908 115.607 175.978 119.265 165.133 126.5C154.289 133.734 146.098 144.165 141.757 156.268C141.29 157.566 141.048 158.932 141.041 160.308H207.322Z" fill="#5BA26F" stroke="#263238" stroke-linecap="round" stroke-linejoin="round"/>
<path d="M191.632 120.358L183.872 124.898V132.158C183.872 132.158 189.76 131.38 191.639 128.238C191.639 128.238 190.03 127.578 194.58 124.938C199.129 122.298 198.068 119.031 191.632 120.358Z" fill="white"/>
<path d="M179.316 120.357H180.391L172.765 124.819L171.555 126.093L164.065 130.304L162.592 132.132L161.388 136.184L157.373 139.319L159.245 140.639L154.966 145.86H153.493L152.959 143.768L156.17 137.234L151.721 139.669C151.721 139.669 161.253 125.169 179.316 120.357Z" fill="white"/>
<path d="M141.561 159.812H152.377L152.762 155.027C152.762 155.027 152.086 154.11 152.195 153.707C152.303 153.305 153.547 146.916 153.547 146.916L151.478 141.431L149.551 143.906H148.382C145.293 148.839 142.993 154.202 141.561 159.812Z" fill="white"/>
<path d="M177.984 126.093H179.316V127.69L177.984 128.475H176.774V127.281L177.984 126.093Z" fill="white"/>
<path d="M169.818 129.261L167.81 131.346L167.276 133.102L165.268 135.009L164.464 133.835L162.997 135.009V133.703L164.065 132.132L169.818 129.261Z" fill="white"/>
<path d="M207.417 160.09H216.57C219.024 160.09 233.937 159.964 233.937 159.964C235.214 155.509 235.823 150.262 234.315 145.853C232.361 140.118 228.725 134.825 227.555 131.333L227.515 131.221C227.481 131.116 227.454 131.023 227.433 130.931C227.325 130.391 227.436 129.83 227.744 129.369C228.052 128.908 228.533 128.583 229.083 128.462C230.016 128.205 231.787 129.248 231.787 129.248H235.201L231.652 127.268L230.185 125.75L229.245 124.938L225.784 123.512L225.919 122.47C223.903 121.278 221.681 120.457 219.362 120.047L221.904 121.942H219.2L218.666 124.898H213.312C213.312 124.898 214.664 124.555 211.439 122.826C208.215 121.097 197.791 120.358 197.791 120.358L201.002 124.898L194.012 128.74L194.816 131.611L199.602 130.291V128.726L202.577 126.964L202.847 130.033L203.909 131.353L205.261 130.31L209.033 133.973L202.32 140.356L201.245 132.145L191.605 134.231L183.872 143.108C183.872 143.108 193.235 146.507 196.716 148.599C200.197 150.691 199.63 155.153 199.63 155.153L205.281 158.261L204.287 160.09H207.417Z" fill="white"/>
<path d="M28.0946 168.59L69.5063 162.221L69.0534 51.744L27.5808 43.6128L28.0946 168.59Z" fill="white" stroke="#263238" stroke-linecap="round" stroke-linejoin="round"/>
<path d="M45.2108 56.5356L54.5937 81.1536" stroke="#263238" stroke-linecap="round" stroke-linejoin="round"/>
<path d="M43.7372 52.6611L44.7106 55.2219" stroke="#263238" stroke-linecap="round" stroke-linejoin="round"/>
<path d="M41.4996 46.7939L43.2978 51.5063" stroke="#263238" stroke-linecap="round" stroke-linejoin="round"/>
<path d="M40.8979 60.4229L53.1741 92.9938" stroke="#263238" stroke-linecap="round" stroke-linejoin="round"/>
<path d="M36.4296 48.5825L40.2692 58.7663" stroke="#263238" stroke-linecap="round" stroke-linejoin="round"/>
<path d="M45.177 124.232L54.6883 150.401" stroke="#263238" stroke-linecap="round" stroke-linejoin="round"/>
<path d="M309.946 168.59L268.534 162.221L268.994 51.744L310.46 43.6128L309.946 168.59Z" fill="white" stroke="#263238" stroke-linecap="round" stroke-linejoin="round"/>
<path d="M292.593 58.377L301.976 82.9884" stroke="#263238" stroke-linecap="round" stroke-linejoin="round"/>
<path d="M291.113 54.4961L292.093 57.0635" stroke="#263238" stroke-linecap="round" stroke-linejoin="round"/>
<path d="M288.273 62.2642L300.556 94.8352" stroke="#263238" stroke-linecap="round" stroke-linejoin="round"/>
<path d="M283.812 50.4238L287.651 60.601" stroke="#263238" stroke-linecap="round" stroke-linejoin="round"/>
<path d="M292.552 126.073L302.064 152.236" stroke="#263238" stroke-linecap="round" stroke-linejoin="round"/>
<path d="M307.425 295.601H320.688" stroke="#263238" stroke-linecap="round" stroke-linejoin="round"/>
<path d="M296.426 295.601H301.908" stroke="#263238" stroke-linecap="round" stroke-linejoin="round"/>
<path d="M17.1299 295.601H291.113" stroke="#263238" stroke-linecap="round" stroke-linejoin="round"/>
<path d="M266.567 207.729V287.1C266.567 289.342 265.655 291.493 264.031 293.078C262.407 294.664 260.204 295.555 257.907 295.555H239.98C243.171 295.136 246.097 293.602 248.217 291.236C250.336 288.87 251.505 285.834 251.506 282.691V212.256C251.51 209.051 250.301 205.957 248.112 203.57C245.922 201.182 242.905 199.668 239.642 199.32V199.248H257.894C259.034 199.247 260.164 199.466 261.217 199.892C262.271 200.318 263.228 200.943 264.034 201.73C264.839 202.518 265.478 203.454 265.913 204.483C266.347 205.512 266.57 206.615 266.567 207.729Z" fill="#263238" stroke="#263238" stroke-linecap="round" stroke-linejoin="round"/>
<path d="M239.642 199.32C239.17 199.273 238.697 199.249 238.222 199.248H44.8323C43.0839 199.248 41.3526 199.584 39.7376 200.238C38.1226 200.892 36.6555 201.851 35.4204 203.059C34.1853 204.268 33.2065 205.702 32.5398 207.28C31.8732 208.858 31.5319 210.549 31.5354 212.256V282.698C31.5354 286.141 32.9363 289.443 35.43 291.878C37.9237 294.312 41.3058 295.68 44.8323 295.68H238.222C238.815 295.681 239.407 295.641 239.994 295.561C243.184 295.143 246.111 293.608 248.23 291.243C250.35 288.877 251.519 285.841 251.519 282.698V212.256C251.523 209.049 250.313 205.954 248.12 203.566C245.927 201.178 242.908 199.665 239.642 199.32ZM103.928 209.616H233.896C235.177 209.613 236.446 209.856 237.631 210.332C238.815 210.808 239.892 211.507 240.799 212.39C241.706 213.273 242.427 214.322 242.918 215.477C243.41 216.631 243.663 217.87 243.664 219.12V245.58H103.928V209.616ZM86.9404 286.288H60.3533L60.0085 286.176C56.8787 285.074 54.6005 281.391 54.6005 277.015V219.239C54.6005 213.959 57.9265 209.728 62.0365 209.728H86.9742L86.9404 286.288ZM233.896 286.44L103.908 286.203V250.45H243.664V276.897C243.669 278.151 243.419 279.393 242.93 280.552C242.441 281.712 241.721 282.765 240.814 283.652C239.906 284.539 238.827 285.242 237.64 285.721C236.453 286.199 235.18 286.444 233.896 286.44Z" fill="white" stroke="#263238" stroke-linecap="round" stroke-linejoin="round"/>
<path d="M152.343 290.645H125.175" stroke="#263238" stroke-linecap="round" stroke-linejoin="round"/>
<path d="M163.342 290.645H157.859" stroke="#263238" stroke-linecap="round" stroke-linejoin="round"/>
<path d="M54.5735 219.239V277.015C54.5735 281.391 56.8787 285.074 59.9815 286.176H47.7189C46.6193 286.177 45.5303 285.966 44.5142 285.556C43.4981 285.146 42.5747 284.544 41.7968 283.785C41.019 283.027 40.402 282.126 39.981 281.134C39.56 280.142 39.3433 279.079 39.3433 278.005V217.8C39.3424 216.726 39.5584 215.662 39.9789 214.669C40.3994 213.676 41.0162 212.774 41.794 212.014C42.5719 211.254 43.4955 210.651 44.5121 210.239C45.5287 209.828 46.6184 209.616 47.7189 209.616H71.9265C72.3795 209.618 72.8316 209.656 73.2785 209.728H62.0028C57.8995 209.728 54.5735 213.985 54.5735 219.239Z" fill="#263238" stroke="#263238" stroke-linecap="round" stroke-linejoin="round"/>
<path d="M103.928 209.616H91.5507V286.176H103.928V209.616Z" fill="#263238" stroke="#263238" stroke-linecap="round" stroke-linejoin="round"/>
<path d="M91.3615 245.639L243.664 245.58V250.45H91.3615V245.639Z" fill="white" stroke="#263238" stroke-linecap="round" stroke-linejoin="round"/>
<path d="M91.5507 209.616H86.9404V286.176H91.5507V209.616Z" fill="white" stroke="#263238" stroke-linecap="round" stroke-linejoin="round"/>
<path d="M156.906 216.395H148.632V245.639H156.906V216.395Z" stroke="#263238" stroke-linecap="round" stroke-linejoin="round"/>
<path d="M148.632 216.395H141.426V245.639H148.632V216.395Z" stroke="#263238" stroke-linecap="round" stroke-linejoin="round"/>
<path d="M169.237 216.395H176.767H184.142V211.887H163.017V245.639H165.167V216.395H169.237Z" stroke="#263238" stroke-linecap="round" stroke-linejoin="round"/>
<path d="M163.017 211.887H163.011H156.906V216.395V245.639H163.011H163.017V211.887Z" stroke="#263238" stroke-linecap="round" stroke-linejoin="round"/>
<path d="M183.825 221.345H187.056V216.395H184.142H176.767H169.237V245.639H176.767H177.835V221.345H183.825Z" stroke="#263238" stroke-linecap="round" stroke-linejoin="round"/>
<path d="M169.237 216.395H165.167V245.639H169.237V216.395Z" stroke="#263238" stroke-linecap="round" stroke-linejoin="round"/>
<path d="M190.7 221.344H187.056H183.825V245.639H184.142H187.056H190.7V221.344Z" stroke="#263238" stroke-linecap="round" stroke-linejoin="round"/>
<path d="M183.818 221.344H177.835V245.639H183.818V221.344Z" stroke="#263238" stroke-linecap="round" stroke-linejoin="round"/>
<path d="M195.776 245.639H197.554V221.344H200.934V245.639H200.941V221.344H207.194H213.325V217.596H195.776V245.639Z" stroke="#263238" stroke-linecap="round" stroke-linejoin="round"/>
<path d="M195.763 245.639H195.776V217.596H195.763H190.7V221.344V245.639H195.763Z" stroke="#263238" stroke-linecap="round" stroke-linejoin="round"/>
<path d="M200.941 221.344V245.639H207.194H213.325H217.997V221.344H213.325H207.194H200.941Z" stroke="#263238" stroke-linecap="round" stroke-linejoin="round"/>
<path d="M200.934 221.344H197.554V245.639H200.934V221.344Z" stroke="#263238" stroke-linecap="round" stroke-linejoin="round"/>
<path d="M112.655 256.938H110.702V286.183H112.655V256.938Z" stroke="#263238" stroke-linecap="round" stroke-linejoin="round"/>
<path d="M110.702 256.938H103.496V286.183H110.702V256.938Z" stroke="#263238" stroke-linecap="round" stroke-linejoin="round"/>
<path d="M131.306 256.938H133.794V252.43H125.087V286.183H127.237V256.938H131.306Z" stroke="#263238" stroke-linecap="round" stroke-linejoin="round"/>
<path d="M118.983 252.43H112.662V256.938V286.183H118.983V252.43Z" stroke="#263238" stroke-linecap="round" stroke-linejoin="round"/>
<path d="M125.094 252.43H118.983V286.183H125.094V252.43Z" stroke="#263238" stroke-linecap="round" stroke-linejoin="round"/>
<path d="M202.543 256.938H194.269V286.183H202.543V256.938Z" stroke="#263238" stroke-linecap="round" stroke-linejoin="round"/>
<path d="M194.269 256.938H187.063V286.183H194.269V256.938Z" stroke="#263238" stroke-linecap="round" stroke-linejoin="round"/>
<path d="M208.654 252.43V286.183H222.404H229.779V252.43H208.654Z" stroke="#263238" stroke-linecap="round" stroke-linejoin="round"/>
<path d="M208.654 252.43H208.647H202.543V256.938V286.183H208.647H208.654V252.43Z" stroke="#263238" stroke-linecap="round" stroke-linejoin="round"/>
<path d="M139.912 261.888H145.894H149.126V256.938H138.837H133.794H131.306V286.183H133.469V261.888H139.912Z" stroke="#263238" stroke-linecap="round" stroke-linejoin="round"/>
<path d="M131.306 256.938H127.237V286.183H131.306V256.938Z" stroke="#263238" stroke-linecap="round" stroke-linejoin="round"/>
<path d="M149.126 261.888H145.894V286.183H149.126H152.769V261.888H149.126Z" stroke="#263238" stroke-linecap="round" stroke-linejoin="round"/>
<path d="M133.469 261.888V286.183H133.794H138.837H139.912V261.888H133.469Z" stroke="#263238" stroke-linecap="round" stroke-linejoin="round"/>
<path d="M145.894 261.888H139.912V286.183H145.894V261.888Z" stroke="#263238" stroke-linecap="round" stroke-linejoin="round"/>
<path d="M175.395 261.888V258.139H157.846V286.183H159.624V261.888H163.004V286.183H163.011V261.888H175.395Z" stroke="#263238" stroke-linecap="round" stroke-linejoin="round"/>
<path d="M157.839 258.139H152.769V261.888V286.183H156.846H157.839H157.846V258.139H157.839Z" stroke="#263238" stroke-linecap="round" stroke-linejoin="round"/>
<path d="M163.011 261.888V286.183H175.395H180.066V261.888H175.395H163.011Z" stroke="#263238" stroke-linecap="round" stroke-linejoin="round"/>
<path d="M163.004 261.888H159.624V286.183H163.004V261.888Z" stroke="#263238" stroke-linecap="round" stroke-linejoin="round"/>
<path d="M44.616 264.311L43.9806 264.924C46.6365 267.496 49.8996 269.39 53.4822 270.44C57.0649 271.489 60.8569 271.662 64.5242 270.944C64.356 270.763 64.2621 270.528 64.2606 270.284C64.2606 270.231 64.2606 270.178 64.2606 270.119" stroke="#263238" stroke-linecap="round" stroke-linejoin="round"/>
<path d="M66.1805 269.624H61.8608V281.814H66.1805V269.624Z" fill="white" stroke="#263238" stroke-linecap="round" stroke-linejoin="round"/>
<g opacity="0.2">
<path d="M66.1805 269.624H61.8608V281.814H66.1805V269.624Z" fill="white" stroke="#263238" stroke-linecap="round" stroke-linejoin="round"/>
</g>
<path d="M77.8955 286.176H51.7275C52.2075 283.536 56.7773 281.378 62.6652 280.936C63.3412 280.889 64.0645 280.856 64.7879 280.856C65.5112 280.856 66.2683 280.856 66.9781 280.929C72.8931 281.351 77.4696 283.516 77.8955 286.176Z" fill="white" stroke="#263238" stroke-linecap="round" stroke-linejoin="round"/>
<path d="M46.5832 266.449L45.5016 265.399L76.7395 234.518L77.8211 235.567L46.5832 266.449Z" fill="white" stroke="#263238" stroke-linecap="round" stroke-linejoin="round"/>
<path d="M64.3079 270.099C64.3079 270.158 64.3079 270.211 64.3079 270.264C64.3094 270.508 64.4032 270.743 64.5715 270.924C68.6034 270.124 72.3374 268.271 75.3752 265.562C78.4129 262.852 80.6404 259.389 81.8201 255.541C82.9998 251.692 83.0874 247.604 82.0736 243.711C81.0597 239.818 78.9825 236.266 76.0635 233.436L75.4348 234.056" stroke="#263238" stroke-linecap="round" stroke-linejoin="round"/>
<path d="M73.2446 261.242C71.0211 263.49 68.1648 265.043 65.0369 265.706C61.9089 266.369 58.6498 266.112 55.6717 264.967C52.6936 263.821 50.1303 261.839 48.3059 259.272C46.4815 256.704 45.4779 253.666 45.4221 250.541C45.3664 247.417 46.2608 244.346 47.9925 241.718C49.7242 239.089 52.2152 237.022 55.1506 235.776C58.086 234.53 61.3339 234.161 64.4837 234.718C67.6334 235.274 70.5434 236.73 72.8458 238.901C74.3752 240.341 75.5988 242.063 76.4466 243.965C77.2944 245.868 77.7499 247.916 77.7869 249.99C77.8239 252.065 77.4418 254.127 76.6625 256.057C75.8831 257.988 74.7217 259.749 73.2446 261.242Z" fill="#1865F2" stroke="#263238" stroke-linecap="round" stroke-linejoin="round"/>
<path d="M51.2273 261.803C57.4465 263.017 64.2065 260.133 68.4247 255.863L67.9245 256.364C71.7574 252.49 74.867 245.408 73.4001 239.369" stroke="#263238" stroke-linecap="round" stroke-linejoin="round"/>
<path d="M58.1698 234.828L63.2939 239.659L63.8685 240.201L67.6135 243.738L68.1476 244.233L71.8994 247.764L72.4672 248.305L77.5237 253.077" stroke="#263238" stroke-linecap="round" stroke-linejoin="round"/>
<path d="M50.0713 239.263L73.3392 261.202" stroke="#263238" stroke-linecap="round" stroke-linejoin="round"/>
<path d="M45.941 247.428L51.0448 252.246L51.6262 252.787L55.2698 256.226L55.7904 256.721L59.4272 260.159H59.4408L60.0154 260.7L65.1259 265.518L64.9164 265.73" stroke="#263238" stroke-linecap="round" stroke-linejoin="round"/>
<g opacity="0.2">
<path d="M58.1698 234.828L63.2939 239.659L63.8685 240.201L67.6135 243.738L68.1476 244.233L71.8994 247.764L72.4672 248.305L77.5237 253.077" stroke="#263238" stroke-linecap="round" stroke-linejoin="round"/>
<path d="M50.0713 239.263L73.3392 261.202" stroke="#263238" stroke-linecap="round" stroke-linejoin="round"/>
</g>
<path d="M72.954 238.584C66.6401 237.35 59.434 240.656 55.5605 244.563L55.9053 244.214C52.0385 248.121 48.9087 255.275 50.3891 261.374" stroke="#263238" stroke-linecap="round" stroke-linejoin="round"/>
<path d="M50.5243 261.723L73.0824 238.907" stroke="#263238" stroke-linecap="round" stroke-linejoin="round"/>
<path d="M296.595 180.087C296.595 180.087 285.664 192.594 282.886 221.601C280.107 250.608 276.917 271.761 276.917 271.761" stroke="#263238" stroke-width="2" stroke-linecap="round" stroke-linejoin="round"/>
<path d="M313.914 157.199C314.325 157.149 314.74 157.253 315.076 157.489C315.412 157.725 315.644 158.076 315.726 158.472C317.348 166.524 324.358 205.233 307.925 200.125C294.29 195.888 295.182 186.153 296.534 181.447C296.598 181.228 296.598 180.996 296.533 180.777C296.467 180.558 296.34 180.362 296.166 180.211C295.991 180.06 295.776 179.96 295.546 179.923C295.316 179.886 295.079 179.913 294.864 180.002C289.544 182.147 277.964 185.526 276.694 174.92C275.22 162.703 306.6 158.103 313.914 157.199Z" fill="#5BA26F"/>
<path d="M307.925 164.241C304.643 167.884 301.78 171.868 299.387 176.121" stroke="#263238" stroke-linecap="round" stroke-linejoin="round"/>
<path d="M312.927 159.469C311.911 160.265 310.947 161.123 310.041 162.037" stroke="#263238" stroke-linecap="round" stroke-linejoin="round"/>
<path d="M300.637 178.807C300.637 178.807 305.221 174.108 316.463 176.167" stroke="#263238" stroke-linecap="round" stroke-linejoin="round"/>
<path d="M295.642 162.921C295.642 162.921 293.56 168.617 295.642 176.121" stroke="#263238" stroke-linecap="round" stroke-linejoin="round"/>
<path d="M314.529 188.1C315.252 188.707 315.901 189.394 316.463 190.146" stroke="#263238" stroke-linecap="round" stroke-linejoin="round"/>
<path d="M299.387 182.82C299.387 182.82 306.945 183.203 312.576 186.681" stroke="#263238" stroke-linecap="round" stroke-linejoin="round"/>
<path d="M293.141 178.807C293.141 178.807 284.603 176.339 282.521 169.527" stroke="#263238" stroke-linecap="round" stroke-linejoin="round"/>
<path d="M265.823 222.083C265.823 222.083 272.076 229.237 273.665 245.843C275.254 262.449 277.079 274.52 277.079 274.52" stroke="#263238" stroke-width="2" stroke-linecap="round" stroke-linejoin="round"/>
<path d="M256.508 209.728C256.274 209.699 256.036 209.757 255.844 209.892C255.652 210.027 255.52 210.228 255.474 210.454C254.541 215.074 250.532 237.197 259.929 234.28C267.73 231.858 267.223 226.281 266.445 223.595C266.411 223.469 266.412 223.336 266.45 223.212C266.489 223.087 266.562 222.975 266.661 222.889C266.761 222.802 266.884 222.745 267.015 222.723C267.147 222.7 267.282 222.714 267.405 222.763C270.447 223.997 277.065 225.925 277.795 219.859C278.64 212.87 260.693 210.243 256.508 209.728Z" fill="#5BA26F"/>
<path d="M259.936 213.754C261.809 215.844 263.446 218.125 264.816 220.559" stroke="#263238" stroke-linecap="round" stroke-linejoin="round"/>
<path d="M257.076 211.021C257.656 211.479 258.206 211.971 258.725 212.493" stroke="#263238" stroke-linecap="round" stroke-linejoin="round"/>
<path d="M264.1 222.083C264.1 222.083 261.477 219.397 255.048 220.558" stroke="#263238" stroke-linecap="round" stroke-linejoin="round"/>
<path d="M266.959 213.001C267.684 215.471 267.684 218.089 266.959 220.558" stroke="#263238" stroke-linecap="round" stroke-linejoin="round"/>
<path d="M256.157 227.41C255.744 227.758 255.373 228.15 255.048 228.578" stroke="#263238" stroke-linecap="round" stroke-linejoin="round"/>
<path d="M264.816 224.4C264.816 224.4 260.49 224.618 257.272 226.611" stroke="#263238" stroke-linecap="round" stroke-linejoin="round"/>
<path d="M268.372 222.083C268.372 222.083 273.26 220.671 274.456 216.803" stroke="#263238" stroke-linecap="round" stroke-linejoin="round"/>
<path d="M295.331 215.417C295.331 215.417 285.272 226.961 282.683 253.73C281.872 262.198 281.02 269.94 280.243 276.566" stroke="#263238" stroke-width="2" stroke-linecap="round" stroke-linejoin="round"/>
<path d="M314.516 206.989C314.821 207.089 315.076 207.299 315.228 207.576C315.38 207.854 315.418 208.177 315.334 208.481C313.657 214.638 305.032 243.956 295.351 234.927C287.32 227.436 291.349 220.941 293.932 218.11C294.051 217.977 294.13 217.813 294.159 217.639C294.188 217.464 294.165 217.284 294.095 217.121C294.024 216.958 293.908 216.818 293.76 216.716C293.612 216.614 293.437 216.555 293.256 216.546C288.794 216.275 279.546 214.777 282.358 206.956C285.617 197.947 309.101 205.187 314.516 206.989Z" fill="#5BA26F"/>
<path opacity="0.2" d="M314.516 206.989C314.821 207.089 315.076 207.299 315.228 207.576C315.38 207.854 315.418 208.177 315.334 208.481C313.657 214.638 305.032 243.956 295.351 234.927C287.32 227.436 291.349 220.941 293.932 218.11C294.051 217.977 294.13 217.813 294.159 217.639C294.188 217.464 294.165 217.284 294.095 217.121C294.024 216.958 293.908 216.818 293.76 216.716C293.612 216.614 293.437 216.555 293.256 216.546C288.794 216.275 279.546 214.777 282.358 206.956C285.617 197.947 309.101 205.187 314.516 206.989Z" fill="black"/>
<path d="M307.884 209.88C304.322 211.334 300.933 213.164 297.778 215.338" stroke="#263238" stroke-linecap="round" stroke-linejoin="round"/>
<path d="M313.035 208.243C312.05 208.463 311.079 208.74 310.129 209.075" stroke="#263238" stroke-linecap="round" stroke-linejoin="round"/>
<path d="M297.717 217.641C297.717 217.641 302.551 215.886 309.682 221.047" stroke="#263238" stroke-linecap="round" stroke-linejoin="round"/>
<path d="M299.779 204.897C297.383 207.493 295.783 210.695 295.162 214.137" stroke="#263238" stroke-linecap="round" stroke-linejoin="round"/>
<path d="M304.153 228.756C304.443 229.422 304.656 230.117 304.788 230.828" stroke="#263238" stroke-linecap="round" stroke-linejoin="round"/>
<path d="M295.412 220.037C295.412 220.037 300.55 222.822 303.26 227.119" stroke="#263238" stroke-linecap="round" stroke-linejoin="round"/>
<path d="M292.492 215.16C292.492 215.16 287.395 210.599 288.321 205.154" stroke="#263238" stroke-linecap="round" stroke-linejoin="round"/>
<path d="M273.983 295.574H284.123C286.03 295.577 287.865 294.864 289.249 293.583C290.633 292.301 291.46 290.55 291.559 288.691L292.127 277.946C292.187 276.809 292.01 275.671 291.606 274.603C291.202 273.535 290.579 272.558 289.776 271.733C288.973 270.907 288.006 270.25 286.934 269.801C285.862 269.352 284.708 269.121 283.541 269.122H274.551C273.385 269.122 272.231 269.354 271.16 269.803C270.089 270.252 269.123 270.91 268.321 271.735C267.518 272.561 266.896 273.537 266.492 274.605C266.089 275.672 265.912 276.809 265.972 277.946L266.54 288.691C266.639 290.551 267.467 292.304 268.852 293.585C270.237 294.866 272.074 295.579 273.983 295.574Z" fill="white" stroke="#263238" stroke-linecap="round" stroke-linejoin="round"/>
<path d="M281.858 288.413H266.547" stroke="#263238" stroke-linecap="round" stroke-linejoin="round"/>
<path d="M291.593 288.413H286.516" stroke="#263238" stroke-linecap="round" stroke-linejoin="round"/>
<path d="M92.416 162.769L92.3687 171.428C93.3083 171.428 93.3016 173.091 92.3687 173.085C89.4687 173.085 86.5686 173.085 83.6686 173.085L83.7294 161.06L92.4295 161.099C93.3557 161.112 93.3489 162.769 92.416 162.769Z" fill="white" stroke="#263238" stroke-linecap="round" stroke-linejoin="round"/>
<path d="M85.655 162.737L85.6133 171.389L92.3665 171.42L92.4082 162.768L85.655 162.737Z" fill="white" stroke="#263238" stroke-linecap="round" stroke-linejoin="round"/>
<path d="M87.0756 161.911L49.7807 161.74C48.1718 161.74 46.8536 164.037 46.8401 166.888C46.8266 169.739 48.1177 172.056 49.7334 172.062L87.0283 172.234L87.0756 161.911Z" fill="white" stroke="#263238" stroke-linecap="round" stroke-linejoin="round"/>
<path d="M87.0756 161.911L49.7807 161.74C48.1718 161.74 46.8536 164.037 46.8401 166.888C46.8266 169.739 48.1177 172.056 49.7334 172.062L87.0283 172.234L87.0756 161.911Z" fill="white" stroke="#263238" stroke-linecap="round" stroke-linejoin="round"/>
<path d="M87.0215 173.065C79.3557 173.025 57.7981 173.065 50.1322 172.893C44.8797 172.761 44.6566 161.291 49.8077 160.908C53.4041 160.644 57.095 160.947 60.6913 160.961L87.0553 161.086C87.995 161.086 87.9882 162.749 87.0553 162.743L51.3761 162.578C49.6928 162.578 48.4895 162.578 47.8271 164.841C47.2592 166.821 47.4147 170.781 49.7131 171.23C49.9764 171.25 50.2408 171.25 50.504 171.23L62.3949 171.283L87.0148 171.395C87.9477 171.395 87.9409 173.058 87.0148 173.058L87.0215 173.065Z" fill="#1865F2" stroke="#263238" stroke-linecap="round" stroke-linejoin="round"/>
<path d="M92.3957 154.017V159.522C93.3286 159.522 93.3286 160.584 92.3957 160.578C89.4934 160.578 86.5933 160.578 83.6956 160.578L83.7361 152.935L92.4362 152.975C93.3353 152.968 93.3353 154.024 92.3957 154.017Z" fill="white" stroke="#263238" stroke-linecap="round" stroke-linejoin="round"/>
<path d="M85.6341 153.983L85.6075 159.48L92.3607 159.512L92.3872 154.014L85.6341 153.983Z" fill="white" stroke="#263238" stroke-linecap="round" stroke-linejoin="round"/>
<path d="M87.0553 153.463L49.7604 153.292C48.1515 153.292 46.84 154.744 46.8265 156.592C46.813 158.44 48.1177 159.892 49.7266 159.892L87.0282 160.063L87.0553 153.463Z" fill="white" stroke="#263238" stroke-linecap="round" stroke-linejoin="round"/>
<path d="M87.0553 153.463L49.7604 153.292C48.1515 153.292 46.84 154.744 46.8265 156.592C46.813 158.44 48.1177 159.892 49.7266 159.892L87.0282 160.063L87.0553 153.463Z" fill="#BFBFBF" stroke="#263238" stroke-linecap="round" stroke-linejoin="round"/>
<path d="M87.0215 160.551C79.3556 160.551 57.798 160.551 50.1322 160.38C44.8796 160.287 44.6363 152.994 49.7874 152.763C53.377 152.605 57.0747 152.763 60.671 152.816L87.035 152.935C87.9679 152.935 87.9679 153.998 87.035 153.991L51.376 153.826C49.6928 153.826 48.4895 153.826 47.8338 155.258C47.2659 156.499 47.4282 159.04 49.7333 159.324C49.9967 159.34 50.2609 159.34 50.5242 159.324L62.4083 159.377L87.0282 159.489C87.9679 159.489 87.9611 160.551 87.0282 160.545L87.0215 160.551Z" fill="#263238" stroke="#263238" stroke-linecap="round" stroke-linejoin="round"/>
<path d="M91.0572 175.421L91.0167 183.44C91.8819 183.44 91.8752 184.978 91.0167 184.978C88.3127 184.978 85.6425 184.978 82.9587 184.978L83.0128 173.844L91.0707 173.883C91.936 173.89 91.936 175.421 91.0572 175.421Z" fill="#5C5C5C" stroke="#263238" stroke-linecap="round" stroke-linejoin="round"/>
<path d="M84.7896 175.389L84.751 183.401L91.0107 183.43L91.0493 175.418L84.7896 175.389Z" fill="#BFBFBF" stroke="#263238" stroke-linecap="round" stroke-linejoin="round"/>
<path d="M86.1156 174.63L51.572 174.471C50.0781 174.471 48.868 176.596 48.868 179.236C48.868 181.876 50.0578 184.021 51.572 184.028L86.1156 184.186V174.63Z" fill="white" stroke="#263238" stroke-linecap="round" stroke-linejoin="round"/>
<path d="M86.1156 174.63L51.572 174.471C50.0781 174.471 48.868 176.596 48.868 179.236C48.868 181.876 50.0578 184.021 51.572 184.028L86.1156 184.186V174.63Z" fill="#BFBFBF" stroke="#263238" stroke-linecap="round" stroke-linejoin="round"/>
<path d="M86.0616 184.952C78.9636 184.919 59.0216 184.952 51.8965 184.793C47.0361 184.675 46.8265 174.049 51.5991 173.699C54.925 173.455 58.3591 173.732 61.6783 173.745L86.1157 173.864C86.9877 173.864 86.9809 175.402 86.1157 175.395L53.0728 175.243C51.518 175.243 50.3688 175.243 49.7874 177.342C49.2601 179.15 49.4088 182.846 51.5382 183.282C51.781 183.305 52.0255 183.305 52.2683 183.282L63.2804 183.335L86.0751 183.44C86.9471 183.44 86.9404 184.978 86.0751 184.972L86.0616 184.952Z" fill="#5C5C5C" stroke="#263238" stroke-linecap="round" stroke-linejoin="round"/>
<path d="M95.0119 187.651L94.9646 197.195C95.9921 197.195 95.9853 199.029 94.9646 199.023C91.7739 199.023 88.5764 199.023 85.3789 199.023L85.4465 185.77L95.0322 185.816C96.0529 185.829 96.0462 187.658 95.0119 187.651Z" fill="#BFBFBF" stroke="#263238" stroke-linecap="round" stroke-linejoin="round"/>
<path d="M87.5603 187.624L87.5143 197.155L94.9637 197.189L95.0097 187.659L87.5603 187.624Z" fill="white" stroke="#263238" stroke-linecap="round" stroke-linejoin="round"/>
<path d="M89.1307 186.708L47.9961 186.516C46.225 186.516 44.7716 189.051 44.758 192.192C44.7445 195.334 46.1641 197.888 47.942 197.895L89.0495 198.086L89.1307 186.708Z" fill="white" stroke="#263238" stroke-linecap="round" stroke-linejoin="round"/>
<path d="M89.1307 186.708L47.9961 186.516C46.225 186.516 44.7716 189.051 44.758 192.192C44.7445 195.334 46.1641 197.888 47.942 197.895L89.0495 198.086L89.1307 186.708Z" fill="white" stroke="#263238" stroke-linecap="round" stroke-linejoin="round"/>
<path d="M89.0698 198.997C80.6198 198.957 56.8584 198.997 48.4152 198.812C42.6219 198.66 42.3717 186.021 48.0569 185.612C52.0115 185.321 56.081 185.651 60.0491 185.665L89.1171 185.803C90.1447 185.803 90.1379 187.638 89.1171 187.631L49.801 187.44C47.9487 187.44 46.6238 187.44 45.8937 189.935C45.265 192.093 45.4408 196.489 47.9758 196.977C48.2636 197.003 48.5533 197.003 48.8411 196.977L61.9487 197.036L89.0766 197.162C90.1109 197.162 90.1041 198.997 89.0766 198.99L89.0698 198.997Z" fill="#BFBFBF" stroke="#263238" stroke-linecap="round" stroke-linejoin="round"/>
<path d="M88.2788 150.586C85.4937 152.691 82.0123 152.744 78.8824 152.071C80.0445 151.783 81.1332 151.264 82.0799 150.546L81.9244 150.203C86.0818 150.454 87.4136 148.705 87.4136 148.705L87.711 149.365L88.2788 150.586Z" fill="white" stroke="#263238" stroke-linecap="round" stroke-linejoin="round"/>
<path d="M82.0732 150.54C81.1264 151.258 80.0378 151.777 78.8757 152.064C76.5325 151.528 74.2744 150.684 72.163 149.556L72.0211 149.477C71.1287 149.002 70.6015 148.659 70.6015 148.659C70.5001 148.777 70.3987 148.883 70.2973 148.989C69.7228 149.608 69.0762 150.159 68.3707 150.632C65.2273 152.704 61.6107 152.645 58.785 152.044C57.0868 151.68 55.4424 151.108 53.8907 150.342C55.1587 150.418 56.4312 150.302 57.6628 149.998C59.271 150.418 60.9494 150.517 62.5976 150.289C63.6948 150.129 64.7669 149.834 65.7883 149.411C66.6004 149.077 67.3789 148.671 68.1138 148.197C68.9263 147.684 69.6789 147.087 70.3581 146.415C73.1248 147.907 76.079 149.041 79.1461 149.787H79.2002C80.0903 149.983 80.9942 150.113 81.9042 150.177L82.0732 150.54Z" fill="white" stroke="#263238" stroke-linecap="round" stroke-linejoin="round"/>
<path d="M82.0732 150.539C81.1265 151.257 80.0378 151.776 78.8757 152.064C75.2794 152.995 71.2504 151.859 68.3639 150.638C67.3364 150.209 66.4508 149.774 65.7816 149.417C64.9096 148.942 64.4296 148.619 64.4296 148.619C63.8894 149.24 63.282 149.802 62.6179 150.295C61.4851 151.129 60.1902 151.729 58.812 152.057C53.1945 153.377 47.4485 150.163 47.4485 150.163L48.0163 148.592C49.8256 149.599 51.8413 150.201 53.9178 150.355C55.1858 150.431 56.4582 150.315 57.6899 150.011C60.1535 149.387 62.4026 148.134 64.2065 146.381C65.6329 147.114 66.9511 147.701 68.1611 148.203C68.7087 148.427 69.2292 148.625 69.7294 148.804H69.8038L70.3243 148.975C71.0003 149.193 71.6155 149.384 72.1968 149.536C75.5768 150.414 77.855 150.196 79.2408 149.78L79.5044 149.688H79.5855C80.2201 149.492 80.7896 149.135 81.235 148.652L81.4175 149.054L81.938 150.196L82.0732 150.539Z" fill="white" stroke="#263238" stroke-linecap="round" stroke-linejoin="round"/>
<path d="M87.4069 148.698C87.4069 148.698 86.0549 150.447 81.9178 150.196L81.3972 149.054C81.3161 149.054 80.5252 149.391 79.6937 149.648L79.5653 149.688H79.4842L79.1664 149.767C78.1051 150.025 75.7864 150.374 72.0346 149.457C71.4871 149.332 70.9125 149.167 70.3108 148.969L69.7836 148.804H69.7092C69.2022 148.625 68.6682 148.434 68.1206 148.21C66.7751 147.673 65.4615 147.062 64.1863 146.381L70.3852 146.421C73.9509 147.306 77.5611 148.011 81.2012 148.533C83.6686 148.856 85.9738 148.988 87.4069 148.698Z" fill="#263238" stroke="#263238" stroke-linecap="round" stroke-linejoin="round"/>
<path d="M82.08 150.546C84.0929 151.181 86.2577 151.195 88.2789 150.585L87.4069 148.698C87.4069 148.698 86.2847 149.972 81.3905 149.054L82.08 150.546Z" fill="white" stroke="#263238" stroke-linecap="round" stroke-linejoin="round"/>
<path d="M254.095 196.825C250.715 199.366 246.551 199.432 242.779 198.614C244.176 198.27 245.486 197.648 246.625 196.785L246.429 196.37C251.445 196.673 253.047 194.568 253.047 194.568L253.399 195.34L254.095 196.825Z" fill="white" stroke="#263238" stroke-linecap="round" stroke-linejoin="round"/>
<path d="M246.625 196.773C245.486 197.637 244.177 198.261 242.779 198.607C239.947 197.962 237.218 196.945 234.667 195.585C234.606 195.585 234.552 195.519 234.498 195.492C233.423 194.918 232.787 194.509 232.787 194.509C232.659 194.654 232.537 194.779 232.416 194.905C231.728 195.654 230.949 196.319 230.097 196.885C226.318 199.386 221.985 199.314 218.551 198.594C216.502 198.157 214.518 197.465 212.649 196.535C214.178 196.631 215.714 196.493 217.199 196.126C219.133 196.632 221.152 196.751 223.134 196.476C224.461 196.281 225.757 195.926 226.994 195.42C227.967 195.014 228.901 194.526 229.786 193.961C230.763 193.342 231.67 192.623 232.49 191.816C235.822 193.611 239.378 194.978 243.069 195.882C243.089 195.875 243.111 195.875 243.13 195.882C244.198 196.121 245.283 196.28 246.375 196.357L246.625 196.773Z" fill="white" stroke="#263238" stroke-linecap="round" stroke-linejoin="round"/>
<path d="M227.008 195.426C225.771 195.932 224.474 196.287 223.148 196.482C223.955 195.894 224.69 195.216 225.338 194.462C225.338 194.462 225.953 194.858 227.008 195.426Z" fill="#263238" stroke="#263238" stroke-linecap="round" stroke-linejoin="round"/>
<path d="M246.625 196.772C245.486 197.636 244.177 198.261 242.779 198.607C238.446 199.729 233.592 198.356 230.11 196.884C228.88 196.376 227.812 195.848 227.008 195.419C225.953 194.852 225.338 194.456 225.338 194.456C224.69 195.209 223.955 195.887 223.148 196.475C221.785 197.48 220.225 198.201 218.564 198.594C211.804 200.198 204.875 196.31 204.875 196.31L205.551 194.416C207.727 195.634 210.155 196.358 212.656 196.535C214.185 196.631 215.72 196.493 217.206 196.125C220.173 195.372 222.881 193.862 225.054 191.75C226.778 192.634 228.36 193.353 229.82 193.947C230.496 194.218 231.104 194.456 231.706 194.667L231.8 194.706L232.422 194.911C233.22 195.175 233.977 195.399 234.68 195.571C238.797 196.627 241.494 196.389 243.171 195.861C243.276 195.832 243.38 195.797 243.482 195.756L243.583 195.723C244.345 195.487 245.029 195.056 245.564 194.475L245.787 194.964L246.416 196.337L246.625 196.772Z" fill="white" stroke="#263238" stroke-linecap="round" stroke-linejoin="round"/>
<path d="M254.102 196.825C251.664 197.56 249.053 197.543 246.625 196.779L245.794 194.984C245.706 195.023 244.753 195.38 243.766 195.697L243.61 195.743L243.509 195.776L243.137 195.875C241.853 196.185 239.02 196.601 234.538 195.499C233.862 195.34 233.186 195.149 232.456 194.911L231.827 194.713L231.733 194.674C231.118 194.462 230.482 194.231 229.82 193.967C228.202 193.315 226.623 192.577 225.088 191.756L232.558 191.809C236.862 192.873 241.219 193.723 245.611 194.357C248.565 194.74 251.337 194.905 253.047 194.548L254.102 196.825Z" fill="white" stroke="#263238" stroke-linecap="round" stroke-linejoin="round"/>
<path d="M246.605 193.38C245.465 194.243 244.156 194.867 242.758 195.215C238.425 196.337 233.572 194.964 230.09 193.492C228.86 192.977 227.792 192.456 226.987 192.027C225.94 191.453 225.324 191.063 225.324 191.063C224.673 191.814 223.939 192.491 223.134 193.083C221.769 194.088 220.206 194.809 218.544 195.202C211.784 196.805 204.855 192.918 204.855 192.918L205.531 191.024C207.709 192.236 210.136 192.959 212.636 193.142C214.163 193.239 215.696 193.101 217.179 192.733C220.148 191.981 222.859 190.471 225.034 188.357C226.751 189.242 228.333 189.961 229.766 190.555C230.442 190.819 231.05 191.063 231.659 191.275L231.746 191.308L232.375 191.519C233.173 191.783 233.923 192.007 234.633 192.179C238.75 193.235 241.447 192.997 243.117 192.469L243.434 192.364L243.536 192.331C244.297 192.092 244.98 191.662 245.517 191.083L245.74 191.572L246.368 192.938L246.605 193.38Z" fill="white" stroke="#263238" stroke-linecap="round" stroke-linejoin="round"/>
<path d="M253.027 191.129C253.027 191.129 251.425 193.235 246.416 192.931L245.787 191.558C245.692 191.598 244.739 191.954 243.759 192.271C243.707 192.279 243.657 192.295 243.61 192.317L243.509 192.35L243.13 192.443C241.846 192.753 239.013 193.169 234.531 192.073C233.855 191.915 233.179 191.717 232.456 191.486L231.821 191.281L231.733 191.248C231.118 191.037 230.482 190.806 229.82 190.542C228.202 189.891 226.622 189.153 225.088 188.331L232.524 188.384C236.828 189.447 241.185 190.298 245.577 190.931C248.525 191.321 251.303 191.486 253.027 191.129Z" fill="#263238" stroke="#263238" stroke-linecap="round" stroke-linejoin="round"/>
<path d="M246.605 193.38C249.031 194.143 251.639 194.159 254.075 193.426L253.027 191.149C253.027 191.149 251.675 192.687 245.78 191.585L246.605 193.38Z" fill="white" stroke="#263238" stroke-linecap="round" stroke-linejoin="round"/>
<path d="M105.247 76.0649L102.177 77.6159L100.751 76.9559L105.524 74.5469L105.247 76.0649Z" fill="white" stroke="#263238" stroke-linecap="round" stroke-linejoin="round"/>
<path d="M103.523 61.5977C103.975 62.4581 104.236 63.402 104.288 64.3677C104.34 65.3333 104.183 66.2989 103.827 67.2011C103.583 67.7953 103.471 68.4333 103.499 69.0727C103.527 69.7122 103.694 70.3386 103.989 70.9103L104.232 71.3723L98.7704 74.1311L98.527 73.6691C98.2202 73.1046 97.7939 72.6102 97.2764 72.2187C96.759 71.8273 96.1622 71.5478 95.5256 71.3987C94.1109 71.0473 92.8429 70.2754 91.8971 69.1898C90.9512 68.1042 90.3742 66.7585 90.2458 65.3388C90.1174 63.9191 90.4439 62.4955 91.1803 61.2649C91.9166 60.0342 93.0264 59.0574 94.3561 58.4693C96.0052 57.7561 97.8705 57.6826 99.5731 58.2637C101.276 58.8447 102.688 60.0368 103.523 61.5977Z" fill="white" stroke="#263238" stroke-linecap="round" stroke-linejoin="round"/>
<path opacity="0.9" d="M103.523 61.5977C103.975 62.4581 104.236 63.402 104.288 64.3677C104.34 65.3333 104.183 66.2989 103.827 67.2011C103.583 67.7953 103.471 68.4333 103.499 69.0727C103.527 69.7122 103.694 70.3386 103.989 70.9103L104.232 71.3723L98.7704 74.1311L98.527 73.6691C98.2202 73.1046 97.7939 72.6102 97.2764 72.2187C96.759 71.8273 96.1622 71.5478 95.5256 71.3987C94.1109 71.0473 92.8429 70.2754 91.8971 69.1898C90.9512 68.1042 90.3742 66.7585 90.2458 65.3388C90.1174 63.9191 90.4439 62.4955 91.1803 61.2649C91.9166 60.0342 93.0264 59.0574 94.3561 58.4693C96.0052 57.7561 97.8705 57.6826 99.5731 58.2637C101.276 58.8447 102.688 60.0368 103.523 61.5977Z" fill="#FCBD1A" stroke="#263238" stroke-linecap="round" stroke-linejoin="round"/>
<path d="M102.691 71.9928L102.286 72.105L100.751 66.8118L100.291 68.6532L98.8245 67.7028L98.7772 69.4254L96.9723 68.7192L100.508 73.0026L100.177 73.26L95.5392 67.6434L95.8637 67.3794L96.6681 68.1582L98.3716 68.8182L98.4257 66.9438L100.028 67.98L100.454 66.2442L100.271 65.1618L100.684 65.043L102.691 71.9928Z" fill="#1865F2"/>
<path d="M104.145 71.2075L105.889 74.5009L100.44 77.2795L98.696 73.9861L104.145 71.2075Z" fill="#1865F2" stroke="#263238" stroke-linecap="round" stroke-linejoin="round"/>
<path d="M225.57 62.368L225.946 62.8434C226.151 63.1024 226.242 63.4304 226.2 63.755C226.157 64.0797 225.984 64.3745 225.718 64.5746L217.72 70.6058L215.803 68.1821L223.801 62.1509C224.066 61.9515 224.4 61.8624 224.732 61.9031C225.063 61.9438 225.365 62.111 225.57 62.368Z" fill="white" stroke="#263238" stroke-linecap="round" stroke-linejoin="round"/>
<path d="M225.57 62.368L225.946 62.8434C226.151 63.1024 226.242 63.4304 226.2 63.755C226.157 64.0797 225.984 64.3745 225.718 64.5746L217.72 70.6058L215.803 68.1821L223.801 62.1509C224.066 61.9515 224.4 61.8624 224.732 61.9031C225.063 61.9438 225.365 62.111 225.57 62.368Z" fill="#263238" stroke="#263238" stroke-linecap="round" stroke-linejoin="round"/>
<path d="M219.654 72.5966L217.019 71.3691L204.772 96.4365L207.408 97.6639L219.654 72.5966Z" fill="#263238" stroke="#263238" stroke-linecap="round" stroke-linejoin="round"/>
<path d="M212.571 69.3051L209.935 68.0776L208.553 70.9072L211.189 72.1347L212.571 69.3051Z" fill="#1865F2" stroke="#263238" stroke-linecap="round" stroke-linejoin="round"/>
<path d="M215.522 65.5921L213.417 64.6118L211.394 68.752L213.499 69.7323L215.522 65.5921Z" fill="white" stroke="#263238" stroke-linecap="round" stroke-linejoin="round"/>
<path d="M215.522 65.5921L213.417 64.6118L211.394 68.752L213.499 69.7323L215.522 65.5921Z" fill="white" stroke="#263238" stroke-linecap="round" stroke-linejoin="round"/>
<path d="M222.938 74.1378L213.474 69.7422L215.502 65.604L223.04 71.28C223.309 71.4841 223.499 71.7722 223.578 72.0964C223.657 72.4207 223.619 72.7614 223.472 73.062L222.938 74.1378Z" fill="white" stroke="#263238" stroke-linecap="round" stroke-linejoin="round"/>
<path d="M210.804 73.9858L208.478 71.2072C208.452 71.181 208.436 71.1462 208.434 71.1095C208.432 71.0727 208.443 71.0364 208.466 71.0073C208.49 70.9783 208.523 70.9584 208.56 70.9515C208.597 70.9445 208.635 70.9509 208.668 70.9696L215.556 74.1706C215.591 74.1852 215.619 74.211 215.636 74.2436C215.653 74.2763 215.658 74.3136 215.65 74.3494C215.642 74.3852 215.622 74.4172 215.592 74.44C215.563 74.4627 215.526 74.4748 215.489 74.4742H211.811C211.617 74.4681 211.427 74.4214 211.253 74.3371C211.079 74.2528 210.926 74.133 210.804 73.9858Z" fill="white" stroke="#263238" stroke-linecap="round" stroke-linejoin="round"/>
<path d="M209.599 74.3331L208.944 75.6734C208.6 76.3775 208.906 77.2205 209.627 77.5563L209.707 77.5932C210.428 77.9291 211.291 77.6305 211.635 76.9265L212.29 75.5861C212.634 74.8821 212.328 74.0391 211.607 73.7033L211.528 73.6663C210.807 73.3305 209.943 73.629 209.599 74.3331Z" fill="white" stroke="#263238" stroke-linecap="round" stroke-linejoin="round"/>
<path d="M209.599 74.3331L208.944 75.6734C208.6 76.3775 208.906 77.2205 209.627 77.5563L209.707 77.5932C210.428 77.9291 211.291 77.6305 211.635 76.9265L212.29 75.5861C212.634 74.8821 212.328 74.0391 211.607 73.7033L211.528 73.6663C210.807 73.3305 209.943 73.629 209.599 74.3331Z" fill="#263238" stroke="#263238" stroke-linecap="round" stroke-linejoin="round"/>
<path d="M207.628 72.1731L206.497 73.1667C205.904 73.6887 205.856 74.5817 206.39 75.1614L206.449 75.2252C206.984 75.8049 207.898 75.8517 208.492 75.3297L209.622 74.3361C210.216 73.8141 210.264 72.9211 209.729 72.3414L209.671 72.2776C209.136 71.6979 208.221 71.6511 207.628 72.1731Z" fill="white" stroke="#263238" stroke-linecap="round" stroke-linejoin="round"/>
<path d="M212.257 75.5612L212.177 77.0441C212.136 77.8231 212.748 78.4877 213.546 78.5285L213.634 78.533C214.432 78.5738 215.113 77.9754 215.154 77.1965L215.234 75.7135C215.276 74.9345 214.663 74.2699 213.865 74.2291L213.777 74.2246C212.98 74.1838 212.299 74.7822 212.257 75.5612Z" fill="white" stroke="#263238" stroke-linecap="round" stroke-linejoin="round"/>
<path d="M207.397 97.6798L216.32 101.831C216.503 101.915 216.702 101.958 216.904 101.957C217.106 101.955 217.305 101.91 217.486 101.824C217.668 101.738 217.827 101.613 217.953 101.459C218.079 101.305 218.167 101.126 218.213 100.934L224.108 75.8536C224.179 75.5514 224.143 75.2346 224.005 74.9551C223.868 74.6757 223.637 74.4502 223.35 74.3158L212.568 69.2998L211.216 72.1246L218.294 75.4246L207.397 97.6798Z" fill="#1865F2" stroke="#263238" stroke-linecap="round" stroke-linejoin="round"/>
<path d="M208.613 83.335L197.923 78.3569L196.93 80.3883L207.62 85.3664L208.613 83.335Z" fill="white" stroke="#263238" stroke-linecap="round" stroke-linejoin="round"/>
<path d="M219.303 88.3126L208.613 83.3345L207.621 85.3658L218.31 90.3439L219.303 88.3126Z" fill="white" stroke="#263238" stroke-linecap="round" stroke-linejoin="round"/>
<path d="M208.613 83.335L197.923 78.3569L196.93 80.3883L207.62 85.3664L208.613 83.335Z" fill="white" stroke="#263238" stroke-linecap="round" stroke-linejoin="round"/>
<g opacity="0.9">
<path d="M131.933 90.2052C132.542 89.8422 131.933 88.2912 131.257 87.0042C132.481 86.1726 133.752 85.0704 133.387 84.4764C133.022 83.8824 131.426 84.4764 130.108 85.1364C129.256 83.9484 128.127 82.701 127.519 83.064C126.911 83.427 127.519 84.9714 128.195 86.2584C126.971 87.09 125.694 88.1922 126.066 88.7862C126.437 89.3802 128.026 88.7862 129.344 88.1262C130.196 89.3208 131.325 90.555 131.933 90.2052ZM132.974 84.7074C133.042 84.8922 132.4 85.671 131.021 86.6148C130.912 86.4168 130.798 86.232 130.696 86.0604L130.345 85.5192C131.839 84.7668 132.839 84.5622 132.974 84.7074ZM130.081 87.255C129.878 87.3738 129.682 87.486 129.493 87.585C129.371 87.4134 129.249 87.2286 129.128 87.0306C129.006 86.8326 128.891 86.6412 128.79 86.4564C128.972 86.3376 129.162 86.2188 129.364 86.1C129.567 85.9812 129.756 85.869 129.953 85.7634L130.318 86.3244C130.439 86.5224 130.547 86.7138 130.656 86.8986C130.466 86.9844 130.277 87.1032 130.081 87.255ZM127.735 83.493C127.925 83.427 128.722 84.054 129.696 85.4004C129.493 85.506 129.304 85.6182 129.128 85.7238C128.952 85.8294 128.77 85.9416 128.574 86.067C127.789 84.5754 127.587 83.592 127.729 83.46L127.735 83.493ZM126.451 88.575C126.39 88.3902 127.032 87.6114 128.405 86.661L128.736 87.2154C128.844 87.387 128.959 87.5718 129.087 87.7566C127.593 88.5222 126.586 88.7202 126.451 88.575ZM129.743 87.915L130.311 87.5916L130.865 87.2484C131.636 88.707 131.845 89.6904 131.703 89.8224C131.561 89.9544 130.71 89.235 129.743 87.915Z" fill="white"/>
<path opacity="0.5" d="M131.933 90.2052C132.542 89.8422 131.933 88.2912 131.257 87.0042C132.481 86.1726 133.752 85.0704 133.387 84.4764C133.022 83.8824 131.426 84.4764 130.108 85.1364C129.256 83.9484 128.127 82.701 127.519 83.064C126.911 83.427 127.519 84.9714 128.195 86.2584C126.971 87.09 125.694 88.1922 126.066 88.7862C126.437 89.3802 128.026 88.7862 129.344 88.1262C130.196 89.3208 131.325 90.555 131.933 90.2052ZM132.974 84.7074C133.042 84.8922 132.4 85.671 131.021 86.6148C130.912 86.4168 130.798 86.232 130.696 86.0604L130.345 85.5192C131.839 84.7668 132.839 84.5622 132.974 84.7074ZM130.081 87.255C129.878 87.3738 129.682 87.486 129.493 87.585C129.371 87.4134 129.249 87.2286 129.128 87.0306C129.006 86.8326 128.891 86.6412 128.79 86.4564C128.972 86.3376 129.162 86.2188 129.364 86.1C129.567 85.9812 129.756 85.869 129.953 85.7634L130.318 86.3244C130.439 86.5224 130.547 86.7138 130.656 86.8986C130.466 86.9844 130.277 87.1032 130.081 87.255ZM127.735 83.493C127.925 83.427 128.722 84.054 129.696 85.4004C129.493 85.506 129.304 85.6182 129.128 85.7238C128.952 85.8294 128.77 85.9416 128.574 86.067C127.789 84.5754 127.587 83.592 127.729 83.46L127.735 83.493ZM126.451 88.575C126.39 88.3902 127.032 87.6114 128.405 86.661L128.736 87.2154C128.844 87.387 128.959 87.5718 129.087 87.7566C127.593 88.5222 126.586 88.7202 126.451 88.575ZM129.743 87.915L130.311 87.5916L130.865 87.2484C131.636 88.707 131.845 89.6904 131.703 89.8224C131.561 89.9544 130.71 89.235 129.743 87.915Z" fill="white"/>
<path d="M130.216 87.4396C130.604 87.5143 130.997 87.5584 131.392 87.5716C131.974 87.5716 132.285 87.4792 132.339 87.268C132.44 86.8522 131.419 86.4232 130.534 86.1592C130.696 85.2682 130.777 84.1792 130.351 84.0868C130.135 84.034 129.905 84.2518 129.642 84.7468C129.47 85.0937 129.328 85.4535 129.216 85.8226C128.31 85.6642 127.188 85.585 127.093 86.0008C127.085 86.0383 127.085 86.0771 127.093 86.1147C127.101 86.1522 127.117 86.1877 127.14 86.2186C127.632 86.667 128.24 86.9751 128.898 87.1096C128.718 87.7423 128.718 88.4108 128.898 89.0434C128.916 89.0773 128.94 89.1071 128.971 89.131C129.001 89.1549 129.036 89.1723 129.074 89.182C129.5 89.3008 129.939 88.3042 130.216 87.4396ZM132.102 87.1558C132.107 87.165 132.109 87.1752 132.109 87.1855C132.109 87.1958 132.107 87.206 132.102 87.2152C132.102 87.2548 131.94 87.3604 131.379 87.3472C131.004 87.3387 130.631 87.299 130.263 87.2284C130.311 87.0766 130.351 86.9314 130.385 86.806C130.419 86.6806 130.446 86.5288 130.48 86.377C131.082 86.4973 131.642 86.7653 132.109 87.1558H132.102ZM130.074 87.1888L129.621 87.0964L129.175 86.9776C129.175 86.8324 129.236 86.6872 129.277 86.5354C129.317 86.3836 129.351 86.2384 129.391 86.0932L129.851 86.1922L130.297 86.311C130.297 86.4496 130.236 86.5948 130.196 86.7532C130.155 86.9116 130.081 87.0502 130.081 87.1888H130.074ZM129.865 84.859C130.115 84.3706 130.284 84.2914 130.324 84.298L130.372 84.3376C130.509 84.9166 130.497 85.5197 130.338 86.0932C130.182 86.047 130.034 86.0074 129.898 85.981L129.459 85.882C129.563 85.5328 129.692 85.191 129.844 84.859H129.865ZM127.336 86.0734C127.336 85.9414 128.012 85.8556 129.175 86.0734C129.128 86.212 129.094 86.3572 129.053 86.5024C129.013 86.6476 128.993 86.7796 128.959 86.9314C127.837 86.5948 127.282 86.1988 127.316 86.0734H127.336ZM129.148 88.9906C129.02 88.9906 128.932 88.3306 129.148 87.1888L129.581 87.3076L130.027 87.4C129.648 88.4824 129.263 89.017 129.128 88.9906H129.148Z" fill="white"/>
<path d="M183.573 98.0396C183.879 97.7949 184.166 97.528 184.431 97.241C184.817 96.812 184.938 96.515 184.803 96.3368C184.546 95.9936 183.553 96.482 182.775 96.9968C182.187 96.3368 181.389 95.5382 181.038 95.7956C180.855 95.921 180.876 96.2378 181.112 96.7592C181.272 97.1128 181.462 97.4528 181.68 97.7756C180.97 98.3498 180.193 99.0956 180.45 99.4718C180.473 99.5034 180.504 99.5298 180.539 99.5491C180.574 99.5685 180.613 99.5803 180.653 99.584C181.318 99.5019 181.948 99.2465 182.478 98.8448C182.964 99.4124 183.586 100.033 183.992 100.092C184.03 100.1 184.07 100.1 184.109 100.093C184.147 100.085 184.183 100.069 184.215 100.046C184.573 99.7952 184.073 98.7986 183.573 98.0396ZM184.567 96.4424C184.567 96.4424 184.614 96.4424 184.621 96.4424C184.627 96.4424 184.621 96.6602 184.262 97.1024C184.012 97.3746 183.74 97.6283 183.451 97.8614L183.194 97.4984L182.917 97.1486C183.399 96.7847 183.966 96.5422 184.567 96.4424ZM183.275 97.9934L182.904 98.2706L182.525 98.528C182.43 98.4158 182.343 98.297 182.241 98.165L181.977 97.7954C182.092 97.703 182.214 97.6172 182.349 97.5182L182.728 97.2608C182.822 97.3708 182.917 97.4896 183.012 97.6172L183.275 97.9934ZM181.315 96.6734C181.092 96.1718 181.132 96.0134 181.166 95.9738C181.188 95.9662 181.212 95.9662 181.234 95.9738C181.774 96.2464 182.237 96.6427 182.586 97.1288L182.214 97.3796L181.856 97.6502C181.649 97.3301 181.468 96.9947 181.315 96.647V96.6734ZM180.639 99.3134C180.558 99.2012 180.923 98.6534 181.808 97.9274L182.065 98.2904L182.343 98.6402C181.362 99.254 180.713 99.4256 180.632 99.32L180.639 99.3134ZM184.093 99.8348C183.985 99.914 183.417 99.5576 182.674 98.693L183.046 98.4422L183.404 98.1716C184.019 99.1352 184.195 99.7952 184.087 99.8414L184.093 99.8348Z" fill="white"/>
<path d="M186.865 98.5342C186.973 97.8742 185.364 97.3066 183.911 96.9898C184.046 95.5444 184.012 93.8812 183.302 93.7756C182.593 93.67 182.045 95.2408 181.721 96.6598C180.24 96.5278 178.537 96.5608 178.429 97.2538C178.32 97.9468 179.929 98.4814 181.383 98.7982C181.247 100.244 181.281 101.907 181.991 102.012C182.701 102.118 183.248 100.547 183.573 99.1282C185.033 99.2602 186.737 99.2206 186.865 98.5342ZM183.235 94.2112C183.417 94.2772 183.613 95.2606 183.471 96.8974C183.242 96.8578 183.025 96.8182 182.795 96.7918L182.119 96.706C182.525 95.1022 183.019 94.2178 183.215 94.2112H183.235ZM183.336 97.9996C183.296 98.224 183.255 98.444 183.215 98.6596C182.998 98.6596 182.775 98.6068 182.539 98.5672L181.863 98.455C181.863 98.2438 181.917 98.026 181.957 97.795C181.998 97.564 182.032 97.3528 182.072 97.135L182.748 97.2208L183.424 97.3396C183.377 97.5508 183.35 97.7686 183.316 97.9996H183.336ZM178.875 97.3396C178.942 97.1614 179.95 96.97 181.633 97.1086C181.585 97.333 181.545 97.5442 181.518 97.7686C181.491 97.993 181.457 98.1778 181.43 98.4286C179.767 97.993 178.868 97.5112 178.854 97.3198L178.875 97.3396ZM182.059 101.597C181.876 101.531 181.68 100.547 181.822 98.9038C182.052 98.95 182.268 98.9896 182.498 99.016L183.174 99.1018C182.728 100.686 182.241 101.564 182.038 101.577L182.059 101.597ZM183.668 98.719C183.708 98.4946 183.749 98.2834 183.776 98.059C183.803 97.8346 183.837 97.6498 183.864 97.399C185.506 97.762 186.412 98.2372 186.419 98.4352C186.426 98.6332 185.324 98.8378 183.647 98.6992L183.668 98.719Z" fill="white"/>
<path opacity="0.5" d="M186.865 98.5342C186.973 97.8742 185.364 97.3066 183.911 96.9898C184.046 95.5444 184.012 93.8812 183.302 93.7756C182.593 93.67 182.045 95.2408 181.721 96.6598C180.24 96.5278 178.537 96.5608 178.429 97.2538C178.32 97.9468 179.929 98.4814 181.383 98.7982C181.247 100.244 181.281 101.907 181.991 102.012C182.701 102.118 183.248 100.547 183.573 99.1282C185.033 99.2602 186.737 99.2206 186.865 98.5342ZM183.235 94.2112C183.417 94.2772 183.613 95.2606 183.471 96.8974C183.242 96.8578 183.025 96.8182 182.795 96.7918L182.119 96.706C182.525 95.1022 183.019 94.2178 183.215 94.2112H183.235ZM183.336 97.9996C183.296 98.224 183.255 98.444 183.215 98.6596C182.998 98.6596 182.775 98.6068 182.539 98.5672L181.863 98.455C181.863 98.2438 181.917 98.026 181.957 97.795C181.998 97.564 182.032 97.3528 182.072 97.135L182.748 97.2208L183.424 97.3396C183.377 97.5508 183.35 97.7686 183.316 97.9996H183.336ZM178.875 97.3396C178.942 97.1614 179.95 96.97 181.633 97.1086C181.585 97.333 181.545 97.5442 181.518 97.7686C181.491 97.993 181.457 98.1778 181.43 98.4286C179.767 97.993 178.868 97.5112 178.854 97.3198L178.875 97.3396ZM182.059 101.597C181.876 101.531 181.68 100.547 181.822 98.9038C182.052 98.95 182.268 98.9896 182.498 99.016L183.174 99.1018C182.728 100.686 182.241 101.564 182.038 101.577L182.059 101.597ZM183.668 98.719C183.708 98.4946 183.749 98.2834 183.776 98.059C183.803 97.8346 183.837 97.6498 183.864 97.399C185.506 97.762 186.412 98.2372 186.419 98.4352C186.426 98.6332 185.324 98.8378 183.647 98.6992L183.668 98.719Z" fill="white"/>
</g>
<path d="M171.774 115.991L169.773 108.076L172.978 100.621C173.293 100.67 173.618 100.613 173.899 100.458C174.18 100.304 174.402 100.061 174.528 99.7692C174.676 99.4228 174.679 99.0341 174.537 98.6885C174.396 98.3429 174.12 98.0686 173.771 97.926L171.376 96.9242C171.027 96.782 170.633 96.7831 170.281 96.9273C169.929 97.0715 169.648 97.347 169.499 97.6933C169.376 97.987 169.355 98.3118 169.439 98.6163C169.524 98.9208 169.709 99.1875 169.966 99.3744L166.767 106.827L159.582 110.989C159.27 111.168 159.014 111.429 158.843 111.742C158.671 112.054 158.591 112.407 158.61 112.76C158.63 113.114 158.749 113.453 158.955 113.741C159.16 114.029 159.443 114.254 159.772 114.39L169.154 118.221C169.483 118.354 169.844 118.394 170.196 118.337C170.549 118.279 170.879 118.126 171.151 117.895C171.423 117.663 171.625 117.363 171.735 117.027C171.845 116.69 171.858 116.332 171.774 115.991Z" fill="white" stroke="#263238" stroke-linecap="round" stroke-linejoin="round"/>
<path opacity="0.6" d="M171.774 115.991L169.773 108.076L172.978 100.621C173.293 100.67 173.618 100.613 173.899 100.458C174.18 100.304 174.402 100.061 174.528 99.7692C174.676 99.4228 174.679 99.0341 174.537 98.6885C174.396 98.3429 174.12 98.0686 173.771 97.926L171.376 96.9242C171.027 96.782 170.633 96.7831 170.281 96.9273C169.929 97.0715 169.648 97.347 169.499 97.6933C169.376 97.987 169.355 98.3118 169.439 98.6163C169.524 98.9208 169.709 99.1875 169.966 99.3744L166.767 106.827L159.582 110.989C159.27 111.168 159.014 111.429 158.843 111.742C158.671 112.054 158.591 112.407 158.61 112.76C158.63 113.114 158.749 113.453 158.955 113.741C159.16 114.029 159.443 114.254 159.772 114.39L169.154 118.221C169.483 118.354 169.844 118.394 170.196 118.337C170.549 118.279 170.879 118.126 171.151 117.895C171.423 117.663 171.625 117.363 171.735 117.027C171.845 116.69 171.858 116.332 171.774 115.991Z" fill="white" stroke="#263238" stroke-linecap="round" stroke-linejoin="round"/>
<path d="M170.781 115.127L170.059 112.142C169.968 112.321 168.577 111.99 166.942 111.401C165.308 110.811 164.064 110.191 164.137 109.994L161.184 111.658C161.013 111.753 160.871 111.889 160.774 112.051C160.677 112.212 160.629 112.393 160.635 112.572C160.642 112.75 160.702 112.921 160.81 113.063C160.917 113.206 161.068 113.315 161.244 113.378L169.323 116.287C169.499 116.352 169.694 116.368 169.887 116.334C170.079 116.3 170.261 116.217 170.412 116.095C170.564 115.973 170.678 115.817 170.742 115.643C170.806 115.47 170.818 115.287 170.776 115.114L170.781 115.127Z" fill="#FCBD1A" stroke="#263238" stroke-linecap="round" stroke-linejoin="round"/>
<path d="M195.744 124.405C195.849 124.577 194.857 125.652 193.534 126.802C192.211 127.953 191.054 128.747 190.942 128.568C190.829 128.39 191.829 127.321 193.152 126.171C194.475 125.021 195.644 124.212 195.744 124.405Z" fill="#263238" stroke="#263238" stroke-linecap="round" stroke-linejoin="round"/>
<path d="M234.248 112.108C234.265 112.421 234.217 112.734 234.106 113.028C233.994 113.322 233.823 113.591 233.601 113.818C233.379 114.045 233.112 114.225 232.817 114.348C232.521 114.47 232.203 114.532 231.882 114.53C231.555 114.563 231.227 114.495 230.943 114.335C230.658 114.175 230.433 113.931 230.3 113.639L229.82 115.995H229.259L230.394 110.418H230.935L230.8 111.078C231.005 110.86 231.256 110.687 231.537 110.573C231.817 110.459 232.119 110.406 232.422 110.418C232.659 110.398 232.897 110.428 233.122 110.505C233.346 110.581 233.551 110.703 233.723 110.863C233.896 111.023 234.032 111.216 234.122 111.43C234.212 111.645 234.255 111.876 234.248 112.108ZM233.68 112.108C233.693 111.933 233.666 111.758 233.602 111.595C233.538 111.431 233.438 111.283 233.309 111.162C233.18 111.04 233.025 110.948 232.856 110.891C232.686 110.835 232.506 110.815 232.328 110.834C232.078 110.836 231.831 110.888 231.603 110.987C231.375 111.086 231.169 111.229 231 111.409C230.831 111.588 230.701 111.8 230.619 112.03C230.537 112.26 230.504 112.505 230.523 112.748C230.511 112.922 230.538 113.096 230.603 113.258C230.667 113.42 230.767 113.567 230.896 113.687C231.025 113.808 231.18 113.899 231.349 113.954C231.518 114.01 231.698 114.028 231.875 114.008C232.121 114.007 232.364 113.957 232.589 113.861C232.814 113.765 233.018 113.626 233.186 113.451C233.355 113.277 233.486 113.071 233.571 112.845C233.655 112.62 233.692 112.38 233.68 112.141V112.108Z" fill="white"/>
<path d="M235.133 110.662H238.581V111.118H235.133V110.662ZM235.133 112.451H238.581V112.906H235.133V112.451Z" fill="white"/>
<path d="M246.517 118.312H243.414L242.454 119.764H241.819L245.469 114.338H246.064L247.49 119.764H246.902L246.517 118.312ZM246.402 117.85L245.652 114.919L243.718 117.85H246.402Z" fill="white"/>
<path d="M244.293 103.818L243.86 105.95H246.74L246.632 106.445H243.752L243.286 108.741H242.684L243.793 103.323H247.599L247.497 103.818H244.293Z" fill="white"/>
<path d="M241.805 111.751H245.767L245.692 112.127H241.724L241.805 111.751Z" fill="white"/>
<path d="M224.391 143.114C224.973 142.184 225.345 140.95 224.743 140.032C224.141 139.115 222.715 138.93 221.485 138.917C222.431 137.306 221.559 135.049 219.876 134.185C219.009 133.798 218.048 133.66 217.104 133.789C216.16 133.918 215.274 134.307 214.549 134.911C213.115 136.157 212.199 137.874 211.973 139.735C211.689 141.537 212.075 142.87 213.636 143.887C214.758 144.619 215.279 145.622 216.286 146.395C218.76 148.302 223.08 145.2 224.391 143.114Z" fill="#F46A37" stroke="#263238" stroke-linecap="round" stroke-linejoin="round"/>
<path d="M221.153 139.22C221.377 138.976 223.857 136.62 224.006 136.792C224.189 136.968 224.427 137.082 224.682 137.115" fill="white"/>
<path d="M221.153 139.22C221.377 138.976 223.857 136.62 224.006 136.792C224.189 136.968 224.427 137.082 224.682 137.115" stroke="#263238" stroke-linecap="round" stroke-linejoin="round"/>
<path d="M224.696 137.656C225.325 137.713 225.946 137.837 226.548 138.026C226.057 138.487 225.465 138.832 224.817 139.036C224.493 139.114 224.156 139.121 223.829 139.057C223.502 138.993 223.193 138.86 222.925 138.666C221.938 137.94 224.256 137.63 224.696 137.656Z" fill="#263238" stroke="#263238" stroke-linecap="round" stroke-linejoin="round"/>
<path d="M219.572 135.61C219.547 135.524 219.501 135.445 219.439 135.38C219.377 135.315 219.3 135.265 219.214 135.235C219.128 135.204 219.036 135.194 218.945 135.206C218.855 135.217 218.768 135.249 218.693 135.3C218.619 135.359 218.563 135.436 218.529 135.523C218.495 135.61 218.484 135.704 218.498 135.797C218.512 135.889 218.55 135.976 218.609 136.049C218.668 136.123 218.745 136.18 218.833 136.216C218.921 136.252 219.017 136.265 219.111 136.254C219.206 136.243 219.296 136.209 219.373 136.154C219.45 136.099 219.512 136.025 219.551 135.941C219.591 135.856 219.607 135.762 219.599 135.67L219.572 135.61Z" fill="white" stroke="#263238" stroke-linecap="round" stroke-linejoin="round"/>
<path d="M216.773 135.445C215.029 135.293 213.467 138.224 213.278 139.438" stroke="#263238" stroke-linecap="round" stroke-linejoin="round"/>
<path d="M172.618 65.2967L172.286 64.8941C171.277 63.7022 170.019 62.7346 168.595 62.0561C167.122 61.3551 165.503 60.9938 163.863 61.0001C161.54 61.0145 159.281 61.7455 157.409 63.0885C155.537 64.4314 154.148 66.3177 153.439 68.4779C153.245 69.0505 153.098 69.6377 153 70.2335C153 70.4249 153 70.6097 153 70.8011C152.995 71.7616 153.222 72.7097 153.662 73.5686C154.103 74.4275 154.744 75.173 155.535 75.7445L155.92 75.4805C157.111 74.576 158.576 74.0838 160.085 74.0813L164.337 74.4311C164.557 74.3684 164.792 74.3684 165.013 74.4311C165.123 74.4644 165.236 74.4909 165.351 74.5103L165.844 74.5499C166.525 74.5428 167.181 74.3011 167.697 73.8676C168.212 73.4341 168.555 72.8365 168.663 72.1805C168.787 72.1871 168.911 72.1871 169.035 72.1805C169.616 72.1753 170.191 72.0581 170.726 71.8354C171.261 71.6128 171.745 71.2892 172.152 70.8832C172.558 70.4772 172.878 69.9969 173.094 69.4697C173.31 68.9425 173.417 68.3789 173.409 67.8113C173.412 66.9142 173.136 66.0371 172.618 65.2967Z" fill="white" stroke="#263238" stroke-linecap="round" stroke-linejoin="round"/>
<path d="M164.343 74.4245C164.097 74.4945 163.878 74.6347 163.715 74.8271C163.149 75.4761 162.445 75.9974 161.653 76.3552C160.86 76.713 159.998 76.8987 159.125 76.8995C157.833 76.9028 156.575 76.4951 155.542 75.7379L155.927 75.4739C157.118 74.5695 158.583 74.0773 160.091 74.0747L164.343 74.4245Z" fill="#F46A37" stroke="#263238" stroke-linecap="round" stroke-linejoin="round"/>
<path d="M163.911 74.6421L161.369 79.1301C161.318 79.2181 161.245 79.2914 161.156 79.3425C161.067 79.3935 160.965 79.4204 160.862 79.4205C160.778 79.4194 160.695 79.4008 160.618 79.366C160.542 79.3311 160.474 79.2809 160.419 79.2184C160.364 79.156 160.323 79.0829 160.299 79.004C160.275 78.925 160.269 78.842 160.281 78.7605L160.531 76.7475H160.619H160.673H160.767L161.159 76.6221L161.288 76.5759C161.464 76.5033 161.639 76.4307 161.808 76.3449L161.944 76.2723L162.227 76.1139L162.363 76.0347L162.498 75.9423L162.626 75.8565L162.734 75.7773L162.883 75.6651L163.005 75.5661C163.246 75.3626 163.472 75.142 163.681 74.9061" fill="#263238"/>
<path d="M163.911 74.6421L161.369 79.1301C161.318 79.2181 161.245 79.2914 161.156 79.3425C161.067 79.3935 160.965 79.4204 160.862 79.4205C160.778 79.4194 160.695 79.4008 160.618 79.366C160.542 79.3311 160.474 79.2809 160.419 79.2184C160.364 79.156 160.323 79.0829 160.299 79.004C160.275 78.925 160.269 78.842 160.281 78.7605L160.531 76.7475H160.619H160.673H160.767L161.159 76.6221L161.288 76.5759C161.464 76.5033 161.639 76.4307 161.808 76.3449L161.944 76.2723L162.227 76.1139L162.363 76.0347L162.498 75.9423L162.626 75.8565L162.734 75.7773L162.883 75.6651L163.005 75.5661C163.246 75.3626 163.472 75.142 163.681 74.9061" stroke="#263238" stroke-linecap="round" stroke-linejoin="round"/>
<path d="M160.335 68.966C160.659 68.966 167.412 68.2268 168.649 72.1736L160.335 68.966Z" fill="white"/>
<path d="M160.335 68.966C160.659 68.966 167.412 68.2268 168.649 72.1736" stroke="#263238" stroke-linecap="round" stroke-linejoin="round"/>
<path d="M162.559 61.1582C165.263 61.7324 164.289 65.6 164.316 65.633L162.559 61.1582Z" fill="white"/>
<path d="M162.559 61.1582C165.263 61.7324 164.289 65.6 164.316 65.633" stroke="#263238" stroke-linecap="round" stroke-linejoin="round"/>
<path d="M165.763 61.1055C165.392 61.166 165.051 61.3388 164.786 61.5994C164.522 61.86 164.348 62.1951 164.289 62.5575" fill="white"/>
<path d="M165.763 61.1055C165.392 61.166 165.051 61.3388 164.786 61.5994C164.522 61.86 164.348 62.1951 164.289 62.5575" stroke="#263238" stroke-linecap="round" stroke-linejoin="round"/>
<path d="M158.611 65.8179C158.063 66.0001 157.579 66.3275 157.211 66.7635C156.843 67.1994 156.607 67.7267 156.529 68.2863C156.459 68.8486 156.549 69.4188 156.787 69.9353C157.025 70.4518 157.403 70.8948 157.881 71.2167" fill="white"/>
<path d="M158.611 65.8179C158.063 66.0001 157.579 66.3275 157.211 66.7635C156.843 67.1994 156.607 67.7267 156.529 68.2863C156.459 68.8486 156.549 69.4188 156.787 69.9353C157.025 70.4518 157.403 70.8948 157.881 71.2167" stroke="#263238" stroke-linecap="round" stroke-linejoin="round"/>
<path d="M156.968 70.438C156.581 70.6926 156.3 71.0742 156.176 71.5137C156.052 71.9532 156.093 72.4215 156.292 72.8338" fill="white"/>
<path d="M156.968 70.438C156.581 70.6926 156.3 71.0742 156.176 71.5137C156.052 71.9532 156.093 72.4215 156.292 72.8338" stroke="#263238" stroke-linecap="round" stroke-linejoin="round"/>
<path d="M173.348 68.6758C173.346 68.4416 173.288 68.2111 173.179 68.0025C173.07 67.794 172.912 67.6132 172.719 67.4746C172.527 67.3364 172.304 67.2461 172.068 67.2116C171.832 67.177 171.592 67.1994 171.367 67.2766C171.355 66.8696 171.25 66.4705 171.059 66.1084C170.868 65.7464 170.597 65.4306 170.265 65.1844C169.931 64.9524 169.547 64.7989 169.143 64.736C168.738 64.673 168.324 64.7022 167.933 64.8214" fill="white"/>
<path d="M173.348 68.6758C173.346 68.4416 173.288 68.2111 173.179 68.0025C173.07 67.794 172.912 67.6132 172.719 67.4746C172.527 67.3364 172.304 67.2461 172.068 67.2116C171.832 67.177 171.592 67.1994 171.367 67.2766C171.355 66.8696 171.25 66.4705 171.059 66.1084C170.868 65.7464 170.597 65.4306 170.265 65.1844C169.931 64.9524 169.547 64.7989 169.143 64.736C168.738 64.673 168.324 64.7022 167.933 64.8214" stroke="#263238" stroke-linecap="round" stroke-linejoin="round"/>
<path d="M169.954 69.1904C169.066 69.447 168.318 70.0352 167.872 70.8272L169.954 69.1904Z" fill="white"/>
<path d="M169.954 69.1904C169.066 69.447 168.318 70.0352 167.872 70.8272" stroke="#263238" stroke-linecap="round" stroke-linejoin="round"/>
<path d="M162.674 67.481C162.627 67.9643 162.719 68.4507 162.937 68.8868L162.674 67.481Z" fill="white"/>
<path d="M162.674 67.481C162.627 67.9643 162.719 68.4507 162.937 68.8868" stroke="#263238" stroke-linecap="round" stroke-linejoin="round"/>
<path d="M159.165 67.7251C159.165 67.7251 160.335 68.8933 160.314 68.8867L159.341 69.6259" fill="white"/>
<path d="M159.165 67.7251C159.165 67.7251 160.335 68.8933 160.314 68.8867L159.341 69.6259" stroke="#263238" stroke-linecap="round" stroke-linejoin="round"/>
<path d="M155.961 71.7712C155.792 71.6468 155.598 71.5575 155.393 71.5087C155.187 71.4599 154.973 71.4527 154.764 71.4874C154.556 71.5251 154.357 71.6028 154.179 71.7161C154.002 71.8294 153.849 71.976 153.73 72.1474" fill="white"/>
<path d="M155.961 71.7712C155.792 71.6468 155.598 71.5575 155.393 71.5087C155.187 71.4599 154.973 71.4527 154.764 71.4874C154.556 71.5251 154.357 71.6028 154.179 71.7161C154.002 71.8294 153.849 71.976 153.73 72.1474" stroke="#263238" stroke-linecap="round" stroke-linejoin="round"/>
<path d="M165.878 67.646C165.495 68.0964 165.276 68.6582 165.256 69.2432L165.878 67.646Z" fill="white"/>
<path d="M165.878 67.646C165.495 68.0964 165.276 68.6582 165.256 69.2432" stroke="#263238" stroke-linecap="round" stroke-linejoin="round"/>
<path d="M168.615 266.046C165.999 264.436 160.76 258.872 159.827 256.912C158.894 254.951 157.914 254.806 155.994 253.777C150.586 250.886 147.726 249.282 149.971 245.784C150.402 245.136 150.938 244.561 151.559 244.081C152.385 243.426 153.066 242.615 153.562 241.696C154.058 240.777 154.359 239.77 154.446 238.735C154.629 236.826 154.654 234.906 154.52 232.993C156.237 234.313 158.319 235.706 163.464 235.97L162.747 243.19C162.247 249.328 167.215 256.331 168.763 260.924C168.959 261.499 169.054 262.284 169.439 262.601C169.976 262.988 170.434 263.469 170.791 264.02C170.951 264.314 171.008 264.65 170.954 264.979C170.9 265.307 170.737 265.609 170.49 265.839C170.243 266.068 169.927 266.213 169.588 266.25C169.249 266.288 168.908 266.216 168.615 266.046Z" fill="white" stroke="#263238" stroke-linecap="round" stroke-linejoin="round"/>
<path d="M157.393 242.068C156.932 242.531 156.559 243.069 156.291 243.659C156.16 243.94 156.111 244.25 156.149 244.557C156.187 244.863 156.311 245.153 156.507 245.395" stroke="#263238" stroke-linecap="round" stroke-linejoin="round"/>
<path d="M158.495 253.77C158.61 255.75 161.625 259.479 163.011 260.944" stroke="#263238" stroke-linecap="round" stroke-linejoin="round"/>
<path d="M167.587 261.01C168.062 261.604 168.633 262.119 169.277 262.535" stroke="#263238" stroke-linecap="round" stroke-linejoin="round"/>
<path d="M155.588 252.285C153.995 252.223 152.464 251.668 151.214 250.701" stroke="#263238" stroke-linecap="round" stroke-linejoin="round"/>
<path d="M166.174 262.627C166.358 263.34 166.689 264.01 167.145 264.595C167.602 265.181 168.175 265.67 168.831 266.033" fill="white"/>
<path d="M166.174 262.627C166.358 263.34 166.689 264.01 167.145 264.595C167.602 265.181 168.175 265.67 168.831 266.033" stroke="#263238" stroke-linecap="round" stroke-linejoin="round"/>
<path d="M171.454 198L164.424 236.016C164.099 236.016 163.795 235.983 163.484 235.956C158.901 235.574 156.143 234.207 154.54 232.973C153.763 224.486 154.115 213.833 154.067 211.193C153.918 201.815 157.447 197.228 157.447 197.228C157.447 197.228 142.433 198.838 127.027 199.168C122.559 199.26 118.05 199.247 113.865 199.062C116.718 197.954 122.018 192.027 123.465 190.37C111.493 200.336 101.326 197.663 99.2301 196.898L99.5208 197.043L100.007 197.274C98.7834 196.958 97.6014 196.504 96.4855 195.921C85.7371 189.981 86.812 179.322 87.6975 173.89C87.7922 173.283 87.8868 172.742 87.9612 172.286C87.9612 172.286 95.0794 172.695 105.111 173.553C108.62 173.857 112.48 174.213 116.515 174.616C122.025 175.184 127.859 175.844 133.578 176.629C135.038 176.814 136.484 177.032 137.918 177.236C139.141 177.414 140.358 177.606 141.548 177.797C142.481 177.942 143.386 178.094 144.292 178.246L146.381 178.616C146.604 178.662 146.834 178.701 147.057 178.734C158.089 180.761 166.931 183.295 169.277 186.364C173.225 191.604 171.454 198 171.454 198Z" fill="#BFBFBF" stroke="#263238" stroke-linecap="round" stroke-linejoin="round"/>
<path d="M146.307 189.183C147.762 188.303 149.175 187.354 150.545 186.338" stroke="#263238" stroke-linecap="round" stroke-linejoin="round"/>
<path d="M112.689 198.528C122.832 198.577 132.836 196.227 141.845 191.677" stroke="#263238" stroke-linecap="round" stroke-linejoin="round"/>
<path d="M171.805 193.459C171.493 198.066 169.461 202.401 166.093 205.643" stroke="#263238" stroke-linecap="round" stroke-linejoin="round"/>
<path d="M159.874 194.898L156.717 198.818" stroke="#263238" stroke-linecap="round" stroke-linejoin="round"/>
<path d="M123.41 190.377C121.964 192.034 116.65 197.96 113.811 199.069C108.403 198.818 103.529 198.277 99.9533 197.281L99.4666 197.05L99.1759 196.904C101.272 197.67 111.439 200.343 123.41 190.377Z" fill="#263238" stroke="#263238" stroke-linecap="round" stroke-linejoin="round"/>
<path d="M98.6959 196.72C98.8433 196.763 98.9859 196.821 99.1218 196.891C98.9756 196.845 98.8333 196.787 98.6959 196.72Z" fill="#263238" stroke="#263238" stroke-linecap="round" stroke-linejoin="round"/>
<path d="M125.06 188.925C124.506 189.44 123.951 189.921 123.404 190.377L123.769 189.948L125.06 188.925Z" fill="#263238" stroke="#263238" stroke-linecap="round" stroke-linejoin="round"/>
<path d="M214.292 200.033C211.223 200.62 203.422 200.066 201.367 199.234C199.312 198.403 198.467 198.977 196.324 199.512C190.314 201.023 187.049 201.795 186.218 197.703C186.089 196.934 186.089 196.149 186.218 195.38C186.36 194.34 186.287 193.282 186.001 192.271C185.715 191.259 185.223 190.314 184.555 189.493C183.335 187.965 181.992 186.535 180.539 185.216C182.736 185.031 185.271 184.648 189.233 181.368L193.809 187.163C197.798 192.021 206.417 193.816 210.811 196.152C211.358 196.443 211.987 196.957 212.514 196.911C213.182 196.837 213.858 196.884 214.508 197.05C214.841 197.159 215.127 197.372 215.321 197.657C215.516 197.942 215.608 198.282 215.583 198.623C215.559 198.965 215.418 199.288 215.185 199.544C214.951 199.799 214.637 199.971 214.292 200.033Z" fill="white" stroke="#263238" stroke-linecap="round" stroke-linejoin="round"/>
<path d="M189.016 189.968C189.011 190.619 189.119 191.266 189.334 191.882C189.435 192.178 189.619 192.441 189.865 192.641C190.111 192.84 190.41 192.968 190.727 193.01" stroke="#263238" stroke-linecap="round" stroke-linejoin="round"/>
<path d="M198.115 197.835C199.609 199.221 204.47 199.921 206.525 200.066" stroke="#263238" stroke-linecap="round" stroke-linejoin="round"/>
<path d="M194.931 198.706C193.713 199.733 192.195 200.359 190.591 200.495" stroke="#263238" stroke-linecap="round" stroke-linejoin="round"/>
<path d="M210.533 199.248C211.089 199.634 211.727 199.891 212.399 200C213.072 200.108 213.761 200.065 214.414 199.875" fill="white"/>
<path d="M210.533 199.248C211.089 199.634 211.727 199.891 212.399 200C213.072 200.108 213.761 200.065 214.414 199.875" stroke="#263238" stroke-linecap="round" stroke-linejoin="round"/>
<path d="M189.956 180.781C186.979 183.275 183.316 184.861 179.424 185.341C172.833 179.619 166.289 171.93 164.295 170.095C159.8 165.964 157.298 156.961 157.298 156.961C157.298 156.961 147.368 168.3 136.241 178.952C127.257 187.565 117.475 195.749 111.466 197.188C99.3517 200.086 92.5376 193.657 89.3131 189.077C88.9548 188.569 87.6163 184.688 87.3459 184.298C92.4961 181.606 97.3836 178.46 101.948 174.9C104.739 172.755 107.829 170.405 111.087 167.983C115.542 164.683 120.308 161.225 125.067 157.938C126.419 157.654 128.034 157.278 129.19 156.988C129.706 156.834 130.158 156.524 130.482 156.103L130.691 156.176L135.065 151.622C135.444 151.43 135.782 151.168 136.059 150.85L136.491 150.374C146.05 144.434 154.344 140.309 158.252 140.983C164.903 142.124 168.141 148.038 168.141 148.038L189.956 180.781Z" fill="#BFBFBF" stroke="#263238" stroke-linecap="round" stroke-linejoin="round"/>
<path d="M136.491 150.394L136.059 150.869C135.782 151.187 135.444 151.45 135.065 151.641L130.691 156.195L130.482 156.123C130.158 156.544 129.706 156.854 129.19 157.007C128.034 157.311 126.385 157.667 125.067 157.958C126.277 157.113 127.494 156.288 128.697 155.476C129.724 154.776 130.747 154.094 131.766 153.43L134.098 151.912L135.896 150.77C136.092 150.651 136.295 150.526 136.491 150.394Z" fill="white" stroke="#263238" stroke-linecap="round" stroke-linejoin="round"/>
<path d="M208.208 196.68C209.56 197.05 210.175 197.598 211.514 198C211.885 198.099 212.974 198 213.298 198.225C213.469 198.315 213.618 198.44 213.734 198.592C213.851 198.743 213.933 198.917 213.974 199.102C214.008 199.286 213.977 199.476 213.884 199.639C213.792 199.803 213.645 199.93 213.467 200" stroke="#263238" stroke-linecap="round" stroke-linejoin="round"/>
<path d="M210.114 196.495C211.151 197.147 212.37 197.467 213.602 197.413C213.902 197.4 214.197 197.484 214.441 197.652C214.686 197.821 214.866 198.064 214.954 198.343C215.065 198.581 215.089 198.849 215.023 199.102C214.956 199.355 214.803 199.579 214.589 199.736" stroke="#263238" stroke-linecap="round" stroke-linejoin="round"/>
<path d="M115.63 153.345L105.652 156.862L103.428 151.18L122.599 145.405C122.599 145.405 121.457 147.266 118.374 151.82C116.4 154.717 115.63 153.345 115.63 153.345Z" fill="#1865F2"/>
<mask id="mask0_253_42" style="mask-type:luminance" maskUnits="userSpaceOnUse" x="103" y="145" width="20" height="12">
<path d="M115.63 153.345L105.652 156.862L103.428 151.18L122.599 145.405C122.599 145.405 121.457 147.266 118.374 151.82C116.4 154.717 115.63 153.345 115.63 153.345Z" fill="white"/>
</mask>
<g mask="url(#mask0_253_42)">
<path d="M115.63 153.345L105.652 156.862L103.428 151.18L122.599 145.405C122.599 145.405 121.457 147.266 118.374 151.82C116.4 154.717 115.63 153.345 115.63 153.345Z" fill="#1865F2" stroke="#263238" stroke-linecap="round" stroke-linejoin="round"/>
<path opacity="0.2" d="M106.179 155.1C106.362 155.343 106.603 155.539 106.881 155.67C107.159 155.801 107.466 155.864 107.775 155.852C108.389 155.822 108.994 155.695 109.566 155.476L115.19 153.668C115.997 153.454 116.764 153.115 117.462 152.665C118.99 151.562 123.654 148.52 120.22 149.074C117.185 149.543 105.713 154.374 106.179 155.1Z" fill="#263238"/>
</g>
<path d="M115.63 153.345L105.652 156.862L103.428 151.18L122.599 145.405C122.599 145.405 121.457 147.266 118.374 151.82C116.4 154.717 115.63 153.345 115.63 153.345Z" stroke="#263238" stroke-linecap="round" stroke-linejoin="round"/>
<path d="M90.9018 120.522C91.1316 121.486 89.6782 122.991 88.6642 122.892C87.6669 122.677 86.7637 122.162 86.0819 121.42L80.052 116.067C79.6353 115.769 79.3198 115.355 79.1461 114.879C79.095 114.689 79.1031 114.488 79.1693 114.303C79.2355 114.117 79.3569 113.955 79.5179 113.837C79.6061 113.804 79.6965 113.778 79.7883 113.757H79.937C80.7969 112.915 81.4681 111.908 81.908 110.799C82.3479 109.69 82.5469 108.504 82.4923 107.316C84.5203 106.973 86.5821 108.022 87.9611 109.52C89.3402 111.018 91.9225 110.84 92.6931 112.721C91.9698 113.203 89.9892 116.232 89.685 117.051C89.5737 117.341 89.5054 117.646 89.4821 117.955C89.433 118.54 89.5159 119.129 89.725 119.68C89.934 120.231 90.2642 120.73 90.6922 121.143L90.9018 120.522Z" fill="white" stroke="#263238" stroke-linecap="round" stroke-linejoin="round"/>
<path d="M111.087 171.099C108.226 174.289 105.569 177.648 103.131 181.157C99.8519 183.302 95.3092 185.117 89.0495 186.048L88.556 186.12C85.2841 186.543 83.3373 172.755 82.4247 164.017C82.0123 159.991 81.8163 157.041 81.8163 157.041C81.8163 157.041 72.4199 144.118 71.3383 131.928C71.235 130.868 71.2056 129.803 71.2504 128.74C71.4464 123.928 72.6835 120.615 74.1504 118.365C75.3962 116.317 77.2963 114.727 79.5584 113.837C79.3974 113.955 79.276 114.117 79.2098 114.303C79.1436 114.489 79.1355 114.689 79.1866 114.88C79.2663 115.15 79.4098 115.399 79.6057 115.606L79.7477 115.751C79.8559 115.863 79.9775 115.969 80.0925 116.068L82.5058 118.213L86.1224 121.42C86.8042 122.163 87.7074 122.677 88.7047 122.892C89.7187 122.998 91.1721 121.486 90.9423 120.523L90.78 121.104C90.3525 120.692 90.0227 120.194 89.8136 119.644C89.6046 119.094 89.5214 118.507 89.57 117.922C89.5925 117.611 89.6608 117.304 89.7728 117.012C90.6842 117.852 91.4755 118.809 92.1253 119.856C95.147 124.668 100.623 131.294 103.962 135.195C105.08 136.485 105.801 138.058 106.04 139.732C106.28 141.406 106.028 143.112 105.314 144.652L105.273 144.738C104.063 147.213 105.023 150.084 105.233 150.645L105.273 150.744L107.166 156.348L110.188 165.456L110.749 167.119C111.194 168.398 111.31 169.765 111.087 171.099Z" fill="#1865F2"/>
<mask id="mask1_253_42" style="mask-type:luminance" maskUnits="userSpaceOnUse" x="71" y="113" width="41" height="74">
<path d="M111.087 171.099C108.226 174.289 105.569 177.648 103.131 181.157C99.8519 183.302 95.3092 185.117 89.0495 186.048L88.556 186.12C85.2841 186.543 83.3373 172.755 82.4247 164.017C82.0123 159.991 81.8163 157.041 81.8163 157.041C81.8163 157.041 72.4199 144.118 71.3383 131.928C71.235 130.868 71.2056 129.803 71.2504 128.74C71.4464 123.928 72.6835 120.615 74.1504 118.365C75.3962 116.317 77.2963 114.727 79.5584 113.837C79.3974 113.955 79.276 114.117 79.2098 114.303C79.1436 114.489 79.1355 114.689 79.1866 114.88C79.2663 115.15 79.4098 115.399 79.6057 115.606L79.7477 115.751C79.8559 115.863 79.9775 115.969 80.0925 116.068L82.5058 118.213L86.1224 121.42C86.8042 122.163 87.7074 122.677 88.7047 122.892C89.7187 122.998 91.1721 121.486 90.9423 120.523L90.78 121.104C90.3525 120.692 90.0227 120.194 89.8136 119.644C89.6046 119.094 89.5214 118.507 89.57 117.922C89.5925 117.611 89.6608 117.304 89.7728 117.012C90.6842 117.852 91.4755 118.809 92.1253 119.856C95.147 124.668 100.623 131.294 103.962 135.195C105.08 136.485 105.801 138.058 106.04 139.732C106.28 141.406 106.028 143.112 105.314 144.652L105.273 144.738C104.063 147.213 105.023 150.084 105.233 150.645L105.273 150.744L107.166 156.348L110.188 165.456L110.749 167.119C111.194 168.398 111.31 169.765 111.087 171.099Z" fill="white"/>
</mask>
<g mask="url(#mask1_253_42)">
<path opacity="0.2" d="M95.2551 139.181C96.5606 140.739 97.6202 142.478 98.3985 144.342C99.0745 146.236 99.1151 148.454 98.0132 150.15C100.424 149.034 102.735 147.722 104.922 146.23C104.079 149.005 102.525 151.524 100.406 153.549C98.8514 155.034 96.4516 156.262 94.5791 155.173C92.9837 154.236 92.1252 152.592 91.6858 150.817C89.1373 140.64 89.1373 138.409 88.103 129.822C90.7191 132.66 92.9094 136.092 95.2551 139.181Z" fill="#263238"/>
<path opacity="0.2" d="M82.33 165.258C82.2217 167.432 82.4218 169.611 82.9249 171.732C83.181 172.793 83.6568 173.791 84.323 174.665C84.9891 175.539 85.8316 176.27 86.7984 176.814C89.09 177.949 91.8684 177.553 94.3223 176.814C96.7761 176.075 99.1692 174.973 101.758 174.788C100.113 176.589 98.092 178.025 95.8312 179.001C93.5705 179.976 91.1222 180.468 88.6506 180.444C89.4384 181.08 90.3698 181.523 91.3677 181.738C92.3656 181.952 93.4015 181.932 94.3899 181.678C92.1085 183.378 89.3847 184.418 86.528 184.681C87.9408 186.378 90.6245 186.246 92.781 185.678C96.9838 184.55 100.841 182.438 104.018 179.525C107.196 176.611 109.596 172.985 111.013 168.96C111.337 168.003 111.432 166.637 110.465 166.274C109.98 166.15 109.465 166.197 109.012 166.406L90.9287 172.399C89.6241 172.828 88.0693 173.224 86.9674 172.399C86.4712 171.973 86.0845 171.44 85.8385 170.841C84.7614 168.742 83.6888 166.639 82.6207 164.532L82.2489 165.363C82.1881 164.584 82.1205 163.799 82.0529 163.014" fill="#263238"/>
</g>
<path d="M111.087 171.099C108.226 174.289 105.569 177.648 103.131 181.157C99.8519 183.302 95.3092 185.117 89.0495 186.048L88.556 186.12C85.2841 186.543 83.3373 172.755 82.4247 164.017C82.0123 159.991 81.8163 157.041 81.8163 157.041C81.8163 157.041 72.4199 144.118 71.3383 131.928C71.235 130.868 71.2056 129.803 71.2504 128.74C71.4464 123.928 72.6835 120.615 74.1504 118.365C75.3962 116.317 77.2963 114.727 79.5584 113.837C79.3974 113.955 79.276 114.117 79.2098 114.303C79.1436 114.489 79.1355 114.689 79.1866 114.88C79.2663 115.15 79.4098 115.399 79.6057 115.606L79.7477 115.751C79.8559 115.863 79.9775 115.969 80.0925 116.068L82.5058 118.213L86.1224 121.42C86.8042 122.163 87.7074 122.677 88.7047 122.892C89.7187 122.998 91.1721 121.486 90.9423 120.523L90.78 121.104C90.3525 120.692 90.0227 120.194 89.8136 119.644C89.6046 119.094 89.5214 118.507 89.57 117.922C89.5925 117.611 89.6608 117.304 89.7728 117.012C90.6842 117.852 91.4755 118.809 92.1253 119.856C95.147 124.668 100.623 131.294 103.962 135.195C105.08 136.485 105.801 138.058 106.04 139.732C106.28 141.406 106.028 143.112 105.314 144.652L105.273 144.738C104.063 147.213 105.023 150.084 105.233 150.645L105.273 150.744L107.166 156.348L110.188 165.456L110.749 167.119C111.194 168.398 111.31 169.765 111.087 171.099Z" stroke="#263238" stroke-linecap="round" stroke-linejoin="round"/>
<path d="M79.768 113.744C79.6728 113.75 79.5804 113.777 79.4976 113.823" stroke="#263238" stroke-linecap="round" stroke-linejoin="round"/>
<path d="M82.4719 107.289L82.5389 107.184V107.276L82.4719 107.289Z" stroke="#263238" stroke-linecap="round" stroke-linejoin="round"/>
<path d="M79.964 113.718C79.8461 113.843 79.7197 113.96 79.5854 114.068" stroke="#263238" stroke-linecap="round" stroke-linejoin="round"/>
<path d="M152.249 132.528L150.45 134.402L149.991 134.884L149.484 135.412L149.213 135.689C145.441 139.649 139.127 146.249 136.187 149.503L135.754 149.978C135.478 150.296 135.14 150.559 134.761 150.75C134.462 150.908 134.132 151.001 133.794 151.021C133.349 151.055 132.901 150.994 132.482 150.843C131.897 150.626 131.348 150.326 130.853 149.952C130.028 149.321 129.273 148.606 128.602 147.82C128.332 147.516 128.075 147.2 127.832 146.896C127.412 146.361 127.034 145.84 126.709 145.378C126.033 144.408 125.635 143.708 125.635 143.708L126.601 142.718L126.73 142.593L131.759 137.458L148.842 120.034C150.849 118.707 152.249 132.528 152.249 132.528Z" fill="white" stroke="#263238" stroke-linecap="round" stroke-linejoin="round"/>
<path d="M148.47 121.981L129.373 141.583C129.373 141.583 128.379 142.903 129.373 143.563C130.367 144.223 146.53 126.278 146.53 126.278C146.53 126.278 149.551 127.373 150.471 128.918C151.39 130.462 148.152 125.466 148.443 122.021" fill="#BFBFBF"/>
<path d="M148.47 121.981L129.373 141.583C129.373 141.583 128.379 142.903 129.373 143.563C130.367 144.223 146.53 126.278 146.53 126.278C146.53 126.278 149.551 127.373 150.471 128.918C151.39 130.462 148.152 125.466 148.443 122.021" stroke="#263238" stroke-linecap="round" stroke-linejoin="round"/>
<path d="M151.836 131.247C151.836 131.247 149.322 127.155 148.815 125.195C148.518 124.15 148.401 123.064 148.47 121.981L150.214 122.212C151.171 125.138 151.717 128.178 151.836 131.247Z" fill="#BFBFBF" stroke="#263238" stroke-linecap="round" stroke-linejoin="round"/>
<path d="M152.147 132.126L145.921 128.997L130.705 144.54L129.353 142.884L145.468 125.968C147.053 126.321 148.501 127.112 149.639 128.245C150.825 129.288 151.693 130.631 152.147 132.126Z" fill="#BFBFBF" stroke="#263238" stroke-linecap="round" stroke-linejoin="round"/>
<path d="M152.249 132.528L150.451 134.402L149.991 134.884L149.484 135.412L149.213 135.689L135.579 149.886L134.747 150.757L130.373 155.311L130.164 155.238L128.379 154.592L122.586 152.493L127.818 146.903L129.9 144.678L129.927 144.652L130.367 144.183L131.225 143.266L144.995 128.555L152.249 132.528Z" fill="white" stroke="#263238" stroke-linecap="round" stroke-linejoin="round"/>
<path d="M115.63 153.186C115.63 153.186 100.677 159.324 94.2276 159.608C94.2276 159.608 90.2122 148.751 87.8327 129.406C86.7038 120.245 77.5913 122.892 77.5913 122.892C77.429 122.984 68.4653 126.773 72.1022 138.943C75.7391 151.114 86.6903 172.841 86.6903 172.841C94.8067 171.874 102.668 169.439 109.87 165.66L118.361 161.198C118.361 161.198 116.948 156.42 115.63 153.186Z" fill="#1865F2"/>
<mask id="mask2_253_42" style="mask-type:luminance" maskUnits="userSpaceOnUse" x="71" y="122" width="48" height="51">
<path d="M115.63 153.186C115.63 153.186 100.677 159.324 94.2276 159.608C94.2276 159.608 90.2122 148.751 87.8327 129.406C86.7038 120.245 77.5913 122.892 77.5913 122.892C77.429 122.984 68.4653 126.773 72.1022 138.943C75.7391 151.114 86.6903 172.841 86.6903 172.841C94.8067 171.874 102.668 169.439 109.87 165.66L118.361 161.198C118.361 161.198 116.948 156.42 115.63 153.186Z" fill="white"/>
</mask>
<g mask="url(#mask2_253_42)">
<path opacity="0.2" d="M75.036 139.049C77.287 141.986 80.1736 144.395 82.7762 147.041C83.4363 147.591 83.8924 148.338 84.0741 149.166C84.162 149.998 83.7158 150.783 83.4995 151.595C82.8235 153.984 84.2431 156.426 85.7911 158.38C87.3392 160.334 89.1711 162.267 89.597 164.696C89.7525 165.554 89.739 166.485 90.2189 167.217C91.1315 168.597 93.2001 168.537 94.836 168.141C102.725 166.353 109.803 161.541 117.867 160.769C109.301 165.906 100.059 169.881 90.3947 172.583C89.0427 172.966 87.4879 173.303 86.2643 172.583C85.2436 172.009 84.7298 170.874 84.2769 169.818L75.1779 148.5C73.7869 145.444 72.6367 142.289 71.7371 139.062C71.1625 136.818 69.7834 131.492 71.372 129.564C72.0007 130.779 71.8317 132.864 72.3658 134.336C73.0154 136.026 73.915 137.614 75.036 139.049Z" fill="#263238"/>
</g>
<path d="M115.63 153.186C115.63 153.186 100.677 159.324 94.2276 159.608C94.2276 159.608 90.2122 148.751 87.8327 129.406C86.7038 120.245 77.5913 122.892 77.5913 122.892C77.429 122.984 68.4653 126.773 72.1022 138.943C75.7391 151.114 86.6903 172.841 86.6903 172.841C94.8067 171.874 102.668 169.439 109.87 165.66L118.361 161.198C118.361 161.198 116.948 156.42 115.63 153.186Z" stroke="#263238" stroke-linecap="round" stroke-linejoin="round"/>
<path d="M134.646 146.652L133.212 147.2C133.212 147.2 133.605 149.793 132.962 150.275C132.8 150.473 132.638 150.665 132.469 150.849C132.225 151.127 131.963 151.39 131.685 151.635C131.631 151.872 131.556 152.189 131.448 152.546C131.202 153.516 130.766 154.43 130.164 155.238C129.84 155.659 129.388 155.969 128.873 156.123C127.717 156.426 126.067 156.783 124.749 157.073L122.579 157.522L118.09 159.997L117.347 158.017L115.636 153.397H115.691C116.363 153.142 117.01 152.828 117.624 152.46C117.888 152.266 118.131 152.044 118.347 151.8C119.683 150.125 120.869 148.341 121.889 146.467L122.031 146.21L122.478 145.411C122.701 145.022 122.856 144.751 122.931 144.626C124.107 144.018 125.398 143.306 126.574 142.705C127.737 142.118 128.393 142.705 130.549 142.349C131.157 142.349 131.306 142.771 131.225 143.253C131.056 143.638 130.755 143.953 130.373 144.144C129.701 144.481 128.988 144.734 128.251 144.896L129.907 144.639L130.759 144.507H130.88L132.029 144.329H132.07L133.138 144.164H133.219H133.287L135.355 144.302H135.416L136.471 144.375C136.472 144.399 136.472 144.423 136.471 144.447C136.626 144.843 137.113 146.559 134.646 146.652Z" fill="white" stroke="#263238" stroke-linecap="round" stroke-linejoin="round"/>
<path d="M127.298 148.276C130.542 147.061 132.773 146.956 134.646 146.652C134.943 146.73 135.256 146.724 135.55 146.634C135.843 146.544 136.104 146.374 136.302 146.144C136.491 145.895 136.605 145.6 136.634 145.292C136.663 144.983 136.604 144.673 136.464 144.395C135.112 144.395 133.726 143.992 132.408 144.276C130.279 144.738 128.562 144.553 126.013 145.656" stroke="#263238" stroke-linecap="round" stroke-linejoin="round"/>
<path d="M128.873 153.344C129.903 152.932 130.856 152.354 131.691 151.635" stroke="#263238" stroke-linecap="round" stroke-linejoin="round"/>
<path d="M128.23 150.698C129.933 150.306 131.592 149.753 133.186 149.048" stroke="#263238" stroke-linecap="round" stroke-linejoin="round"/>
<path d="M123.708 144.071C124.053 144.071 126.689 138.435 126.689 138.435C126.689 138.435 130.705 138.534 131.773 137.445C131.773 137.445 132.793 139.425 130.711 140.039C128.629 140.652 126.588 142.725 126.588 142.725L123.708 144.071Z" fill="white" stroke="#263238" stroke-linecap="round" stroke-linejoin="round"/>
<path d="M87.88 111.864C88.4878 112.792 89.3692 113.519 90.4082 113.949C91.4763 114.273 92.8959 113.705 93.0108 112.629C93.1055 111.685 92.2537 110.933 91.4831 110.359C90.5434 109.653 85.7438 105.244 84.7569 105.825C83.4522 106.577 87.3189 111.118 87.88 111.864Z" fill="#263238" stroke="#263238" stroke-linecap="round" stroke-linejoin="round"/>
<path d="M101.772 89.9053C102.271 91.3992 102.673 92.9224 102.975 94.4659C103.245 96.2809 102.576 99.4357 102.671 99.9901C102.765 100.544 104.821 104.056 104.699 104.676C104.577 105.296 101.995 106.108 101.995 106.108C101.995 106.108 100.643 110.24 99.8316 111.949C99.0204 113.659 98.9596 114.682 96.5598 114.233C94.16 113.784 91.0504 112.253 87.3391 109.527C83.6279 106.801 80.133 104.861 80.0789 100.624C80.0248 96.3865 93.3961 88.6513 95.1943 87.8593C96.9924 87.0673 101.772 89.9053 101.772 89.9053Z" fill="white" stroke="#263238" stroke-linecap="round" stroke-linejoin="round"/>
<path d="M101.075 99.812C100.893 100.617 100.474 101.205 100.156 101.132C99.8384 101.059 99.6897 100.34 99.8722 99.5414C100.055 98.7428 100.487 98.1422 100.798 98.2214C101.109 98.3006 101.265 99.0002 101.075 99.812Z" fill="#263238"/>
<path d="M98.5608 97.3498C98.5608 97.3498 100.285 94.5712 101.941 95.9176" stroke="#263238" stroke-linecap="round" stroke-linejoin="round"/>
<path d="M101.109 107.527C101.109 107.527 98.696 108.049 97.824 106.036" stroke="#263238" stroke-linecap="round" stroke-linejoin="round"/>
<path d="M89.4686 79.9062C83.8713 80.2692 78.7337 80.9292 74.7318 84.5262C67.2958 91.245 71.0205 99.8382 72.19 102.432C73.0485 104.346 74.6033 105.97 75.2388 107.956C75.8742 109.943 75.036 112.576 72.8322 112.946C73.2891 113.441 73.9255 113.744 74.6068 113.789C75.2881 113.835 75.9608 113.62 76.4826 113.19C75.9431 115.226 74.8031 117.062 73.204 118.47C74.4781 118.422 75.7279 118.115 76.8734 117.569C78.0189 117.022 79.0347 116.248 79.8559 115.295L78.3551 120.12C81.0591 118.991 83.851 117.797 85.7303 115.691C87.6096 113.586 88.2585 110.279 86.4063 108.141C85.3585 106.94 83.7496 106.319 82.3503 105.448C80.951 104.577 79.7071 103.184 79.9978 101.68C80.1528 101.108 80.4999 100.604 80.9833 100.248C81.4667 99.8919 82.0585 99.7045 82.6639 99.716C83.2693 99.7274 83.8533 99.9368 84.3222 100.311C84.7912 100.685 85.118 101.202 85.2503 101.779C87.6248 98.4585 90.6794 95.656 94.2209 93.5484C93.8428 96.2027 92.8636 98.7414 91.3546 100.98C91.6183 100.591 95.1132 99.8975 95.7554 99.5939C97.2296 98.8913 98.5951 97.9892 99.8114 96.9144C102.148 94.8862 103.82 92.2299 104.618 89.2782C106.132 83.325 94.6941 79.5696 89.4686 79.9062Z" fill="#263238" stroke="#263238" stroke-linecap="round" stroke-linejoin="round"/>
<path d="M96.3097 102.069H96.4246" stroke="#263238" stroke-linecap="round" stroke-linejoin="round"/>
<path d="M97.3914 103.244V103.125" stroke="#263238" stroke-linecap="round" stroke-linejoin="round"/>
<path d="M98.162 102.188V102.069" stroke="#263238" stroke-linecap="round" stroke-linejoin="round"/>
<path d="M156.447 152.222C156.718 154.91 157.507 157.523 158.772 159.924" stroke="#263238" stroke-linecap="round" stroke-linejoin="round"/>
<path d="M122.241 159.925C118.185 163.885 114.359 167.726 111.087 171.105L111.27 170.498C111.525 169.673 111.46 168.785 111.087 168.003L122.241 159.925Z" fill="#263238" stroke="#263238" stroke-linecap="round" stroke-linejoin="round"/>
<path d="M164.207 144.17C167.234 146.831 169.21 150.444 169.791 154.381" stroke="#263238" stroke-linecap="round" stroke-linejoin="round"/>
<path d="M89.6714 164.472C90.9147 162.301 92.7582 160.515 94.9915 159.317" stroke="#263238" stroke-linecap="round" stroke-linejoin="round"/>
<path d="M96.1813 150.816C99.4247 149.882 102.346 148.102 104.631 145.668" stroke="#263238" stroke-linecap="round" stroke-linejoin="round"/>
<path d="M91.6308 132.66C91.6308 133.38 91.6308 134.106 91.5912 134.825" stroke="#263238" stroke-linecap="round" stroke-linejoin="round"/>
<path d="M89.6714 140.488C90.6583 137.445 90.2798 133.155 90.3136 130.31C90.2935 130.123 90.344 129.936 90.4555 129.782C90.5108 129.738 90.5746 129.706 90.6432 129.687C90.7117 129.667 90.7836 129.662 90.8544 129.67C90.9251 129.679 90.9934 129.702 91.055 129.737C91.1166 129.772 91.1702 129.819 91.2127 129.875C91.3808 130.105 91.475 130.378 91.4831 130.66C91.5089 130.802 91.5247 130.945 91.5304 131.089" stroke="#263238" stroke-linecap="round" stroke-linejoin="round"/>
<path d="M97.7429 176.141C101.336 174.552 104.422 172.043 106.673 168.881C106.384 170.799 105.705 172.641 104.676 174.299C103.647 175.957 102.287 177.397 100.679 178.534C99.0704 179.67 97.2449 180.481 95.3103 180.918C93.3757 181.355 91.371 181.409 89.4146 181.078" stroke="#263238" stroke-linecap="round" stroke-linejoin="round"/>
<path d="M92.8756 177.698C93.5989 177.547 94.3087 177.368 95.0118 177.157" stroke="#263238" stroke-linecap="round" stroke-linejoin="round"/>
<path d="M76.2122 145.668C76.7783 146.436 77.4019 147.162 78.0779 147.84" stroke="#263238" stroke-linecap="round" stroke-linejoin="round"/>
<path d="M71.2706 133.736C71.7234 137.456 73.0389 141.027 75.1171 144.177" stroke="#263238" stroke-linecap="round" stroke-linejoin="round"/>
<path d="M113.291 168.716C112.54 169.495 111.81 170.293 111.087 171.098C108.226 174.289 105.569 177.648 103.13 181.157C101.887 182.917 100.706 184.734 99.5883 186.608" stroke="#263238" stroke-linecap="round" stroke-linejoin="round"/>
<path d="M86.5279 104.973C86.3048 106.669 87.062 109.738 92.0644 112.517" stroke="#263238" stroke-linecap="round" stroke-linejoin="round"/>
</svg>
