<svg width="40" height="38" viewBox="0 0 40 38" fill="none" xmlns="http://www.w3.org/2000/svg">
<path fill-rule="evenodd" clip-rule="evenodd" d="M0.656075 0.973451C0.498572 1.57721 0.367319 2.1941 0.314818 2.81099C0.144189 4.98979 -0.0526897 12.3006 0.0129367 13.7706C0.0129367 14.2169 0.0916881 14.7156 0.275442 15.1225C0.603574 15.8444 1.44359 15.8969 1.90298 15.2275C2.07361 14.9913 2.17861 14.6763 2.23111 14.3744C2.37549 13.495 2.49361 12.6156 2.55924 11.7362C2.743 9.08488 2.91362 6.42045 3.03175 3.76914C3.07113 2.88974 2.97925 1.99722 2.87425 1.11783C2.7955 0.461565 2.25736 -0.037196 1.7586 0.00217988C1.16796 0.054681 0.800453 0.435314 0.656075 0.973451ZM18.6115 18.4559C18.6618 18.2547 18.7054 18.0654 18.747 17.8849C18.8357 17.5002 18.9153 17.1547 19.0315 16.8153C20.7378 11.7752 23.4809 7.28633 26.6048 3.02061C26.9723 2.52185 27.4317 2.04934 27.9435 1.73433C28.2192 1.5637 28.7704 1.58996 29.0854 1.76058C29.3217 1.89184 29.4923 2.40372 29.4398 2.69248C29.3479 3.24374 29.1511 3.80813 28.8754 4.30689C27.0641 7.60134 25.2397 10.8827 23.3891 14.1509C22.8447 15.1061 22.2761 16.0533 21.7087 16.9988L21.7087 16.9989C21.551 17.2615 21.3935 17.524 21.2365 17.7866C21.0003 18.1934 20.7377 18.5872 20.4621 18.9547C20.1602 19.3747 19.7009 19.6241 19.2415 19.3485C19.2125 19.3308 19.1832 19.3136 19.154 19.2965C18.8796 19.1354 18.6115 18.978 18.6115 18.4559ZM36.5354 37.8997L36.5349 37.8996C36.0785 37.8336 35.595 37.7636 35.1231 37.6588C32.3275 37.0288 29.5318 36.3988 26.7492 35.7425C26.1455 35.5981 25.5548 35.3487 25.0167 35.06C24.2948 34.6793 24.0454 34.1412 24.1635 33.5506C24.2817 32.9599 24.7542 32.5924 25.5811 32.5793C26.1455 32.5662 26.7492 32.5793 27.2874 32.7106C30.8181 33.6031 34.3488 34.5218 37.8663 35.4537C38.2601 35.5587 38.667 35.7425 38.9689 36.005C39.7301 36.6481 39.4939 37.6588 38.5226 37.9082C38.282 37.9662 38.0204 37.9719 37.7313 37.9781C37.5629 37.9817 37.3853 37.9856 37.1969 38C36.9865 37.965 36.7644 37.9328 36.5354 37.8997Z" fill="#FCBD1A"/>
</svg>
